RosaSans-BlackItalic.ufo
<glyph name="exclam" format="2">
  <advance width="730"/>
  <unicode hex="0021"/>
  <outline>
    <contour>
      <point x="540" y="536" type="line"/>
      <point x="833" y="1400" type="line"/>
      <point x="373" y="1400" type="line"/>
      <point x="200" y="536" type="line"/>
    </contour>
    <contour>
      <point x="254" y="-30" type="curve" smooth="yes"/>
      <point x="387" y="-30"/>
      <point x="516" y="67"/>
      <point x="516" y="230" type="curve" smooth="yes"/>
      <point x="516" y="345"/>
      <point x="420" y="416"/>
      <point x="304" y="416" type="curve" smooth="yes"/>
      <point x="171" y="416"/>
      <point x="40" y="322"/>
      <point x="40" y="159" type="curve" smooth="yes"/>
      <point x="40" y="44"/>
      <point x="133" y="-30"/>
    </contour>
  </outline>
</glyph>
<glyph name="numbersign" format="2">
  <advance width="1314"/>
  <unicode hex="0023"/>
  <outline>
    <contour>
      <point x="453" y="32" type="line"/>
      <point x="525" y="336" type="line"/>
      <point x="709" y="334" type="line"/>
      <point x="637" y="32" type="line"/>
      <point x="909" y="32" type="line"/>
      <point x="983" y="334" type="line"/>
      <point x="1145" y="334" type="line"/>
      <point x="1207" y="592" type="line"/>
      <point x="1047" y="592" type="line"/>
      <point x="1095" y="802" type="line"/>
      <point x="1255" y="802" type="line"/>
      <point x="1315" y="1058" type="line"/>
      <point x="1157" y="1058" type="line"/>
      <point x="1232" y="1368" type="line"/>
      <point x="960" y="1368" type="line"/>
      <point x="885" y="1058" type="line"/>
      <point x="699" y="1058" type="line"/>
      <point x="774" y="1368" type="line"/>
      <point x="502" y="1368" type="line"/>
      <point x="427" y="1058" type="line"/>
      <point x="265" y="1058" type="line"/>
      <point x="203" y="802" type="line"/>
      <point x="365" y="802" type="line"/>
      <point x="315" y="592" type="line"/>
      <point x="155" y="592" type="line"/>
      <point x="93" y="336" type="line"/>
      <point x="253" y="336" type="line"/>
      <point x="181" y="32" type="line"/>
    </contour>
    <contour>
      <point x="635" y="802" type="line"/>
      <point x="823" y="802" type="line"/>
      <point x="775" y="592" type="line"/>
      <point x="587" y="592" type="line"/>
    </contour>
  </outline>
</glyph>
<glyph name="dollar" format="2">
  <advance width="1296"/>
  <unicode hex="0024"/>
  <outline>
    <contour>
      <point x="589" y="-30" type="curve" smooth="yes"/>
      <point x="742" y="-30"/>
      <point x="885" y="19"/>
      <point x="990" y="105" type="curve" smooth="yes"/>
      <point x="1095" y="191"/>
      <point x="1163" y="317"/>
      <point x="1163" y="470" type="curve" smooth="yes"/>
      <point x="1163" y="542"/>
      <point x="1140" y="607"/>
      <point x="1084" y="666" type="curve" smooth="yes"/>
      <point x="1027" y="725"/>
      <point x="937" y="778"/>
      <point x="804" y="822" type="curve"/>
      <point x="689" y="844" type="line"/>
      <point x="657" y="855"/>
      <point x="628" y="874"/>
      <point x="607" y="899" type="curve" smooth="yes"/>
      <point x="586" y="924"/>
      <point x="571" y="958"/>
      <point x="571" y="1002" type="curve" smooth="yes"/>
      <point x="571" y="1047"/>
      <point x="595" y="1087"/>
      <point x="635" y="1115" type="curve" smooth="yes"/>
      <point x="675" y="1142"/>
      <point x="731" y="1159"/>
      <point x="795" y="1159" type="curve" smooth="yes"/>
      <point x="860" y="1159"/>
      <point x="927" y="1146"/>
      <point x="984" y="1120" type="curve" smooth="yes"/>
      <point x="1040" y="1094"/>
      <point x="1089" y="1056"/>
      <point x="1122" y="1012" type="curve"/>
      <point x="1334" y="1231" type="line"/>
      <point x="1287" y="1291"/>
      <point x="1215" y="1341"/>
      <point x="1128" y="1377" type="curve" smooth="yes"/>
      <point x="1040" y="1413"/>
      <point x="937" y="1432"/>
      <point x="826" y="1432" type="curve" smooth="yes"/>
      <point x="685" y="1432"/>
      <point x="545" y="1382"/>
      <point x="442" y="1297" type="curve" smooth="yes"/>
      <point x="338" y="1212"/>
      <point x="271" y="1090"/>
      <point x="271" y="938" type="curve" smooth="yes"/>
      <point x="271" y="797"/>
      <point x="358" y="666"/>
      <point x="559" y="581" type="curve"/>
      <point x="670" y="561" type="line"/>
      <point x="737" y="542"/>
      <point x="780" y="520"/>
      <point x="807" y="493" type="curve" smooth="yes"/>
      <point x="834" y="465"/>
      <point x="845" y="433"/>
      <point x="845" y="393" type="curve" smooth="yes"/>
      <point x="845" y="344"/>
      <point x="821" y="306"/>
      <point x="784" y="281" type="curve" smooth="yes"/>
      <point x="747" y="256"/>
      <point x="693" y="242"/>
      <point x="630" y="242" type="curve" smooth="yes"/>
      <point x="557" y="242"/>
      <point x="480" y="259"/>
      <point x="411" y="289" type="curve" smooth="yes"/>
      <point x="342" y="319"/>
      <point x="280" y="360"/>
      <point x="243" y="408" type="curve"/>
      <point x="36" y="181" type="line"/>
      <point x="96" y="116"/>
      <point x="177" y="64"/>
      <point x="273" y="28" type="curve" smooth="yes"/>
      <point x="368" y="-9"/>
      <point x="477" y="-30"/>
    </contour>
    <contour>
      <point x="598" y="-160" type="line"/>
      <point x="1059" y="1560" type="line"/>
      <point x="797" y="1560" type="line"/>
      <point x="336" y="-160" type="line"/>
    </contour>
  </outline>
</glyph>
<glyph name="percent" format="2">
  <advance width="2104"/>
  <unicode hex="0025"/>
  <outline>
    <contour>
      <point x="1749" y="1298" type="line"/>
      <point x="1583" y="1440" type="line"/>
      <point x="452" y="101" type="line"/>
      <point x="619" y="-40" type="line"/>
    </contour>
    <contour>
      <point x="527" y="606" type="qcurve" smooth="yes"/>
      <point x="623" y="606"/>
      <point x="795" y="681"/>
      <point x="924" y="810"/>
      <point x="999" y="981"/>
      <point x="999" y="1076" type="qcurve" smooth="yes"/>
      <point x="999" y="1148"/>
      <point x="947" y="1274"/>
      <point x="849" y="1368"/>
      <point x="713" y="1420"/>
      <point x="631" y="1420" type="qcurve" smooth="yes"/>
      <point x="538" y="1420"/>
      <point x="365" y="1347"/>
      <point x="232" y="1220"/>
      <point x="155" y="1053"/>
      <point x="155" y="958" type="qcurve" smooth="yes"/>
      <point x="155" y="885"/>
      <point x="208" y="756"/>
      <point x="308" y="662"/>
      <point x="445" y="606"/>
    </contour>
    <contour>
      <point x="560" y="852" type="qcurve" smooth="yes"/>
      <point x="527" y="852"/>
      <point x="475" y="872"/>
      <point x="438" y="907"/>
      <point x="417" y="959"/>
      <point x="417" y="990" type="qcurve" smooth="yes"/>
      <point x="417" y="1027"/>
      <point x="445" y="1094"/>
      <point x="493" y="1145"/>
      <point x="558" y="1174"/>
      <point x="596" y="1174" type="qcurve" smooth="yes"/>
      <point x="628" y="1174"/>
      <point x="680" y="1154"/>
      <point x="718" y="1120"/>
      <point x="739" y="1070"/>
      <point x="739" y="1040" type="qcurve" smooth="yes"/>
      <point x="739" y="999"/>
      <point x="710" y="930"/>
      <point x="660" y="880"/>
      <point x="595" y="852"/>
    </contour>
    <contour>
      <point x="1572" y="-20" type="qcurve" smooth="yes"/>
      <point x="1666" y="-20"/>
      <point x="1838" y="55"/>
      <point x="1969" y="182"/>
      <point x="2046" y="351"/>
      <point x="2046" y="444" type="qcurve" smooth="yes"/>
      <point x="2046" y="520"/>
      <point x="1994" y="648"/>
      <point x="1896" y="742"/>
      <point x="1758" y="794"/>
      <point x="1675" y="794" type="qcurve" smooth="yes"/>
      <point x="1580" y="794"/>
      <point x="1409" y="721"/>
      <point x="1278" y="594"/>
      <point x="1202" y="427"/>
      <point x="1202" y="332" type="qcurve" smooth="yes"/>
      <point x="1202" y="259"/>
      <point x="1255" y="130"/>
      <point x="1353" y="36"/>
      <point x="1490" y="-20"/>
    </contour>
    <contour>
      <point x="1607" y="226" type="qcurve" smooth="yes"/>
      <point x="1573" y="226"/>
      <point x="1520" y="246"/>
      <point x="1483" y="282"/>
      <point x="1464" y="331"/>
      <point x="1464" y="360" type="qcurve" smooth="yes"/>
      <point x="1464" y="400"/>
      <point x="1491" y="468"/>
      <point x="1540" y="520"/>
      <point x="1604" y="548"/>
      <point x="1643" y="548" type="qcurve" smooth="yes"/>
      <point x="1709" y="548"/>
      <point x="1786" y="476"/>
      <point x="1786" y="414" type="qcurve" smooth="yes"/>
      <point x="1786" y="377"/>
      <point x="1758" y="308"/>
      <point x="1709" y="257"/>
      <point x="1645" y="226"/>
    </contour>
  </outline>
</glyph>
<glyph name="ampersand" format="2">
  <advance width="1558"/>
  <unicode hex="0026"/>
  <outline>
    <contour>
      <point x="483" y="-30" type="curve" smooth="yes"/>
      <point x="619" y="-30"/>
      <point x="775" y="16"/>
      <point x="897" y="99" type="curve"/>
      <point x="962" y="0" type="line"/>
      <point x="1373" y="0" type="line"/>
      <point x="1169" y="317" type="line"/>
      <point x="1305" y="427"/>
      <point x="1479" y="635"/>
      <point x="1547" y="772" type="curve"/>
      <point x="1256" y="893" type="line"/>
      <point x="1176" y="739"/>
      <point x="1103" y="648"/>
      <point x="1013" y="560" type="curve"/>
      <point x="737" y="951" type="line" smooth="yes"/>
      <point x="706" y="995"/>
      <point x="703" y="1023"/>
      <point x="703" y="1046" type="curve" smooth="yes"/>
      <point x="703" y="1124"/>
      <point x="766" y="1155"/>
      <point x="849" y="1155" type="curve" smooth="yes"/>
      <point x="932" y="1156"/>
      <point x="1030" y="1123"/>
      <point x="1107" y="1076" type="curve"/>
      <point x="1252" y="1321" type="line"/>
      <point x="1133" y="1398"/>
      <point x="1000" y="1431"/>
      <point x="864" y="1430" type="curve" smooth="yes"/>
      <point x="608" y="1429"/>
      <point x="377" y="1289"/>
      <point x="377" y="1014" type="curve" smooth="yes"/>
      <point x="377" y="950"/>
      <point x="393" y="886"/>
      <point x="426" y="820" type="curve"/>
      <point x="737" y="343" type="line"/>
      <point x="689" y="307"/>
      <point x="619" y="286"/>
      <point x="560" y="286" type="curve" smooth="yes"/>
      <point x="472" y="286"/>
      <point x="413" y="330"/>
      <point x="413" y="397" type="curve" smooth="yes"/>
      <point x="413" y="478"/>
      <point x="506" y="575"/>
      <point x="600" y="599" type="curve"/>
      <point x="456" y="831" type="line"/>
      <point x="226" y="750"/>
      <point x="52" y="580"/>
      <point x="52" y="338" type="curve" smooth="yes"/>
      <point x="52" y="125"/>
      <point x="220" y="-30"/>
    </contour>
  </outline>
</glyph>
<glyph name="quotesingle" format="2">
  <advance width="516"/>
  <unicode hex="0027"/>
  <outline>
    <contour>
      <point x="450" y="702" type="line"/>
      <point x="675" y="1400" type="line"/>
      <point x="315" y="1400" type="line"/>
      <point x="170" y="702" type="line"/>
    </contour>
  </outline>
</glyph>
<glyph name="parenleft" format="2">
  <advance width="762"/>
  <unicode hex="0028"/>
  <outline>
    <contour>
      <point x="497" y="-123" type="line"/>
      <point x="469" y="-6"/>
      <point x="458" y="117"/>
      <point x="458" y="248" type="curve" smooth="yes"/>
      <point x="458" y="699"/>
      <point x="644" y="1179"/>
      <point x="956" y="1490" type="curve"/>
      <point x="649" y="1610" type="line"/>
      <point x="309" y="1229"/>
      <point x="108" y="766"/>
      <point x="108" y="269" type="curve" smooth="yes"/>
      <point x="108" y="103"/>
      <point x="126" y="-63"/>
      <point x="171" y="-230" type="curve"/>
    </contour>
  </outline>
</glyph>
<glyph name="parenright" format="2">
  <advance width="732"/>
  <unicode hex="0029"/>
  <outline>
    <contour>
      <point x="191" y="-230" type="line"/>
      <point x="531" y="151"/>
      <point x="732" y="614"/>
      <point x="732" y="1111" type="curve" smooth="yes"/>
      <point x="732" y="1277"/>
      <point x="713" y="1443"/>
      <point x="669" y="1610" type="curve"/>
      <point x="342" y="1503" type="line"/>
      <point x="371" y="1386"/>
      <point x="382" y="1263"/>
      <point x="382" y="1132" type="curve" smooth="yes"/>
      <point x="382" y="682"/>
      <point x="196" y="201"/>
      <point x="-116" y="-110" type="curve"/>
    </contour>
  </outline>
</glyph>
<glyph name="asterisk" format="2">
  <advance width="1192"/>
  <unicode hex="002A"/>
  <outline>
    <contour>
      <point x="629" y="651" type="line"/>
      <point x="700" y="375" type="line"/>
      <point x="1055" y="499" type="line"/>
      <point x="926" y="750" type="line"/>
      <point x="1209" y="743" type="line"/>
      <point x="1191" y="1115" type="line"/>
      <point x="911" y="1075" type="line"/>
      <point x="1016" y="1337" type="line"/>
      <point x="651" y="1435" type="line"/>
      <point x="607" y="1158" type="line"/>
      <point x="387" y="1334" type="line"/>
      <point x="179" y="1022" type="line"/>
      <point x="426" y="888" type="line"/>
      <point x="190" y="732" type="line"/>
      <point x="428" y="450" type="line"/>
    </contour>
  </outline>
</glyph>
<glyph name="comma" format="2">
  <advance width="600"/>
  <unicode hex="002C"/>
  <outline>
    <contour>
      <point x="-112" y="-396" type="line"/>
      <point x="-7" y="-346"/>
      <point x="193" y="-225"/>
      <point x="348" y="-79"/>
      <point x="445" y="91"/>
      <point x="445" y="190" type="qcurve" smooth="yes"/>
      <point x="445" y="242"/>
      <point x="412" y="326"/>
      <point x="349" y="385"/>
      <point x="264" y="416"/>
      <point x="209" y="416" type="qcurve" smooth="yes"/>
      <point x="158" y="416"/>
      <point x="66" y="379"/>
      <point x="-1" y="316"/>
      <point x="-38" y="228"/>
      <point x="-38" y="178" type="qcurve" smooth="yes"/>
      <point x="-38" y="138"/>
      <point x="-9" y="71"/>
      <point x="45" y="21"/>
      <point x="119" y="-7"/>
      <point x="164" y="-11" type="qcurve"/>
      <point x="142" y="-44"/>
      <point x="72" y="-104"/>
      <point x="-18" y="-161"/>
      <point x="-123" y="-213"/>
      <point x="-181" y="-237" type="qcurve"/>
    </contour>
  </outline>
</glyph>
<glyph name="hyphen" format="2">
  <advance width="800"/>
  <unicode hex="002D"/>
  <outline>
    <contour>
      <point x="675" y="392" type="line"/>
      <point x="771" y="742" type="line"/>
      <point x="151" y="742" type="line"/>
      <point x="55" y="392" type="line"/>
    </contour>
  </outline>
</glyph>
<glyph name="slash" format="2">
  <advance width="948"/>
  <unicode hex="002F"/>
  <outline>
    <contour>
      <point x="1202" y="1428" type="line"/>
      <point x="928" y="1610" type="line"/>
      <point x="-155" y="-47" type="line"/>
      <point x="119" y="-230" type="line"/>
    </contour>
  </outline>
</glyph>
<glyph name="zero.tnum" format="2">
  <advance width="1200"/>
  <unicode hex="0030"/>
  <outline>
    <contour>
      <point x="549" y="-30" type="curve" smooth="yes"/>
      <point x="1002" y="-30"/>
      <point x="1236" y="497"/>
      <point x="1236" y="887" type="curve" smooth="yes"/>
      <point x="1236" y="1221"/>
      <point x="1056" y="1430"/>
      <point x="745" y="1430" type="curve" smooth="yes"/>
      <point x="292" y="1430"/>
      <point x="57" y="905"/>
      <point x="57" y="514" type="curve" smooth="yes"/>
      <point x="57" y="183"/>
      <point x="240" y="-30"/>
    </contour>
    <contour>
      <point x="576" y="312" type="curve" smooth="yes"/>
      <point x="459" y="312"/>
      <point x="420" y="407"/>
      <point x="420" y="520" type="curve" smooth="yes"/>
      <point x="420" y="697"/>
      <point x="501" y="1088"/>
      <point x="717" y="1088" type="curve" smooth="yes"/>
      <point x="832" y="1088"/>
      <point x="875" y="997"/>
      <point x="875" y="883" type="curve" smooth="yes"/>
      <point x="875" y="706"/>
      <point x="792" y="312"/>
    </contour>
  </outline>
</glyph>
<glyph name="one" format="2">
  <advance width="1026"/>
  <unicode hex="0031"/>
  <outline>
    <contour>
      <point x="691" y="0" type="line"/>
      <point x="1068" y="1400" type="line"/>
      <point x="949" y="1400" type="line"/>
      <point x="177" y="1163" type="line"/>
      <point x="267" y="857" type="line"/>
      <point x="581" y="950" type="line"/>
      <point x="323" y="0" type="line"/>
    </contour>
  </outline>
</glyph>
<glyph name="two" format="2">
  <advance width="1186"/>
  <unicode hex="0032"/>
  <anchor x="820" y="-30" name="top"/>
  <outline>
    <contour>
      <point x="165" y="924" type="curve"/>
      <point x="513" y="900" type="line"/>
      <point x="514" y="917"/>
      <point x="517" y="957"/>
      <point x="521" y="971" type="curve" smooth="yes"/>
      <point x="534" y="1021"/>
      <point x="559" y="1057"/>
      <point x="593" y="1079" type="curve" smooth="yes"/>
      <point x="617" y="1094"/>
      <point x="645" y="1102"/>
      <point x="678" y="1102" type="curve" smooth="yes"/>
      <point x="730" y="1102"/>
      <point x="772" y="1088"/>
      <point x="802" y="1060" type="curve" smooth="yes"/>
      <point x="835" y="1029"/>
      <point x="854" y="983"/>
      <point x="854" y="924" type="curve" smooth="yes"/>
      <point x="854" y="894"/>
      <point x="844" y="862"/>
      <point x="827" y="830" type="curve" smooth="yes"/>
      <point x="797" y="775"/>
      <point x="744" y="722"/>
      <point x="678" y="681" type="curve" smooth="yes"/>
      <point x="-24" y="250" type="line"/>
      <point x="-91" y="0" type="line"/>
      <point x="1020" y="0" type="line"/>
      <point x="1105" y="318" type="line"/>
      <point x="599" y="318" type="line"/>
      <point x="865" y="465" type="line" smooth="yes"/>
      <point x="983" y="529"/>
      <point x="1091" y="633"/>
      <point x="1162" y="756" type="curve" smooth="yes"/>
      <point x="1213" y="845"/>
      <point x="1244" y="944"/>
      <point x="1244" y="1044" type="curve" smooth="yes"/>
      <point x="1244" y="1205"/>
      <point x="1143" y="1307"/>
      <point x="1013" y="1366" type="curve" smooth="yes"/>
      <point x="913" y="1411"/>
      <point x="796" y="1430"/>
      <point x="694" y="1430" type="curve" smooth="yes"/>
      <point x="582" y="1430"/>
      <point x="486" y="1407"/>
      <point x="405" y="1362" type="curve" smooth="yes"/>
      <point x="299" y="1302"/>
      <point x="223" y="1203"/>
      <point x="187" y="1069" type="curve" smooth="yes"/>
      <point x="180" y="1044"/>
      <point x="166" y="950"/>
    </contour>
  </outline>
</glyph>
<glyph name="two.tnum" format="2">
  <advance width="1200"/>
  <unicode hex="0032"/>
  <outline>
    <contour>
      <point x="233" y="1079" type="line"/>
      <point x="240" y="1079" type="line"/>
      <point x="511" y="926" type="line"/>
      <point x="547" y="1015"/>
      <point x="620" y="1093"/>
      <point x="708" y="1093" type="curve" smooth="yes"/>
      <point x="789" y="1093"/>
      <point x="847" y="1049"/>
      <point x="847" y="972" type="curve" smooth="yes"/>
      <point x="847" y="811"/>
      <point x="610" y="644"/>
      <point x="494" y="566" type="curve" smooth="yes"/>
      <point x="31" y="257" type="line"/>
      <point x="-35" y="0" type="line"/>
      <point x="992" y="0" type="line"/>
      <point x="1075" y="326" type="line"/>
      <point x="622" y="326" type="line"/>
      <point x="802" y="442" type="line" smooth="yes"/>
      <point x="1003" y="570"/>
      <point x="1207" y="800"/>
      <point x="1207" y="1048" type="curve" smooth="yes"/>
      <point x="1207" y="1287"/>
      <point x="992" y="1430"/>
      <point x="759" y="1430" type="curve" smooth="yes"/>
      <point x="533" y="1430"/>
      <point x="345" y="1302"/>
      <point x="241" y="1078" type="curve"/>
    </contour>
  </outline>
</glyph>
<glyph name="three" format="2">
  <advance width="1176"/>
  <unicode hex="0033"/>
  <outline>
    <contour>
      <point x="454" y="-32" type="qcurve" smooth="yes"/>
      <point x="570" y="-32"/>
      <point x="785" y="40"/>
      <point x="948" y="172"/>
      <point x="1046" y="360"/>
      <point x="1046" y="476" type="qcurve" smooth="yes"/>
      <point x="1046" y="545"/>
      <point x="1005" y="655"/>
      <point x="939" y="738"/>
      <point x="850" y="795"/>
      <point x="801" y="810" type="qcurve"/>
      <point x="1167" y="1109" type="line"/>
      <point x="1244" y="1400" type="line"/>
      <point x="308" y="1400" type="line"/>
      <point x="221" y="1078" type="line"/>
      <point x="698" y="1078" type="line"/>
      <point x="328" y="821" type="line"/>
      <point x="361" y="589" type="line"/>
      <point x="393" y="596"/>
      <point x="458" y="600"/>
      <point x="489" y="600" type="qcurve" smooth="yes"/>
      <point x="531" y="600"/>
      <point x="602" y="583"/>
      <point x="651" y="551"/>
      <point x="679" y="501"/>
      <point x="679" y="468" type="qcurve" smooth="yes"/>
      <point x="679" y="431"/>
      <point x="647" y="368"/>
      <point x="591" y="325"/>
      <point x="514" y="302"/>
      <point x="469" y="302" type="qcurve" smooth="yes"/>
      <point x="419" y="302"/>
      <point x="322" y="325"/>
      <point x="240" y="365"/>
      <point x="173" y="423"/>
      <point x="154" y="459" type="qcurve"/>
      <point x="-33" y="166" type="line"/>
      <point x="-9" y="125"/>
      <point x="90" y="54"/>
      <point x="220" y="-1"/>
      <point x="374" y="-32"/>
    </contour>
  </outline>
</glyph>
<glyph name="three.tnum" format="2">
  <advance width="1200"/>
  <unicode hex="0033"/>
  <outline>
    <contour>
      <point x="493" y="-32" type="curve" smooth="yes"/>
      <point x="785" y="-32"/>
      <point x="1079" y="153"/>
      <point x="1079" y="476" type="curve" smooth="yes"/>
      <point x="1079" y="640"/>
      <point x="988" y="763"/>
      <point x="838" y="810" type="curve"/>
      <point x="1199" y="1107" type="line"/>
      <point x="1276" y="1400" type="line"/>
      <point x="351" y="1400" type="line"/>
      <point x="265" y="1078" type="line"/>
      <point x="738" y="1078" type="line"/>
      <point x="371" y="822" type="line"/>
      <point x="404" y="590" type="line"/>
      <point x="443" y="598"/>
      <point x="487" y="600"/>
      <point x="528" y="600" type="curve" smooth="yes"/>
      <point x="626" y="600"/>
      <point x="721" y="567"/>
      <point x="721" y="468" type="curve" smooth="yes"/>
      <point x="721" y="354"/>
      <point x="611" y="302"/>
      <point x="508" y="302" type="curve" smooth="yes"/>
      <point x="386" y="302"/>
      <point x="248" y="351"/>
      <point x="194" y="453" type="curve"/>
      <point x="11" y="166" type="line"/>
      <point x="88" y="31"/>
      <point x="345" y="-32"/>
    </contour>
  </outline>
</glyph>
<glyph name="four" format="2">
  <advance width="1206"/>
  <unicode hex="0034"/>
  <outline>
    <contour>
      <point x="853" y="0" type="line"/>
      <point x="919" y="246" type="line"/>
      <point x="1093" y="246" type="line"/>
      <point x="1179" y="564" type="line"/>
      <point x="1005" y="564" type="line"/>
      <point x="1070" y="812" type="line"/>
      <point x="742" y="812" type="line"/>
      <point x="677" y="564" type="line"/>
      <point x="464" y="564" type="line"/>
      <point x="1050" y="1400" type="line"/>
      <point x="638" y="1400" type="line"/>
      <point x="24" y="523" type="line"/>
      <point x="-53" y="246" type="line"/>
      <point x="591" y="246" type="line"/>
      <point x="525" y="0" type="line"/>
    </contour>
  </outline>
</glyph>
<glyph name="four.tnum" format="2">
  <advance width="1200"/>
  <unicode hex="0034"/>
  <outline>
    <contour>
      <point x="854" y="0" type="line"/>
      <point x="917" y="246" type="line"/>
      <point x="1084" y="246" type="line"/>
      <point x="1166" y="564" type="line"/>
      <point x="999" y="564" type="line"/>
      <point x="1061" y="812" type="line"/>
      <point x="744" y="812" type="line"/>
      <point x="682" y="564" type="line"/>
      <point x="480" y="564" type="line"/>
      <point x="1041" y="1400" type="line"/>
      <point x="646" y="1400" type="line"/>
      <point x="57" y="523" type="line"/>
      <point x="-17" y="246" type="line"/>
      <point x="599" y="246" type="line"/>
      <point x="537" y="0" type="line"/>
    </contour>
  </outline>
</glyph>
<glyph name="five" format="2">
  <advance width="1188"/>
  <unicode hex="0035"/>
  <outline>
    <contour>
      <point x="471" y="-30" type="curve" smooth="yes"/>
      <point x="805" y="-30"/>
      <point x="1063" y="187"/>
      <point x="1063" y="511" type="curve" smooth="yes"/>
      <point x="1063" y="751"/>
      <point x="887" y="898"/>
      <point x="612" y="898" type="curve" smooth="yes"/>
      <point x="595" y="898"/>
      <point x="579" y="897"/>
      <point x="565" y="895" type="curve"/>
      <point x="630" y="1054" type="line"/>
      <point x="1186" y="1054" type="line"/>
      <point x="1279" y="1396" type="line"/>
      <point x="449" y="1400" type="line"/>
      <point x="198" y="738" type="line"/>
      <point x="301" y="567" type="line"/>
      <point x="367" y="589"/>
      <point x="430" y="598"/>
      <point x="485" y="598" type="curve" smooth="yes"/>
      <point x="617" y="598"/>
      <point x="688" y="547"/>
      <point x="688" y="471" type="curve" smooth="yes"/>
      <point x="688" y="368"/>
      <point x="608" y="304"/>
      <point x="482" y="304" type="curve" smooth="yes"/>
      <point x="342" y="304"/>
      <point x="216" y="345"/>
      <point x="142" y="447" type="curve"/>
      <point x="-39" y="159" type="line"/>
      <point x="64" y="44"/>
      <point x="255" y="-30"/>
    </contour>
  </outline>
</glyph>
<glyph name="five.tnum" format="2">
  <advance width="1200"/>
  <unicode hex="0035"/>
  <outline>
    <contour>
      <point x="506" y="-30" type="curve" smooth="yes"/>
      <point x="832" y="-30"/>
      <point x="1076" y="192"/>
      <point x="1076" y="511" type="curve" smooth="yes"/>
      <point x="1076" y="776"/>
      <point x="882" y="898"/>
      <point x="625" y="898" type="curve" smooth="yes"/>
      <point x="617" y="898"/>
      <point x="609" y="898"/>
      <point x="601" y="896" type="curve"/>
      <point x="598" y="896" type="line"/>
      <point x="660" y="1054" type="line"/>
      <point x="1192" y="1054" type="line"/>
      <point x="1281" y="1396" type="line"/>
      <point x="483" y="1400" type="line"/>
      <point x="243" y="738" type="line"/>
      <point x="343" y="568" type="line"/>
      <point x="409" y="590"/>
      <point x="467" y="598"/>
      <point x="519" y="598" type="curve" smooth="yes"/>
      <point x="600" y="598"/>
      <point x="713" y="577"/>
      <point x="713" y="471" type="curve" smooth="yes"/>
      <point x="713" y="356"/>
      <point x="618" y="304"/>
      <point x="517" y="304" type="curve" smooth="yes"/>
      <point x="391" y="304"/>
      <point x="268" y="340"/>
      <point x="193" y="449" type="curve"/>
      <point x="18" y="160" type="line"/>
      <point x="130" y="25"/>
      <point x="343" y="-30"/>
    </contour>
  </outline>
</glyph>
<glyph name="six" format="2">
  <advance width="1304"/>
  <unicode hex="0036"/>
  <outline>
    <contour>
      <point x="589" y="-30" type="qcurve" smooth="yes"/>
      <point x="711" y="-30"/>
      <point x="936" y="55"/>
      <point x="1109" y="206"/>
      <point x="1214" y="413"/>
      <point x="1214" y="535" type="qcurve" smooth="yes"/>
      <point x="1214" y="640"/>
      <point x="1139" y="794"/>
      <point x="1004" y="894"/>
      <point x="817" y="944"/>
      <point x="706" y="944" type="qcurve" smooth="yes"/>
      <point x="651" y="944"/>
      <point x="542" y="918"/>
      <point x="489" y="900" type="qcurve"/>
      <point x="658" y="813" type="line"/>
      <point x="1255" y="1400" type="line"/>
      <point x="820" y="1400" type="line"/>
      <point x="444" y="1014" type="line"/>
      <point x="383" y="954"/>
      <point x="259" y="818"/>
      <point x="157" y="665"/>
      <point x="92" y="499"/>
      <point x="92" y="410" type="qcurve" smooth="yes"/>
      <point x="92" y="316"/>
      <point x="162" y="157"/>
      <point x="291" y="38"/>
      <point x="475" y="-30"/>
    </contour>
    <contour>
      <point x="634" y="286" type="qcurve" smooth="yes"/>
      <point x="599" y="286"/>
      <point x="538" y="307"/>
      <point x="492" y="346"/>
      <point x="465" y="406"/>
      <point x="465" y="444" type="qcurve" smooth="yes"/>
      <point x="465" y="489"/>
      <point x="497" y="567"/>
      <point x="553" y="626"/>
      <point x="629" y="660"/>
      <point x="675" y="660" type="qcurve" smooth="yes"/>
      <point x="710" y="660"/>
      <point x="770" y="641"/>
      <point x="816" y="603"/>
      <point x="841" y="547"/>
      <point x="841" y="511" type="qcurve" smooth="yes"/>
      <point x="841" y="456"/>
      <point x="804" y="373"/>
      <point x="745" y="317"/>
      <point x="671" y="286"/>
    </contour>
  </outline>
</glyph>
<glyph name="six.tnum" format="2">
  <advance width="1200"/>
  <unicode hex="0036"/>
  <outline>
    <contour>
      <point x="578" y="-30" type="curve" smooth="yes"/>
      <point x="885" y="-30"/>
      <point x="1151" y="204"/>
      <point x="1151" y="495" type="curve" smooth="yes"/>
      <point x="1151" y="723"/>
      <point x="968" y="914"/>
      <point x="683" y="914" type="curve" smooth="yes"/>
      <point x="655" y="914"/>
      <point x="621" y="910"/>
      <point x="590" y="898" type="curve"/>
      <point x="588" y="898" type="line"/>
      <point x="789" y="1052"/>
      <point x="987" y="1138"/>
      <point x="1239" y="1138" type="curve"/>
      <point x="1186" y="1430" type="line"/>
      <point x="1053" y="1430"/>
      <point x="926" y="1411"/>
      <point x="807" y="1374" type="curve" smooth="yes"/>
      <point x="367" y="1235"/>
      <point x="60" y="879"/>
      <point x="60" y="501" type="curve" smooth="yes"/>
      <point x="60" y="192"/>
      <point x="269" y="-30"/>
    </contour>
    <contour>
      <point x="591" y="286" type="curve" smooth="yes"/>
      <point x="493" y="286"/>
      <point x="425" y="351"/>
      <point x="425" y="434" type="curve" smooth="yes"/>
      <point x="425" y="543"/>
      <point x="516" y="618"/>
      <point x="621" y="618" type="curve" smooth="yes"/>
      <point x="720" y="618"/>
      <point x="784" y="553"/>
      <point x="784" y="472" type="curve" smooth="yes"/>
      <point x="784" y="361"/>
      <point x="696" y="286"/>
    </contour>
  </outline>
</glyph>
<glyph name="seven" format="2">
  <advance width="1162"/>
  <unicode hex="0037"/>
  <outline>
    <contour>
      <point x="443" y="0" type="line"/>
      <point x="1257" y="1130" type="line"/>
      <point x="1328" y="1400" type="line"/>
      <point x="306" y="1400" type="line"/>
      <point x="210" y="1042" type="line"/>
      <point x="764" y="1042" type="line"/>
      <point x="-2" y="0" type="line"/>
    </contour>
  </outline>
</glyph>
<glyph name="seven.tnum" format="2">
  <advance width="1200"/>
  <unicode hex="0037"/>
  <outline>
    <contour>
      <point x="485" y="0" type="line"/>
      <point x="1264" y="1131" type="line"/>
      <point x="1332" y="1400" type="line"/>
      <point x="350" y="1400" type="line"/>
      <point x="259" y="1042" type="line"/>
      <point x="790" y="1042" type="line"/>
      <point x="58" y="0" type="line"/>
    </contour>
  </outline>
</glyph>
<glyph name="eight" format="2">
  <advance width="1236"/>
  <unicode hex="0038"/>
  <outline>
    <contour>
      <point x="522" y="-30" type="qcurve" smooth="yes"/>
      <point x="650" y="-30"/>
      <point x="875" y="40"/>
      <point x="1041" y="164"/>
      <point x="1138" y="335"/>
      <point x="1138" y="438" type="qcurve"/>
      <point x="1136" y="520"/>
      <point x="1056" y="661"/>
      <point x="976" y="710" type="qcurve"/>
      <point x="1041" y="733"/>
      <point x="1148" y="807"/>
      <point x="1224" y="903"/>
      <point x="1264" y="1014"/>
      <point x="1264" y="1073" type="qcurve" smooth="yes"/>
      <point x="1264" y="1153"/>
      <point x="1196" y="1283"/>
      <point x="1074" y="1379"/>
      <point x="904" y="1430"/>
      <point x="804" y="1430" type="qcurve" smooth="yes"/>
      <point x="682" y="1430"/>
      <point x="484" y="1366"/>
      <point x="341" y="1250"/>
      <point x="262" y="1094"/>
      <point x="262" y="1002" type="qcurve" smooth="yes"/>
      <point x="262" y="971"/>
      <point x="279" y="903"/>
      <point x="312" y="842"/>
      <point x="357" y="787"/>
      <point x="386" y="768" type="qcurve"/>
      <point x="312" y="749"/>
      <point x="181" y="666"/>
      <point x="84" y="554"/>
      <point x="30" y="418"/>
      <point x="30" y="344" type="qcurve" smooth="yes"/>
      <point x="30" y="258"/>
      <point x="99" y="121"/>
      <point x="228" y="23"/>
      <point x="409" y="-30"/>
    </contour>
    <contour>
      <point x="572" y="276" type="qcurve" smooth="yes"/>
      <point x="536" y="276"/>
      <point x="475" y="299"/>
      <point x="433" y="335"/>
      <point x="410" y="386"/>
      <point x="410" y="416" type="qcurve" smooth="yes"/>
      <point x="410" y="454"/>
      <point x="441" y="519"/>
      <point x="493" y="569"/>
      <point x="565" y="598"/>
      <point x="608" y="598" type="qcurve" smooth="yes"/>
      <point x="648" y="598"/>
      <point x="709" y="579"/>
      <point x="751" y="543"/>
      <point x="774" y="494"/>
      <point x="774" y="463" type="qcurve" smooth="yes"/>
      <point x="774" y="424"/>
      <point x="744" y="356"/>
      <point x="691" y="306"/>
      <point x="617" y="276"/>
    </contour>
    <contour>
      <point x="750" y="908" type="qcurve" smooth="yes"/>
      <point x="719" y="908"/>
      <point x="666" y="926"/>
      <point x="630" y="955"/>
      <point x="610" y="996"/>
      <point x="610" y="1022" type="qcurve" smooth="yes"/>
      <point x="610" y="1052"/>
      <point x="635" y="1106"/>
      <point x="680" y="1145"/>
      <point x="741" y="1168"/>
      <point x="775" y="1168" type="qcurve" smooth="yes"/>
      <point x="804" y="1168"/>
      <point x="854" y="1153"/>
      <point x="888" y="1122"/>
      <point x="908" y="1083"/>
      <point x="908" y="1059" type="qcurve" smooth="yes"/>
      <point x="908" y="1026"/>
      <point x="883" y="971"/>
      <point x="842" y="932"/>
      <point x="783" y="908"/>
    </contour>
  </outline>
</glyph>
<glyph name="eight.tnum" format="2">
  <advance width="1200"/>
  <unicode hex="0038"/>
  <outline>
    <contour>
      <point x="512" y="-30" type="curve" smooth="yes"/>
      <point x="796" y="-30"/>
      <point x="1104" y="133"/>
      <point x="1103" y="438" type="curve" smooth="yes"/>
      <point x="1102" y="547"/>
      <point x="1051" y="644"/>
      <point x="946" y="710" type="curve"/>
      <point x="1097" y="765"/>
      <point x="1224" y="898"/>
      <point x="1224" y="1073" type="curve" smooth="yes"/>
      <point x="1224" y="1323"/>
      <point x="989" y="1430"/>
      <point x="782" y="1430" type="curve" smooth="yes"/>
      <point x="518" y="1430"/>
      <point x="262" y="1281"/>
      <point x="262" y="1002" type="curve" smooth="yes"/>
      <point x="262" y="915"/>
      <point x="314" y="815"/>
      <point x="382" y="768" type="curve"/>
      <point x="198" y="719"/>
      <point x="40" y="550"/>
      <point x="40" y="344" type="curve" smooth="yes"/>
      <point x="40" y="73"/>
      <point x="290" y="-30"/>
    </contour>
    <contour>
      <point x="560" y="276" type="curve" smooth="yes"/>
      <point x="479" y="276"/>
      <point x="406" y="328"/>
      <point x="406" y="416" type="curve" smooth="yes"/>
      <point x="406" y="521"/>
      <point x="496" y="598"/>
      <point x="595" y="598" type="curve" smooth="yes"/>
      <point x="677" y="598"/>
      <point x="752" y="557"/>
      <point x="752" y="463" type="curve" smooth="yes"/>
      <point x="752" y="352"/>
      <point x="664" y="276"/>
    </contour>
    <contour>
      <point x="731" y="908" type="curve" smooth="yes"/>
      <point x="663" y="908"/>
      <point x="598" y="946"/>
      <point x="598" y="1022" type="curve" smooth="yes"/>
      <point x="598" y="1110"/>
      <point x="673" y="1168"/>
      <point x="755" y="1168" type="curve" smooth="yes"/>
      <point x="818" y="1168"/>
      <point x="880" y="1132"/>
      <point x="880" y="1059" type="curve" smooth="yes"/>
      <point x="880" y="973"/>
      <point x="813" y="908"/>
    </contour>
  </outline>
</glyph>
<glyph name="nine" format="2">
  <advance width="1274"/>
  <unicode hex="0039"/>
  <outline>
    <contour>
      <point x="573" y="0" type="line"/>
      <point x="948" y="396" type="line" smooth="yes"/>
      <point x="1108" y="567"/>
      <point x="1294" y="759"/>
      <point x="1294" y="995" type="curve" smooth="yes"/>
      <point x="1294" y="1238"/>
      <point x="1103" y="1430"/>
      <point x="802" y="1430" type="curve" smooth="yes"/>
      <point x="482" y="1430"/>
      <point x="185" y="1196"/>
      <point x="185" y="875" type="curve" smooth="yes"/>
      <point x="185" y="634"/>
      <point x="364" y="484"/>
      <point x="637" y="484" type="curve" smooth="yes"/>
      <point x="669" y="484"/>
      <point x="697" y="484"/>
      <point x="733" y="483" type="curve"/>
      <point x="733" y="612" type="line"/>
      <point x="141" y="0" type="line"/>
    </contour>
    <contour>
      <point x="720" y="756" type="curve" smooth="yes"/>
      <point x="626" y="756"/>
      <point x="561" y="805"/>
      <point x="561" y="903" type="curve" smooth="yes"/>
      <point x="561" y="1041"/>
      <point x="662" y="1118"/>
      <point x="764" y="1118" type="curve" smooth="yes"/>
      <point x="855" y="1118"/>
      <point x="923" y="1067"/>
      <point x="923" y="968" type="curve" smooth="yes"/>
      <point x="923" y="852"/>
      <point x="838" y="756"/>
    </contour>
  </outline>
</glyph>
<glyph name="less" format="2">
  <advance width="1296"/>
  <unicode hex="003C"/>
  <outline>
    <contour>
      <point x="1153" y="324" type="line"/>
      <point x="513" y="608" type="line"/>
      <point x="1376" y="927" type="line"/>
      <point x="1283" y="1182" type="line"/>
      <point x="134" y="765" type="line"/>
      <point x="63" y="495" type="line"/>
      <point x="1045" y="69" type="line"/>
    </contour>
  </outline>
</glyph>
<glyph name="equal" format="2">
  <advance width="1296"/>
  <unicode hex="003D"/>
  <outline>
    <contour>
      <point x="1300" y="782" type="line"/>
      <point x="1371" y="1050" type="line"/>
      <point x="211" y="1050" type="line"/>
      <point x="140" y="782" type="line"/>
    </contour>
    <contour>
      <point x="1170" y="291" type="line"/>
      <point x="1240" y="559" type="line"/>
      <point x="80" y="559" type="line"/>
      <point x="10" y="291" type="line"/>
    </contour>
  </outline>
</glyph>
<glyph name="greater" format="2">
  <advance width="1296"/>
  <unicode hex="003E"/>
  <outline>
    <contour>
      <point x="1222" y="495" type="line"/>
      <point x="1293" y="765" type="line"/>
      <point x="311" y="1189" type="line"/>
      <point x="203" y="936" type="line"/>
      <point x="843" y="652" type="line"/>
      <point x="-20" y="331" type="line"/>
      <point x="73" y="78" type="line"/>
    </contour>
  </outline>
</glyph>
<glyph name="question" format="2">
  <advance width="1052"/>
  <unicode hex="003F"/>
  <outline>
    <contour>
      <point x="739" y="493" type="curve"/>
      <point x="733" y="671" type="line"/>
      <point x="723" y="670"/>
      <point x="713" y="670"/>
      <point x="702" y="670" type="curve" smooth="yes"/>
      <point x="685" y="670"/>
      <point x="647" y="671"/>
      <point x="621" y="679" type="curve" smooth="yes"/>
      <point x="606" y="684"/>
      <point x="595" y="691"/>
      <point x="595" y="703" type="curve" smooth="yes"/>
      <point x="595" y="719"/>
      <point x="628" y="731"/>
      <point x="676" y="747" type="curve" smooth="yes"/>
      <point x="715" y="760"/>
      <point x="765" y="775"/>
      <point x="817" y="795" type="curve" smooth="yes"/>
      <point x="881" y="820"/>
      <point x="947" y="853"/>
      <point x="999" y="901" type="curve" smooth="yes"/>
      <point x="1057" y="954"/>
      <point x="1098" y="1026"/>
      <point x="1098" y="1123" type="curve" smooth="yes"/>
      <point x="1098" y="1203"/>
      <point x="1068" y="1272"/>
      <point x="1006" y="1328" type="curve" smooth="yes"/>
      <point x="976" y="1356"/>
      <point x="944" y="1376"/>
      <point x="909" y="1393" type="curve" smooth="yes"/>
      <point x="837" y="1428"/>
      <point x="759" y="1452"/>
      <point x="676" y="1463" type="curve" smooth="yes"/>
      <point x="635" y="1468"/>
      <point x="602" y="1470"/>
      <point x="565" y="1470" type="curve" smooth="yes"/>
      <point x="497" y="1470"/>
      <point x="439" y="1467"/>
      <point x="388" y="1459" type="curve" smooth="yes"/>
      <point x="319" y="1449"/>
      <point x="256" y="1429"/>
      <point x="221" y="1406" type="curve"/>
      <point x="211" y="1072" type="line"/>
      <point x="294" y="1104"/>
      <point x="357" y="1117"/>
      <point x="426" y="1117" type="curve" smooth="yes"/>
      <point x="464" y="1117"/>
      <point x="525" y="1114"/>
      <point x="556" y="1084" type="curve" smooth="yes"/>
      <point x="568" y="1073"/>
      <point x="575" y="1058"/>
      <point x="575" y="1037" type="curve" smooth="yes"/>
      <point x="575" y="1014"/>
      <point x="559" y="995"/>
      <point x="533" y="978" type="curve" smooth="yes"/>
      <point x="492" y="950"/>
      <point x="427" y="926"/>
      <point x="364" y="893" type="curve" smooth="yes"/>
      <point x="318" y="868"/>
      <point x="273" y="838"/>
      <point x="241" y="797" type="curve" smooth="yes"/>
      <point x="213" y="761"/>
      <point x="195" y="716"/>
      <point x="195" y="659" type="curve" smooth="yes"/>
      <point x="195" y="611"/>
      <point x="219" y="572"/>
      <point x="266" y="544" type="curve" smooth="yes"/>
      <point x="331" y="505"/>
      <point x="440" y="485"/>
      <point x="592" y="485" type="curve" smooth="yes"/>
      <point x="644" y="485"/>
      <point x="693" y="488"/>
    </contour>
    <contour>
      <point x="78" y="164" type="curve" smooth="yes"/>
      <point x="78" y="104"/>
      <point x="101" y="55"/>
      <point x="148" y="20" type="curve" smooth="yes"/>
      <point x="191" y="-13"/>
      <point x="243" y="-30"/>
      <point x="303" y="-30" type="curve" smooth="yes"/>
      <point x="371" y="-30"/>
      <point x="435" y="-5"/>
      <point x="490" y="43" type="curve" smooth="yes"/>
      <point x="541" y="88"/>
      <point x="569" y="152"/>
      <point x="569" y="224" type="curve" smooth="yes"/>
      <point x="569" y="285"/>
      <point x="546" y="334"/>
      <point x="502" y="369" type="curve" smooth="yes"/>
      <point x="461" y="401"/>
      <point x="406" y="419"/>
      <point x="346" y="419" type="curve" smooth="yes"/>
      <point x="275" y="419"/>
      <point x="209" y="393"/>
      <point x="158" y="346" type="curve" smooth="yes"/>
      <point x="107" y="299"/>
      <point x="78" y="233"/>
    </contour>
  </outline>
</glyph>
<glyph name="at" format="2">
  <advance width="1688"/>
  <unicode hex="0040"/>
  <outline>
    <contour>
      <point x="864" y="-234" type="qcurve" smooth="yes"/>
      <point x="941" y="-234"/>
      <point x="1089" y="-212"/>
      <point x="1233" y="-169"/>
      <point x="1365" y="-105"/>
      <point x="1426" y="-64" type="qcurve"/>
      <point x="1346" y="116" type="line"/>
      <point x="1294" y="79"/>
      <point x="1179" y="20"/>
      <point x="1056" y="-20"/>
      <point x="927" y="-40"/>
      <point x="860" y="-40" type="qcurve" smooth="yes"/>
      <point x="731" y="-40"/>
      <point x="520" y="36"/>
      <point x="369" y="173"/>
      <point x="286" y="364"/>
      <point x="286" y="480" type="qcurve" smooth="yes"/>
      <point x="286" y="604"/>
      <point x="374" y="815"/>
      <point x="533" y="968"/>
      <point x="749" y="1054"/>
      <point x="876" y="1054" type="qcurve" smooth="yes"/>
      <point x="996" y="1054"/>
      <point x="1195" y="986"/>
      <point x="1339" y="860"/>
      <point x="1418" y="683"/>
      <point x="1418" y="576" type="qcurve" smooth="yes"/>
      <point x="1418" y="521"/>
      <point x="1399" y="435"/>
      <point x="1361" y="376"/>
      <point x="1306" y="346"/>
      <point x="1272" y="346" type="qcurve" smooth="yes"/>
      <point x="1249" y="346"/>
      <point x="1216" y="360"/>
      <point x="1194" y="386"/>
      <point x="1184" y="426"/>
      <point x="1186" y="450" type="qcurve"/>
      <point x="1208" y="840" type="line"/>
      <point x="1022" y="840" type="line"/>
      <point x="1020" y="788" type="line"/>
      <point x="969" y="829"/>
      <point x="868" y="866"/>
      <point x="810" y="866" type="qcurve" smooth="yes"/>
      <point x="731" y="866"/>
      <point x="597" y="811"/>
      <point x="501" y="710"/>
      <point x="448" y="573"/>
      <point x="448" y="492" type="qcurve" smooth="yes"/>
      <point x="448" y="418"/>
      <point x="497" y="294"/>
      <point x="585" y="204"/>
      <point x="707" y="154"/>
      <point x="782" y="154" type="qcurve" smooth="yes"/>
      <point x="856" y="154"/>
      <point x="969" y="206"/>
      <point x="1026" y="262" type="qcurve"/>
      <point x="1059" y="209"/>
      <point x="1173" y="154"/>
      <point x="1252" y="154" type="qcurve" smooth="yes"/>
      <point x="1329" y="154"/>
      <point x="1465" y="222"/>
      <point x="1566" y="336"/>
      <point x="1626" y="490"/>
      <point x="1626" y="576" type="qcurve" smooth="yes"/>
      <point x="1626" y="724"/>
      <point x="1517" y="969"/>
      <point x="1320" y="1146"/>
      <point x="1047" y="1242"/>
      <point x="882" y="1242" type="qcurve" smooth="yes"/>
      <point x="708" y="1242"/>
      <point x="414" y="1129"/>
      <point x="199" y="926"/>
      <point x="78" y="649"/>
      <point x="78" y="486" type="qcurve" smooth="yes"/>
      <point x="78" y="327"/>
      <point x="192" y="62"/>
      <point x="400" y="-129"/>
      <point x="690" y="-234"/>
    </contour>
    <contour>
      <point x="808" y="366" type="qcurve" smooth="yes"/>
      <point x="755" y="366"/>
      <point x="696" y="431"/>
      <point x="696" y="490" type="qcurve" smooth="yes"/>
      <point x="696" y="527"/>
      <point x="715" y="588"/>
      <point x="753" y="630"/>
      <point x="804" y="652"/>
      <point x="836" y="652" type="qcurve" smooth="yes"/>
      <point x="889" y="652"/>
      <point x="950" y="588"/>
      <point x="950" y="528" type="qcurve" smooth="yes"/>
      <point x="950" y="453"/>
      <point x="873" y="366"/>
    </contour>
  </outline>
</glyph>
<glyph name="A" format="2">
  <advance width="1498"/>
  <unicode hex="0041"/>
  <outline>
    <contour>
      <point x="327" y="0" type="line"/>
      <point x="474" y="250" type="line"/>
      <point x="903" y="250" type="line"/>
      <point x="916" y="0" type="line"/>
      <point x="1359" y="0" type="line"/>
      <point x="1233" y="1400" type="line"/>
      <point x="755" y="1400" type="line"/>
      <point x="-141" y="0" type="line"/>
    </contour>
    <contour>
      <point x="885" y="971" type="line"/>
      <point x="909" y="584" type="line"/>
      <point x="648" y="584" type="line"/>
    </contour>
  </outline>
</glyph>
<glyph name="B" format="2">
  <advance width="1354"/>
  <unicode hex="0042"/>
  <outline>
    <contour>
      <point x="683" y="0" type="line" smooth="yes"/>
      <point x="989" y="0"/>
      <point x="1259" y="170"/>
      <point x="1259" y="460" type="curve" smooth="yes"/>
      <point x="1259" y="586"/>
      <point x="1203" y="690"/>
      <point x="1098" y="751" type="curve"/>
      <point x="1259" y="810"/>
      <point x="1373" y="920"/>
      <point x="1373" y="1082" type="curve" smooth="yes"/>
      <point x="1373" y="1283"/>
      <point x="1203" y="1400"/>
      <point x="905" y="1400" type="curve" smooth="yes"/>
      <point x="389" y="1400" type="line"/>
      <point x="14" y="0" type="line"/>
    </contour>
    <contour>
      <point x="573" y="574" type="line"/>
      <point x="677" y="574" type="line" smooth="yes"/>
      <point x="783" y="574"/>
      <point x="834" y="535"/>
      <point x="834" y="455" type="curve" smooth="yes"/>
      <point x="834" y="360"/>
      <point x="769" y="290"/>
      <point x="667" y="290" type="curve" smooth="yes"/>
      <point x="494" y="290" type="line"/>
    </contour>
    <contour>
      <point x="717" y="1110" type="line"/>
      <point x="806" y="1110" type="line" smooth="yes"/>
      <point x="914" y="1110"/>
      <point x="966" y="1075"/>
      <point x="966" y="998" type="curve" smooth="yes"/>
      <point x="966" y="922"/>
      <point x="912" y="842"/>
      <point x="827" y="842" type="curve" smooth="yes"/>
      <point x="644" y="842" type="line"/>
    </contour>
  </outline>
</glyph>
<glyph name="C" format="2">
  <advance width="1406"/>
  <unicode hex="0043"/>
  <outline>
    <contour>
      <point x="788" y="-30" type="qcurve" smooth="yes"/>
      <point x="930" y="-30"/>
      <point x="1171" y="35"/>
      <point x="1266" y="93" type="qcurve"/>
      <point x="1170" y="449" type="line"/>
      <point x="1091" y="403"/>
      <point x="927" y="364"/>
      <point x="857" y="364" type="qcurve" smooth="yes"/>
      <point x="781" y="364"/>
      <point x="665" y="402"/>
      <point x="586" y="470"/>
      <point x="546" y="567"/>
      <point x="546" y="627" type="qcurve" smooth="yes"/>
      <point x="546" y="714"/>
      <point x="596" y="864"/>
      <point x="692" y="973"/>
      <point x="829" y="1036"/>
      <point x="914" y="1036" type="qcurve" smooth="yes"/>
      <point x="1014" y="1036"/>
      <point x="1171" y="966"/>
      <point x="1214" y="899" type="qcurve"/>
      <point x="1486" y="1204" type="line"/>
      <point x="1431" y="1266"/>
      <point x="1315" y="1353"/>
      <point x="1183" y="1406"/>
      <point x="1031" y="1430"/>
      <point x="942" y="1430" type="qcurve" smooth="yes"/>
      <point x="827" y="1430"/>
      <point x="615" y="1368"/>
      <point x="431" y="1256"/>
      <point x="280" y="1098"/>
      <point x="173" y="903"/>
      <point x="113" y="679"/>
      <point x="113" y="557" type="qcurve" smooth="yes"/>
      <point x="113" y="417"/>
      <point x="217" y="199"/>
      <point x="398" y="48"/>
      <point x="644" y="-30"/>
    </contour>
  </outline>
</glyph>
<glyph name="D" format="2">
  <advance width="1480"/>
  <unicode hex="0044"/>
  <outline>
    <contour>
      <point x="640" y="0" type="line" smooth="yes"/>
      <point x="819" y="0"/>
      <point x="1121" y="125"/>
      <point x="1342" y="343"/>
      <point x="1465" y="640"/>
      <point x="1465" y="812" type="qcurve" smooth="yes"/>
      <point x="1465" y="958"/>
      <point x="1358" y="1178"/>
      <point x="1167" y="1326"/>
      <point x="907" y="1400"/>
      <point x="752" y="1400" type="qcurve" smooth="yes"/>
      <point x="388" y="1400" type="line"/>
      <point x="13" y="0" type="line"/>
    </contour>
    <contour>
      <point x="690" y="1024" type="line"/>
      <point x="729" y="1024" type="line" smooth="yes"/>
      <point x="798" y="1024"/>
      <point x="913" y="993"/>
      <point x="994" y="929"/>
      <point x="1037" y="834"/>
      <point x="1037" y="769" type="qcurve" smooth="yes"/>
      <point x="1037" y="686"/>
      <point x="989" y="542"/>
      <point x="895" y="437"/>
      <point x="758" y="376"/>
      <point x="670" y="376" type="qcurve" smooth="yes"/>
      <point x="519" y="376" type="line"/>
    </contour>
  </outline>
</glyph>
<glyph name="E" format="2">
  <advance width="1306"/>
  <unicode hex="0045"/>
  <outline>
    <contour>
      <point x="1063" y="0" type="line"/>
      <point x="1157" y="352" type="line"/>
      <point x="515" y="352" type="line"/>
      <point x="568" y="552" type="line"/>
      <point x="1088" y="552" type="line"/>
      <point x="1174" y="870" type="line"/>
      <point x="654" y="870" type="line"/>
      <point x="702" y="1052" type="line"/>
      <point x="1336" y="1052" type="line"/>
      <point x="1430" y="1400" type="line"/>
      <point x="392" y="1400" type="line"/>
      <point x="17" y="0" type="line"/>
    </contour>
  </outline>
</glyph>
<glyph name="F" format="2">
  <advance width="1213"/>
  <unicode hex="0046"/>
  <outline>
    <contour>
      <point x="420" y="0" type="line"/>
      <point x="544" y="466" type="line"/>
      <point x="1038" y="466" type="line"/>
      <point x="1135" y="818" type="line"/>
      <point x="641" y="818" type="line"/>
      <point x="696" y="1032" type="line"/>
      <point x="1252" y="1032" type="line"/>
      <point x="1351" y="1400" type="line"/>
      <point x="391" y="1400" type="line"/>
      <point x="16" y="0" type="line"/>
    </contour>
  </outline>
</glyph>
<glyph name="G" format="2">
  <advance width="1512"/>
  <unicode hex="0047"/>
  <outline>
    <contour>
      <point x="835" y="-30" type="curve" smooth="yes"/>
      <point x="902" y="-30"/>
      <point x="974" y="-25"/>
      <point x="1046" y="-14" type="curve" smooth="yes"/>
      <point x="1118" y="-3"/>
      <point x="1192" y="13"/>
      <point x="1253" y="34" type="curve"/>
      <point x="1469" y="838" type="line"/>
      <point x="853" y="838" type="line"/>
      <point x="767" y="522" type="line"/>
      <point x="1033" y="522" type="line"/>
      <point x="979" y="326" type="line"/>
      <point x="951" y="322"/>
      <point x="925" y="322"/>
      <point x="898" y="322" type="curve" smooth="yes"/>
      <point x="798" y="322"/>
      <point x="706" y="347"/>
      <point x="640" y="399" type="curve" smooth="yes"/>
      <point x="574" y="451"/>
      <point x="533" y="528"/>
      <point x="533" y="628" type="curve" smooth="yes"/>
      <point x="533" y="756"/>
      <point x="574" y="865"/>
      <point x="650" y="944" type="curve" smooth="yes"/>
      <point x="726" y="1023"/>
      <point x="836" y="1068"/>
      <point x="969" y="1068" type="curve" smooth="yes"/>
      <point x="1040" y="1068"/>
      <point x="1102" y="1059"/>
      <point x="1156" y="1042" type="curve" smooth="yes"/>
      <point x="1210" y="1024"/>
      <point x="1259" y="996"/>
      <point x="1304" y="957" type="curve"/>
      <point x="1541" y="1248" type="line"/>
      <point x="1448" y="1325"/>
      <point x="1349" y="1371"/>
      <point x="1253" y="1397" type="curve" smooth="yes"/>
      <point x="1157" y="1423"/>
      <point x="1063" y="1430"/>
      <point x="982" y="1430" type="curve" smooth="yes"/>
      <point x="901" y="1430"/>
      <point x="823" y="1420"/>
      <point x="749" y="1401" type="curve" smooth="yes"/>
      <point x="600" y="1362"/>
      <point x="469" y="1290"/>
      <point x="365" y="1190" type="curve" smooth="yes"/>
      <point x="312" y="1139"/>
      <point x="268" y="1083"/>
      <point x="231" y="1022" type="curve" smooth="yes"/>
      <point x="158" y="898"/>
      <point x="115" y="752"/>
      <point x="115" y="596" type="curve" smooth="yes"/>
      <point x="115" y="404"/>
      <point x="194" y="247"/>
      <point x="323" y="139" type="curve" smooth="yes"/>
      <point x="452" y="30"/>
      <point x="632" y="-30"/>
    </contour>
  </outline>
</glyph>
<glyph name="H" format="2">
  <advance width="1588"/>
  <unicode hex="0048"/>
  <outline>
    <contour>
      <point x="421" y="0" type="line"/>
      <point x="565" y="538" type="line"/>
      <point x="1033" y="538" type="line"/>
      <point x="889" y="0" type="line"/>
      <point x="1293" y="0" type="line"/>
      <point x="1668" y="1400" type="line"/>
      <point x="1264" y="1400" type="line"/>
      <point x="1131" y="906" type="line"/>
      <point x="663" y="906" type="line"/>
      <point x="796" y="1400" type="line"/>
      <point x="392" y="1400" type="line"/>
      <point x="17" y="0" type="line"/>
    </contour>
  </outline>
</glyph>
<glyph name="I" format="2">
  <advance width="716"/>
  <unicode hex="0049"/>
  <outline>
    <contour>
      <point x="421" y="0" type="line"/>
      <point x="796" y="1400" type="line"/>
      <point x="392" y="1400" type="line"/>
      <point x="17" y="0" type="line"/>
    </contour>
  </outline>
</glyph>
<glyph name="J" format="2">
  <advance width="1100"/>
  <unicode hex="004A"/>
  <anchor x="976" y="1400" name="top"/>
  <outline>
    <contour>
      <point x="344" y="-30" type="curve" smooth="yes"/>
      <point x="644" y="-30"/>
      <point x="841" y="151"/>
      <point x="922" y="448" type="curve" smooth="yes"/>
      <point x="1178" y="1400" type="line"/>
      <point x="774" y="1400" type="line"/>
      <point x="541" y="538" type="line" smooth="yes"/>
      <point x="503" y="397"/>
      <point x="422" y="338"/>
      <point x="322" y="338" type="curve" smooth="yes"/>
      <point x="246" y="338"/>
      <point x="171" y="369"/>
      <point x="88" y="426" type="curve"/>
      <point x="-105" y="119" type="line"/>
      <point x="-4" y="28"/>
      <point x="152" y="-30"/>
    </contour>
  </outline>
</glyph>
<glyph name="K" format="2">
  <advance width="1522"/>
  <unicode hex="004B"/>
  <outline>
    <contour>
      <point x="421" y="0" type="line"/>
      <point x="507" y="316" type="line"/>
      <point x="666" y="452" type="line"/>
      <point x="898" y="0" type="line"/>
      <point x="1395" y="0" type="line"/>
      <point x="996" y="733" type="line"/>
      <point x="1704" y="1400" type="line"/>
      <point x="1166" y="1400" type="line"/>
      <point x="664" y="924" type="line"/>
      <point x="796" y="1400" type="line"/>
      <point x="392" y="1400" type="line"/>
      <point x="17" y="0" type="line"/>
    </contour>
  </outline>
</glyph>
<glyph name="L" format="2">
  <advance width="1150"/>
  <unicode hex="004C"/>
  <outline>
    <contour>
      <point x="951" y="0" type="line"/>
      <point x="1051" y="368" type="line"/>
      <point x="521" y="368" type="line"/>
      <point x="796" y="1400" type="line"/>
      <point x="392" y="1400" type="line"/>
      <point x="17" y="0" type="line"/>
    </contour>
  </outline>
</glyph>
<glyph name="M" format="2">
  <advance width="1908"/>
  <unicode hex="004D"/>
  <outline>
    <contour>
      <point x="387" y="0" type="line"/>
      <point x="621" y="907" type="line"/>
      <point x="541" y="904" type="line"/>
      <point x="748" y="238" type="line"/>
      <point x="1011" y="238" type="line"/>
      <point x="1515" y="821" type="line"/>
      <point x="1461" y="862" type="line"/>
      <point x="1223" y="0" type="line"/>
      <point x="1613" y="0" type="line"/>
      <point x="1988" y="1400" type="line"/>
      <point x="1599" y="1400" type="line"/>
      <point x="894" y="569" type="line"/>
      <point x="1047" y="530" type="line"/>
      <point x="785" y="1400" type="line"/>
      <point x="392" y="1400" type="line"/>
      <point x="17" y="0" type="line"/>
    </contour>
  </outline>
</glyph>
<glyph name="N" format="2">
  <advance width="1596"/>
  <unicode hex="004E"/>
  <outline>
    <contour>
      <point x="407" y="0" type="line"/>
      <point x="617" y="783" type="line"/>
      <point x="907" y="0" type="line"/>
      <point x="1301" y="0" type="line"/>
      <point x="1676" y="1400" type="line"/>
      <point x="1286" y="1400" type="line"/>
      <point x="1077" y="631" type="line"/>
      <point x="787" y="1400" type="line"/>
      <point x="392" y="1400" type="line"/>
      <point x="17" y="0" type="line"/>
    </contour>
  </outline>
</glyph>
<glyph name="O" format="2">
  <advance width="1648"/>
  <unicode hex="004F"/>
  <outline>
    <contour>
      <point x="787" y="-30" type="curve" smooth="yes"/>
      <point x="864" y="-30"/>
      <point x="938" y="-20"/>
      <point x="1009" y="-1" type="curve" smooth="yes"/>
      <point x="1152" y="39"/>
      <point x="1279" y="113"/>
      <point x="1383" y="214" type="curve" smooth="yes"/>
      <point x="1435" y="265"/>
      <point x="1480" y="321"/>
      <point x="1518" y="383" type="curve" smooth="yes"/>
      <point x="1593" y="506"/>
      <point x="1636" y="651"/>
      <point x="1636" y="804" type="curve" smooth="yes"/>
      <point x="1636" y="981"/>
      <point x="1571" y="1138"/>
      <point x="1453" y="1250" type="curve" smooth="yes"/>
      <point x="1335" y="1362"/>
      <point x="1164" y="1430"/>
      <point x="956" y="1430" type="curve" smooth="yes"/>
      <point x="879" y="1430"/>
      <point x="805" y="1420"/>
      <point x="734" y="1401" type="curve" smooth="yes"/>
      <point x="590" y="1361"/>
      <point x="463" y="1287"/>
      <point x="360" y="1186" type="curve" smooth="yes"/>
      <point x="308" y="1135"/>
      <point x="263" y="1079"/>
      <point x="226" y="1017" type="curve" smooth="yes"/>
      <point x="151" y="892"/>
      <point x="108" y="747"/>
      <point x="108" y="591" type="curve" smooth="yes"/>
      <point x="108" y="414"/>
      <point x="175" y="258"/>
      <point x="293" y="147" type="curve" smooth="yes"/>
      <point x="411" y="36"/>
      <point x="580" y="-30"/>
    </contour>
    <contour>
      <point x="829" y="348" type="curve" smooth="yes"/>
      <point x="738" y="348"/>
      <point x="665" y="375"/>
      <point x="614" y="424" type="curve" smooth="yes"/>
      <point x="563" y="472"/>
      <point x="535" y="542"/>
      <point x="535" y="629" type="curve" smooth="yes"/>
      <point x="535" y="745"/>
      <point x="573" y="851"/>
      <point x="640" y="928" type="curve" smooth="yes"/>
      <point x="707" y="1004"/>
      <point x="803" y="1052"/>
      <point x="916" y="1052" type="curve" smooth="yes"/>
      <point x="1007" y="1052"/>
      <point x="1080" y="1025"/>
      <point x="1131" y="977" type="curve" smooth="yes"/>
      <point x="1182" y="929"/>
      <point x="1211" y="859"/>
      <point x="1211" y="771" type="curve" smooth="yes"/>
      <point x="1211" y="714"/>
      <point x="1202" y="659"/>
      <point x="1183" y="608" type="curve" smooth="yes"/>
      <point x="1164" y="557"/>
      <point x="1138" y="512"/>
      <point x="1105" y="474" type="curve" smooth="yes"/>
      <point x="1038" y="397"/>
      <point x="942" y="348"/>
    </contour>
  </outline>
</glyph>
<glyph name="P" format="2">
  <advance width="1352"/>
  <unicode hex="0050"/>
  <outline>
    <contour>
      <point x="416" y="0" type="line"/>
      <point x="532" y="432" type="line"/>
      <point x="805" y="432" type="line" smooth="yes"/>
      <point x="936" y="432"/>
      <point x="1164" y="511"/>
      <point x="1330" y="654"/>
      <point x="1424" y="860"/>
      <point x="1424" y="988" type="qcurve" smooth="yes"/>
      <point x="1424" y="1082"/>
      <point x="1351" y="1235"/>
      <point x="1214" y="1342"/>
      <point x="1019" y="1400"/>
      <point x="895" y="1400" type="qcurve" smooth="yes"/>
      <point x="387" y="1400" type="line"/>
      <point x="12" y="0" type="line"/>
    </contour>
    <contour>
      <point x="699" y="1056" type="line"/>
      <point x="824" y="1056" type="line" smooth="yes"/>
      <point x="866" y="1056"/>
      <point x="935" y="1047"/>
      <point x="985" y="1021"/>
      <point x="1012" y="973"/>
      <point x="1012" y="935" type="qcurve" smooth="yes"/>
      <point x="1012" y="898"/>
      <point x="988" y="837"/>
      <point x="944" y="791"/>
      <point x="878" y="766"/>
      <point x="834" y="766" type="qcurve" smooth="yes"/>
      <point x="620" y="766" type="line"/>
    </contour>
  </outline>
</glyph>
<glyph name="Q" format="2">
  <advance width="1648"/>
  <unicode hex="0051"/>
  <outline>
    <contour>
      <point x="794" y="-30" type="qcurve" smooth="yes"/>
      <point x="639" y="-30"/>
      <point x="388" y="64"/>
      <point x="212" y="230"/>
      <point x="115" y="458"/>
      <point x="115" y="591" type="qcurve" smooth="yes"/>
      <point x="115" y="709"/>
      <point x="177" y="923"/>
      <point x="289" y="1110"/>
      <point x="444" y="1262"/>
      <point x="632" y="1371"/>
      <point x="849" y="1430"/>
      <point x="963" y="1430" type="qcurve" smooth="yes"/>
      <point x="1119" y="1430"/>
      <point x="1371" y="1334"/>
      <point x="1548" y="1166"/>
      <point x="1643" y="937"/>
      <point x="1643" y="804" type="qcurve" smooth="yes"/>
      <point x="1643" y="690"/>
      <point x="1582" y="476"/>
      <point x="1470" y="292"/>
      <point x="1314" y="138"/>
      <point x="1125" y="31"/>
      <point x="908" y="-30"/>
    </contour>
    <contour>
      <point x="836" y="348" type="qcurve" smooth="yes"/>
      <point x="922" y="348"/>
      <point x="1062" y="415"/>
      <point x="1162" y="532"/>
      <point x="1218" y="685"/>
      <point x="1218" y="771" type="qcurve" smooth="yes"/>
      <point x="1218" y="836"/>
      <point x="1176" y="941"/>
      <point x="1100" y="1014"/>
      <point x="990" y="1052"/>
      <point x="923" y="1052" type="qcurve" smooth="yes"/>
      <point x="837" y="1052"/>
      <point x="697" y="985"/>
      <point x="598" y="870"/>
      <point x="542" y="717"/>
      <point x="542" y="629" type="qcurve" smooth="yes"/>
      <point x="542" y="564"/>
      <point x="584" y="460"/>
      <point x="659" y="388"/>
      <point x="768" y="348"/>
    </contour>
    <contour>
      <point x="1192" y="-23" type="qcurve" smooth="yes"/>
      <point x="1239" y="-23"/>
      <point x="1333" y="-6"/>
      <point x="1409" y="14"/>
      <point x="1459" y="33"/>
      <point x="1462" y="36" type="qcurve"/>
      <point x="1543" y="-203" type="line"/>
      <point x="1519" y="-235"/>
      <point x="1434" y="-299"/>
      <point x="1325" y="-350"/>
      <point x="1198" y="-382"/>
      <point x="1134" y="-382" type="qcurve" smooth="yes"/>
      <point x="1063" y="-382"/>
      <point x="952" y="-345"/>
      <point x="847" y="-298"/>
      <point x="732" y="-261"/>
      <point x="657" y="-261" type="qcurve" smooth="yes"/>
      <point x="603" y="-261"/>
      <point x="518" y="-277"/>
      <point x="458" y="-298"/>
      <point x="424" y="-318"/>
      <point x="423" y="-320" type="qcurve"/>
      <point x="303" y="-150" type="line"/>
      <point x="342" y="-111"/>
      <point x="451" y="-42"/>
      <point x="579" y="6"/>
      <point x="723" y="34"/>
      <point x="801" y="34" type="qcurve" smooth="yes"/>
      <point x="858" y="34"/>
      <point x="958" y="17"/>
      <point x="1052" y="-4"/>
      <point x="1144" y="-23"/>
    </contour>
  </outline>
</glyph>
<glyph name="R" format="2">
  <advance width="1409"/>
  <unicode hex="0052"/>
  <anchor x="594" y="0" name="bottom"/>
  <anchor x="903" y="1400" name="top"/>
  <outline>
    <contour>
      <point x="420" y="0" type="line"/>
      <point x="549" y="482" type="line"/>
      <point x="627" y="482" type="line"/>
      <point x="781" y="0" type="line"/>
      <point x="1239" y="0" type="line"/>
      <point x="1032" y="549" type="line"/>
      <point x="1265" y="612"/>
      <point x="1423" y="801"/>
      <point x="1423" y="1022" type="curve" smooth="yes"/>
      <point x="1423" y="1255"/>
      <point x="1234" y="1400"/>
      <point x="904" y="1400" type="curve" smooth="yes"/>
      <point x="391" y="1400" type="line"/>
      <point x="16" y="0" type="line"/>
    </contour>
    <contour>
      <point x="709" y="1072" type="line"/>
      <point x="818" y="1072" type="line" smooth="yes"/>
      <point x="937" y="1072"/>
      <point x="1005" y="1048"/>
      <point x="1005" y="959" type="curve" smooth="yes"/>
      <point x="1005" y="859"/>
      <point x="934" y="800"/>
      <point x="832" y="800" type="curve" smooth="yes"/>
      <point x="635" y="800" type="line"/>
    </contour>
  </outline>
</glyph>
<glyph name="S" format="2">
  <advance width="1298"/>
  <unicode hex="0053"/>
  <outline>
    <contour>
      <point x="598" y="-30" type="curve" smooth="yes"/>
      <point x="765" y="-30"/>
      <point x="917" y="19"/>
      <point x="1030" y="110" type="curve" smooth="yes"/>
      <point x="1143" y="201"/>
      <point x="1217" y="326"/>
      <point x="1217" y="483" type="curve" smooth="yes"/>
      <point x="1217" y="643"/>
      <point x="1109" y="754"/>
      <point x="885" y="846" type="curve" smooth="yes"/>
      <point x="784" y="886" type="line" smooth="yes"/>
      <point x="728" y="909"/>
      <point x="691" y="927"/>
      <point x="668" y="944" type="curve"/>
      <point x="644" y="960"/>
      <point x="636" y="977"/>
      <point x="636" y="997" type="curve" smooth="yes"/>
      <point x="636" y="1025"/>
      <point x="652" y="1051"/>
      <point x="683" y="1068" type="curve" smooth="yes"/>
      <point x="714" y="1084"/>
      <point x="754" y="1093"/>
      <point x="805" y="1093" type="curve" smooth="yes"/>
      <point x="873" y="1093"/>
      <point x="938" y="1078"/>
      <point x="998" y="1051" type="curve" smooth="yes"/>
      <point x="1058" y="1023"/>
      <point x="1105" y="988"/>
      <point x="1136" y="944" type="curve"/>
      <point x="1393" y="1215" type="line"/>
      <point x="1340" y="1280"/>
      <point x="1262" y="1333"/>
      <point x="1166" y="1372" type="curve" smooth="yes"/>
      <point x="1069" y="1411"/>
      <point x="953" y="1432"/>
      <point x="832" y="1432" type="curve" smooth="yes"/>
      <point x="679" y="1432"/>
      <point x="531" y="1380"/>
      <point x="419" y="1292" type="curve" smooth="yes"/>
      <point x="307" y="1203"/>
      <point x="237" y="1075"/>
      <point x="237" y="922" type="curve" smooth="yes"/>
      <point x="237" y="846"/>
      <point x="262" y="778"/>
      <point x="313" y="714" type="curve" smooth="yes"/>
      <point x="364" y="650"/>
      <point x="445" y="598"/>
      <point x="558" y="555" type="curve" smooth="yes"/>
      <point x="651" y="519" type="line"/>
      <point x="708" y="499"/>
      <point x="747" y="477"/>
      <point x="772" y="458" type="curve"/>
      <point x="796" y="438"/>
      <point x="807" y="417"/>
      <point x="807" y="394" type="curve" smooth="yes"/>
      <point x="807" y="365"/>
      <point x="789" y="343"/>
      <point x="761" y="328" type="curve" smooth="yes"/>
      <point x="732" y="313"/>
      <point x="690" y="306"/>
      <point x="641" y="306" type="curve" smooth="yes"/>
      <point x="569" y="306"/>
      <point x="489" y="324"/>
      <point x="416" y="355" type="curve" smooth="yes"/>
      <point x="343" y="386"/>
      <point x="280" y="428"/>
      <point x="241" y="476" type="curve"/>
      <point x="-8" y="198" type="line"/>
      <point x="56" y="126"/>
      <point x="148" y="71"/>
      <point x="253" y="32" type="curve" smooth="yes"/>
      <point x="357" y="-8"/>
      <point x="477" y="-30"/>
    </contour>
  </outline>
</glyph>
<glyph name="T" format="2">
  <advance width="1186"/>
  <unicode hex="0054"/>
  <outline>
    <contour>
      <point x="657" y="0" type="line"/>
      <point x="934" y="1032" type="line"/>
      <point x="1294" y="1032" type="line"/>
      <point x="1392" y="1400" type="line"/>
      <point x="266" y="1400" type="line"/>
      <point x="168" y="1032" type="line"/>
      <point x="528" y="1032" type="line"/>
      <point x="251" y="0" type="line"/>
    </contour>
  </outline>
</glyph>
<glyph name="U" format="2">
  <advance width="1542"/>
  <unicode hex="0055"/>
  <outline>
    <contour>
      <point x="697" y="-30" type="curve" smooth="yes"/>
      <point x="882" y="-30"/>
      <point x="1035" y="28"/>
      <point x="1156" y="136" type="curve" smooth="yes"/>
      <point x="1277" y="244"/>
      <point x="1362" y="399"/>
      <point x="1414" y="596" type="curve" smooth="yes"/>
      <point x="1630" y="1400" type="line"/>
      <point x="1224" y="1400" type="line"/>
      <point x="1001" y="574" type="line" smooth="yes"/>
      <point x="978" y="494"/>
      <point x="944" y="437"/>
      <point x="899" y="401" type="curve" smooth="yes"/>
      <point x="854" y="365"/>
      <point x="800" y="348"/>
      <point x="736" y="348" type="curve" smooth="yes"/>
      <point x="656" y="348"/>
      <point x="605" y="367"/>
      <point x="577" y="406" type="curve" smooth="yes"/>
      <point x="549" y="445"/>
      <point x="546" y="498"/>
      <point x="567" y="574" type="curve" smooth="yes"/>
      <point x="790" y="1400" type="line"/>
      <point x="386" y="1400" type="line"/>
      <point x="170" y="596" type="line" smooth="yes"/>
      <point x="117" y="396"/>
      <point x="148" y="242"/>
      <point x="243" y="134" type="curve" smooth="yes"/>
      <point x="338" y="26"/>
      <point x="493" y="-30"/>
    </contour>
  </outline>
</glyph>
<glyph name="V" format="2">
  <advance width="1440"/>
  <unicode hex="0056"/>
  <outline>
    <contour>
      <point x="806" y="0" type="line"/>
      <point x="1697" y="1400" type="line"/>
      <point x="1221" y="1400" type="line"/>
      <point x="703" y="522" type="line"/>
      <point x="662" y="1400" type="line"/>
      <point x="217" y="1400" type="line"/>
      <point x="338" y="0" type="line"/>
    </contour>
  </outline>
</glyph>
<glyph name="W" format="2">
  <advance width="2104"/>
  <unicode hex="0057"/>
  <outline>
    <contour>
      <point x="691" y="0" type="line"/>
      <point x="1130" y="793" type="line"/>
      <point x="1133" y="0" type="line"/>
      <point x="1519" y="0" type="line"/>
      <point x="2320" y="1400" type="line"/>
      <point x="1894" y="1400" type="line"/>
      <point x="1499" y="641" type="line"/>
      <point x="1492" y="1400" type="line"/>
      <point x="1093" y="1400" type="line"/>
      <point x="657" y="631" type="line"/>
      <point x="668" y="1400" type="line"/>
      <point x="260" y="1400" type="line"/>
      <point x="309" y="0" type="line"/>
    </contour>
  </outline>
</glyph>
<glyph name="X" format="2">
  <advance width="1424"/>
  <unicode hex="0058"/>
  <outline>
    <contour>
      <point x="381" y="0" type="line"/>
      <point x="690" y="402" type="line"/>
      <point x="804" y="0" type="line"/>
      <point x="1273" y="0" type="line"/>
      <point x="1047" y="679" type="line"/>
      <point x="1652" y="1400" type="line"/>
      <point x="1144" y="1400" type="line"/>
      <point x="847" y="1023" type="line"/>
      <point x="738" y="1400" type="line"/>
      <point x="270" y="1400" type="line"/>
      <point x="492" y="736" type="line"/>
      <point x="-129" y="0" type="line"/>
    </contour>
  </outline>
</glyph>
<glyph name="Y" format="2">
  <advance width="1331"/>
  <unicode hex="0059"/>
  <anchor x="517" y="0" name="bottom"/>
  <anchor x="890" y="1400" name="top"/>
  <anchor x="175" y="1400" name="topleft"/>
  <outline>
    <contour>
      <point x="719" y="0" type="line"/>
      <point x="871" y="563" type="line"/>
      <point x="1589" y="1400" type="line"/>
      <point x="1121" y="1400" type="line"/>
      <point x="761" y="966" type="line"/>
      <point x="642" y="1400" type="line"/>
      <point x="215" y="1400" type="line"/>
      <point x="465" y="572" type="line"/>
      <point x="313" y="0" type="line"/>
    </contour>
  </outline>
</glyph>
<glyph name="Z" format="2">
  <advance width="1190"/>
  <unicode hex="005A"/>
  <outline>
    <contour>
      <point x="985" y="0" type="line"/>
      <point x="1085" y="368" type="line"/>
      <point x="544" y="368" type="line"/>
      <point x="1267" y="1061" type="line"/>
      <point x="1356" y="1400" type="line"/>
      <point x="330" y="1400" type="line"/>
      <point x="232" y="1032" type="line"/>
      <point x="745" y="1032" type="line"/>
      <point x="21" y="339" type="line"/>
      <point x="-69" y="0" type="line"/>
    </contour>
  </outline>
</glyph>
<glyph name="bracketleft" format="2">
  <advance width="732"/>
  <unicode hex="005B"/>
  <outline>
    <contour>
      <point x="454" y="-220" type="line"/>
      <point x="527" y="46" type="line"/>
      <point x="327" y="46" type="line"/>
      <point x="671" y="1334" type="line"/>
      <point x="871" y="1334" type="line"/>
      <point x="945" y="1600" type="line"/>
      <point x="429" y="1600" type="line"/>
      <point x="-62" y="-220" type="line"/>
    </contour>
  </outline>
</glyph>
<glyph name="backslash" format="2">
  <advance width="948"/>
  <unicode hex="005C"/>
  <outline>
    <contour>
      <point x="826" y="-177" type="line"/>
      <point x="578" y="1610" type="line"/>
      <point x="218" y="1563" type="line"/>
      <point x="466" y="-230" type="line"/>
    </contour>
  </outline>
</glyph>
<glyph name="bracketright" format="2">
  <advance width="732"/>
  <unicode hex="005D"/>
  <outline>
    <contour>
      <point x="886" y="1600" type="line"/>
      <point x="370" y="1600" type="line"/>
      <point x="299" y="1334" type="line"/>
      <point x="499" y="1334" type="line"/>
      <point x="150" y="46" type="line"/>
      <point x="-50" y="46" type="line"/>
      <point x="-119" y="-220" type="line"/>
      <point x="397" y="-220" type="line"/>
    </contour>
  </outline>
</glyph>
<glyph name="asciicircum" format="2">
  <advance width="1296"/>
  <unicode hex="005E"/>
  <outline>
    <contour>
      <point x="558" y="782" type="line"/>
      <point x="835" y="1126" type="line"/>
      <point x="918" y="782" type="line"/>
      <point x="1237" y="782" type="line"/>
      <point x="1073" y="1400" type="line"/>
      <point x="712" y="1400" type="line"/>
      <point x="201" y="782" type="line"/>
    </contour>
  </outline>
</glyph>
<glyph name="a" format="2">
  <advance width="1204"/>
  <unicode hex="0061"/>
  <outline>
    <contour>
      <point x="324" y="-26" type="qcurve" smooth="yes"/>
      <point x="373" y="-26"/>
      <point x="468" y="-8"/>
      <point x="549" y="25"/>
      <point x="616" y="73"/>
      <point x="640" y="102" type="qcurve"/>
      <point x="614" y="0" type="line"/>
      <point x="958" y="0" type="line"/>
      <point x="1103" y="548" type="line" smooth="yes"/>
      <point x="1133" y="663"/>
      <point x="1107" y="858"/>
      <point x="991" y="1001"/>
      <point x="786" y="1080"/>
      <point x="639" y="1080" type="qcurve" smooth="yes"/>
      <point x="512" y="1080"/>
      <point x="300" y="1031"/>
      <point x="212" y="977" type="qcurve"/>
      <point x="258" y="706" type="line"/>
      <point x="282" y="724"/>
      <point x="346" y="751"/>
      <point x="420" y="773"/>
      <point x="497" y="784"/>
      <point x="534" y="784" type="qcurve" smooth="yes"/>
      <point x="594" y="784"/>
      <point x="684" y="764"/>
      <point x="736" y="724"/>
      <point x="751" y="660"/>
      <point x="740" y="615" type="qcurve"/>
      <point x="681" y="402" type="line" smooth="yes"/>
      <point x="671" y="367"/>
      <point x="634" y="311"/>
      <point x="582" y="271"/>
      <point x="515" y="250"/>
      <point x="475" y="250" type="qcurve" smooth="yes"/>
      <point x="450" y="250"/>
      <point x="408" y="261"/>
      <point x="380" y="279"/>
      <point x="365" y="305"/>
      <point x="365" y="320" type="qcurve" smooth="yes"/>
      <point x="365" y="344"/>
      <point x="393" y="379"/>
      <point x="442" y="407"/>
      <point x="510" y="426"/>
      <point x="590" y="434"/>
      <point x="683" y="433"/>
      <point x="733" y="426" type="qcurve"/>
      <point x="797" y="648" type="line"/>
      <point x="672" y="659"/>
      <point x="456" y="652"/>
      <point x="278" y="617"/>
      <point x="138" y="553"/>
      <point x="43" y="464"/>
      <point x="-7" y="351"/>
      <point x="-7" y="281" type="qcurve" smooth="yes"/>
      <point x="-7" y="210"/>
      <point x="38" y="97"/>
      <point x="123" y="17"/>
      <point x="245" y="-26"/>
    </contour>
  </outline>
</glyph>
<glyph name="b" format="2">
  <advance width="1364"/>
  <unicode hex="0062"/>
  <outline>
    <contour>
      <point x="724" y="-30" type="qcurve" smooth="yes"/>
      <point x="856" y="-30"/>
      <point x="1074" y="76"/>
      <point x="1232" y="253"/>
      <point x="1319" y="487"/>
      <point x="1319" y="616" type="qcurve" smooth="yes"/>
      <point x="1319" y="716"/>
      <point x="1256" y="883"/>
      <point x="1137" y="1002"/>
      <point x="967" y="1070"/>
      <point x="862" y="1070" type="qcurve" smooth="yes"/>
      <point x="813" y="1070"/>
      <point x="729" y="1053"/>
      <point x="649" y="1017"/>
      <point x="573" y="963"/>
      <point x="531" y="924" type="qcurve"/>
      <point x="601" y="808" type="line"/>
      <point x="769" y="1440" type="line"/>
      <point x="371" y="1440" type="line"/>
      <point x="-16" y="0" type="line"/>
      <point x="324" y="0" type="line"/>
      <point x="401" y="280" type="line"/>
      <point x="322" y="223" type="line"/>
      <point x="332" y="166"/>
      <point x="404" y="73"/>
      <point x="511" y="7"/>
      <point x="648" y="-30"/>
    </contour>
    <contour>
      <point x="697" y="311" type="qcurve" smooth="yes"/>
      <point x="657" y="311"/>
      <point x="593" y="334"/>
      <point x="545" y="379"/>
      <point x="519" y="443"/>
      <point x="519" y="483" type="qcurve" smooth="yes"/>
      <point x="519" y="528"/>
      <point x="550" y="618"/>
      <point x="611" y="688"/>
      <point x="696" y="730"/>
      <point x="750" y="730" type="qcurve" smooth="yes"/>
      <point x="788" y="730"/>
      <point x="854" y="707"/>
      <point x="901" y="665"/>
      <point x="927" y="604"/>
      <point x="927" y="566" type="qcurve" smooth="yes"/>
      <point x="927" y="518"/>
      <point x="894" y="427"/>
      <point x="834" y="354"/>
      <point x="749" y="311"/>
    </contour>
  </outline>
</glyph>
<glyph name="c" format="2">
  <advance width="1106"/>
  <unicode hex="0063"/>
  <outline>
    <contour>
      <point x="565" y="-30" type="qcurve" smooth="yes"/>
      <point x="668" y="-30"/>
      <point x="883" y="26"/>
      <point x="975" y="77" type="qcurve"/>
      <point x="898" y="398" type="line"/>
      <point x="835" y="353"/>
      <point x="710" y="310"/>
      <point x="647" y="310" type="qcurve" smooth="yes"/>
      <point x="595" y="310"/>
      <point x="516" y="334"/>
      <point x="463" y="380"/>
      <point x="435" y="448"/>
      <point x="435" y="493" type="qcurve" smooth="yes"/>
      <point x="435" y="542"/>
      <point x="469" y="628"/>
      <point x="532" y="692"/>
      <point x="624" y="730"/>
      <point x="683" y="730" type="qcurve" smooth="yes"/>
      <point x="752" y="730"/>
      <point x="873" y="682"/>
      <point x="919" y="626" type="qcurve"/>
      <point x="1152" y="899" type="line"/>
      <point x="1069" y="983"/>
      <point x="839" y="1070"/>
      <point x="703" y="1070" type="qcurve" smooth="yes"/>
      <point x="570" y="1070"/>
      <point x="327" y="974"/>
      <point x="143" y="805"/>
      <point x="35" y="575"/>
      <point x="35" y="445" type="qcurve" smooth="yes"/>
      <point x="35" y="342"/>
      <point x="112" y="169"/>
      <point x="251" y="42"/>
      <point x="445" y="-30"/>
    </contour>
  </outline>
</glyph>
<glyph name="d" format="2">
  <advance width="1364"/>
  <unicode hex="0064"/>
  <anchor x="1190" y="1224" name="bar"/>
  <anchor x="1487" y="1440" name="caron"/>
  <outline>
    <contour>
      <point x="496" y="-30" type="curve" smooth="yes"/>
      <point x="664" y="-30"/>
      <point x="791" y="45"/>
      <point x="864" y="172" type="curve"/>
      <point x="835" y="282" type="line"/>
      <point x="759" y="0" type="line"/>
      <point x="1099" y="0" type="line"/>
      <point x="1487" y="1440" type="line"/>
      <point x="1089" y="1440" type="line"/>
      <point x="920" y="808" type="line"/>
      <point x="1031" y="875" type="line"/>
      <point x="956" y="1010"/>
      <point x="808" y="1070"/>
      <point x="651" y="1070" type="curve" smooth="yes"/>
      <point x="301" y="1070"/>
      <point x="42" y="766"/>
      <point x="42" y="414" type="curve" smooth="yes"/>
      <point x="42" y="140"/>
      <point x="229" y="-30"/>
    </contour>
    <contour>
      <point x="613" y="310" type="curve" smooth="yes"/>
      <point x="511" y="310"/>
      <point x="436" y="375"/>
      <point x="436" y="480" type="curve" smooth="yes"/>
      <point x="436" y="607"/>
      <point x="527" y="730"/>
      <point x="668" y="730" type="curve" smooth="yes"/>
      <point x="772" y="730"/>
      <point x="846" y="663"/>
      <point x="846" y="558" type="curve" smooth="yes"/>
      <point x="846" y="433"/>
      <point x="755" y="310"/>
    </contour>
  </outline>
</glyph>
<glyph name="e" format="2">
  <advance width="1236"/>
  <unicode hex="0065"/>
  <anchor x="501" y="0" name="bottom"/>
  <anchor x="968" y="0" name="ogonek"/>
  <anchor x="733" y="1040" name="top"/>
  <outline>
    <contour>
      <point x="580" y="-30" type="curve" smooth="yes"/>
      <point x="724" y="-30"/>
      <point x="901" y="5"/>
      <point x="1003" y="56" type="curve"/>
      <point x="953" y="337" type="line"/>
      <point x="850" y="290"/>
      <point x="754" y="270"/>
      <point x="648" y="270" type="curve" smooth="yes"/>
      <point x="523" y="270"/>
      <point x="399" y="308"/>
      <point x="399" y="408" type="curve"/>
      <point x="1156" y="408" type="line"/>
      <point x="1290" y="771"/>
      <point x="1090" y="1070"/>
      <point x="687" y="1070" type="curve" smooth="yes"/>
      <point x="324" y="1070"/>
      <point x="51" y="809"/>
      <point x="51" y="444" type="curve" smooth="yes"/>
      <point x="51" y="167"/>
      <point x="252" y="-30"/>
    </contour>
    <contour>
      <point x="478" y="668" type="line"/>
      <point x="491" y="743"/>
      <point x="565" y="790"/>
      <point x="662" y="790" type="curve" smooth="yes"/>
      <point x="758" y="790"/>
      <point x="826" y="753"/>
      <point x="826" y="668" type="curve"/>
    </contour>
  </outline>
</glyph>
<glyph name="f" format="2">
  <advance width="884"/>
  <unicode hex="0066"/>
  <outline>
    <contour>
      <point x="465" y="0" type="line"/>
      <point x="661" y="728" type="line"/>
      <point x="903" y="728" type="line"/>
      <point x="985" y="1040" type="line"/>
      <point x="743" y="1040" type="line"/>
      <point x="752" y="1064" type="line"/>
      <point x="762" y="1105"/>
      <point x="820" y="1144"/>
      <point x="864" y="1144" type="qcurve" smooth="yes"/>
      <point x="888" y="1144"/>
      <point x="942" y="1132"/>
      <point x="968" y="1111" type="qcurve"/>
      <point x="1097" y="1398" type="line"/>
      <point x="1030" y="1441"/>
      <point x="885" y="1470"/>
      <point x="812" y="1470" type="qcurve" smooth="yes"/>
      <point x="632" y="1470"/>
      <point x="406" y="1270"/>
      <point x="356" y="1086" type="qcurve" smooth="yes"/>
      <point x="65" y="0" type="line"/>
    </contour>
    <contour>
      <point x="293" y="728" type="line"/>
      <point x="373" y="1040" type="line"/>
      <point x="177" y="1040" type="line"/>
      <point x="97" y="728" type="line"/>
    </contour>
  </outline>
</glyph>
<glyph name="g" format="2">
  <advance width="1250"/>
  <unicode hex="0067"/>
  <outline>
    <contour>
      <point x="422" y="-450" type="qcurve" smooth="yes"/>
      <point x="531" y="-450"/>
      <point x="745" y="-410"/>
      <point x="914" y="-323"/>
      <point x="1018" y="-191"/>
      <point x="1018" y="-99" type="qcurve" smooth="yes"/>
      <point x="1018" y="-1"/>
      <point x="841" y="140"/>
      <point x="659" y="180" type="qcurve"/>
      <point x="485" y="221" type="line"/>
      <point x="467" y="227"/>
      <point x="433" y="235"/>
      <point x="408" y="246"/>
      <point x="391" y="263"/>
      <point x="391" y="275" type="qcurve" smooth="yes"/>
      <point x="391" y="289"/>
      <point x="411" y="311"/>
      <point x="449" y="323"/>
      <point x="507" y="329"/>
      <point x="546" y="328" type="qcurve"/>
      <point x="516" y="470" type="line"/>
      <point x="440" y="473"/>
      <point x="278" y="447"/>
      <point x="144" y="387"/>
      <point x="58" y="292"/>
      <point x="58" y="223" type="qcurve" smooth="yes"/>
      <point x="58" y="171"/>
      <point x="98" y="100"/>
      <point x="129" y="77" type="qcurve"/>
      <point x="66" y="71"/>
      <point x="-40" y="32"/>
      <point x="-117" y="-31"/>
      <point x="-160" y="-112"/>
      <point x="-160" y="-157" type="qcurve" smooth="yes"/>
      <point x="-160" y="-211"/>
      <point x="-108" y="-298"/>
      <point x="-20" y="-362"/>
      <point x="97" y="-408"/>
      <point x="227" y="-437"/>
      <point x="361" y="-450"/>
    </contour>
    <contour>
      <point x="442" y="-218" type="qcurve" smooth="yes"/>
      <point x="410" y="-218"/>
      <point x="322" y="-206"/>
      <point x="246" y="-179"/>
      <point x="193" y="-136"/>
      <point x="193" y="-106" type="qcurve" smooth="yes"/>
      <point x="193" y="-87"/>
      <point x="217" y="-61"/>
      <point x="257" y="-45"/>
      <point x="308" y="-38"/>
      <point x="337" y="-40" type="qcurve"/>
      <point x="533" y="-81" type="line" smooth="yes"/>
      <point x="555" y="-86"/>
      <point x="596" y="-98"/>
      <point x="625" y="-112"/>
      <point x="643" y="-133"/>
      <point x="643" y="-149" type="qcurve" smooth="yes"/>
      <point x="643" y="-169"/>
      <point x="608" y="-196"/>
      <point x="552" y="-212"/>
      <point x="481" y="-218"/>
    </contour>
    <contour>
      <point x="590" y="320" type="qcurve" smooth="yes"/>
      <point x="690" y="320"/>
      <point x="872" y="379"/>
      <point x="1011" y="486"/>
      <point x="1094" y="634"/>
      <point x="1094" y="725" type="qcurve" smooth="yes"/>
      <point x="1094" y="798"/>
      <point x="1029" y="925"/>
      <point x="911" y="1018"/>
      <point x="740" y="1070"/>
      <point x="632" y="1070" type="qcurve" smooth="yes"/>
      <point x="532" y="1070"/>
      <point x="350" y="1013"/>
      <point x="212" y="906"/>
      <point x="131" y="758"/>
      <point x="131" y="666" type="qcurve" smooth="yes"/>
      <point x="131" y="593"/>
      <point x="194" y="468"/>
      <point x="315" y="375"/>
      <point x="485" y="320"/>
    </contour>
    <contour>
      <point x="607" y="580" type="qcurve" smooth="yes"/>
      <point x="574" y="580"/>
      <point x="521" y="597"/>
      <point x="482" y="625"/>
      <point x="459" y="666"/>
      <point x="459" y="692" type="qcurve" smooth="yes"/>
      <point x="459" y="717"/>
      <point x="485" y="761"/>
      <point x="529" y="794"/>
      <point x="587" y="812"/>
      <point x="620" y="812" type="qcurve" smooth="yes"/>
      <point x="650" y="812"/>
      <point x="703" y="796"/>
      <point x="740" y="769"/>
      <point x="761" y="730"/>
      <point x="761" y="707" type="qcurve" smooth="yes"/>
      <point x="761" y="681"/>
      <point x="737" y="634"/>
      <point x="696" y="600"/>
      <point x="640" y="580"/>
    </contour>
    <contour>
      <point x="1281" y="728" type="line"/>
      <point x="1364" y="1040" type="line"/>
      <point x="706" y="1000" type="line"/>
      <point x="779" y="748" type="line"/>
    </contour>
  </outline>
</glyph>
<glyph name="h" format="2">
  <advance width="1366"/>
  <unicode hex="0068"/>
  <outline>
    <contour>
      <point x="388" y="0" type="line"/>
      <point x="532" y="534" type="line" smooth="yes"/>
      <point x="544" y="579"/>
      <point x="582" y="645"/>
      <point x="632" y="688"/>
      <point x="691" y="710"/>
      <point x="728" y="710" type="qcurve" smooth="yes"/>
      <point x="772" y="710"/>
      <point x="830" y="688"/>
      <point x="860" y="642"/>
      <point x="862" y="576"/>
      <point x="851" y="534" type="qcurve" smooth="yes"/>
      <point x="708" y="0" type="line"/>
      <point x="1108" y="0" type="line"/>
      <point x="1281" y="646" type="line"/>
      <point x="1304" y="741"/>
      <point x="1274" y="898"/>
      <point x="1185" y="1010"/>
      <point x="1046" y="1070"/>
      <point x="960" y="1070" type="qcurve" smooth="yes"/>
      <point x="855" y="1070"/>
      <point x="673" y="986"/>
      <point x="597" y="919" type="qcurve"/>
      <point x="603" y="794" type="line"/>
      <point x="778" y="1440" type="line"/>
      <point x="378" y="1440" type="line"/>
      <point x="-12" y="0" type="line"/>
    </contour>
  </outline>
</glyph>
<glyph name="k" format="2">
  <advance width="1272"/>
  <unicode hex="006B"/>
  <outline>
    <contour>
      <point x="387" y="0" type="line"/>
      <point x="461" y="268" type="line"/>
      <point x="547" y="344" type="line"/>
      <point x="667" y="0" type="line"/>
      <point x="1119" y="0" type="line"/>
      <point x="889" y="591" type="line"/>
      <point x="1375" y="1040" type="line"/>
      <point x="890" y="1040" type="line"/>
      <point x="594" y="772" type="line"/>
      <point x="777" y="1440" type="line"/>
      <point x="377" y="1440" type="line"/>
      <point x="-13" y="0" type="line"/>
    </contour>
  </outline>
</glyph>
<glyph name="l" format="2">
  <advance width="770"/>
  <unicode hex="006C"/>
  <outline>
    <contour>
      <point x="410" y="-31" type="qcurve" smooth="yes"/>
      <point x="300" y="-31"/>
      <point x="156" y="44"/>
      <point x="82" y="159"/>
      <point x="69" y="291"/>
      <point x="88" y="350" type="qcurve"/>
      <point x="383" y="1440" type="line"/>
      <point x="783" y="1440" type="line"/>
      <point x="502" y="414" type="line"/>
      <point x="496" y="389"/>
      <point x="496" y="350"/>
      <point x="515" y="321"/>
      <point x="547" y="307"/>
      <point x="569" y="307" type="qcurve" smooth="yes"/>
      <point x="584" y="307"/>
      <point x="617" y="312"/>
      <point x="636" y="318" type="qcurve"/>
      <point x="623" y="9" type="line"/>
      <point x="560" y="-13"/>
      <point x="455" y="-31"/>
    </contour>
  </outline>
</glyph>
<glyph name="m" format="2">
  <advance width="2026"/>
  <unicode hex="006D"/>
  <outline>
    <contour>
      <point x="388" y="0" type="line"/>
      <point x="544" y="586" type="line" smooth="yes"/>
      <point x="552" y="617"/>
      <point x="586" y="662"/>
      <point x="632" y="693"/>
      <point x="691" y="710"/>
      <point x="722" y="710" type="qcurve" smooth="yes"/>
      <point x="757" y="710"/>
      <point x="805" y="691"/>
      <point x="831" y="651"/>
      <point x="834" y="591"/>
      <point x="824" y="548" type="qcurve"/>
      <point x="678" y="0" type="line"/>
      <point x="1078" y="0" type="line"/>
      <point x="1234" y="586" type="line" smooth="yes"/>
      <point x="1242" y="617"/>
      <point x="1276" y="662"/>
      <point x="1322" y="693"/>
      <point x="1381" y="710"/>
      <point x="1412" y="710" type="qcurve" smooth="yes"/>
      <point x="1447" y="710"/>
      <point x="1495" y="691"/>
      <point x="1521" y="651"/>
      <point x="1524" y="591"/>
      <point x="1514" y="548" type="qcurve"/>
      <point x="1368" y="0" type="line"/>
      <point x="1768" y="0" type="line"/>
      <point x="1945" y="662" type="line"/>
      <point x="1971" y="766"/>
      <point x="1949" y="921"/>
      <point x="1869" y="1021"/>
      <point x="1739" y="1070"/>
      <point x="1655" y="1070" type="qcurve" smooth="yes"/>
      <point x="1595" y="1070"/>
      <point x="1476" y="1046"/>
      <point x="1372" y="994"/>
      <point x="1283" y="918"/>
      <point x="1251" y="867" type="qcurve"/>
      <point x="1246" y="912"/>
      <point x="1206" y="987"/>
      <point x="1139" y="1041"/>
      <point x="1047" y="1070"/>
      <point x="990" y="1070" type="qcurve" smooth="yes"/>
      <point x="937" y="1070"/>
      <point x="827" y="1041"/>
      <point x="726" y="985"/>
      <point x="645" y="902"/>
      <point x="620" y="847" type="qcurve"/>
      <point x="668" y="1040" type="line"/>
      <point x="268" y="1040" type="line"/>
      <point x="-12" y="0" type="line"/>
    </contour>
  </outline>
</glyph>
<glyph name="n" format="2">
  <advance width="1366"/>
  <unicode hex="006E"/>
  <outline>
    <contour>
      <point x="388" y="0" type="line"/>
      <point x="532" y="536" type="line"/>
      <point x="542" y="581"/>
      <point x="581" y="646"/>
      <point x="635" y="689"/>
      <point x="704" y="710"/>
      <point x="744" y="710" type="qcurve" smooth="yes"/>
      <point x="781" y="710"/>
      <point x="834" y="693"/>
      <point x="862" y="651"/>
      <point x="865" y="585"/>
      <point x="852" y="536" type="qcurve" smooth="yes"/>
      <point x="708" y="0" type="line"/>
      <point x="1108" y="0" type="line"/>
      <point x="1285" y="662" type="line"/>
      <point x="1307" y="758"/>
      <point x="1274" y="909"/>
      <point x="1186" y="1014"/>
      <point x="1051" y="1070"/>
      <point x="972" y="1070" type="qcurve" smooth="yes"/>
      <point x="876" y="1070"/>
      <point x="702" y="990"/>
      <point x="631" y="905" type="qcurve"/>
      <point x="668" y="1040" type="line"/>
      <point x="268" y="1040" type="line"/>
      <point x="-12" y="0" type="line"/>
    </contour>
  </outline>
</glyph>
<glyph name="o" format="2">
  <advance width="1276"/>
  <unicode hex="006F"/>
  <outline>
    <contour>
      <point x="572" y="-30" type="curve" smooth="yes"/>
      <point x="747" y="-30"/>
      <point x="913" y="40"/>
      <point x="1035" y="152" type="curve" smooth="yes"/>
      <point x="1096" y="208"/>
      <point x="1145" y="274"/>
      <point x="1182" y="350" type="curve" smooth="yes"/>
      <point x="1219" y="426"/>
      <point x="1237" y="507"/>
      <point x="1237" y="593" type="curve" smooth="yes"/>
      <point x="1237" y="724"/>
      <point x="1187" y="845"/>
      <point x="1095" y="931" type="curve" smooth="yes"/>
      <point x="1003" y="1017"/>
      <point x="869" y="1070"/>
      <point x="705" y="1070" type="curve" smooth="yes"/>
      <point x="532" y="1070"/>
      <point x="366" y="1002"/>
      <point x="243" y="889" type="curve" smooth="yes"/>
      <point x="120" y="776"/>
      <point x="40" y="621"/>
      <point x="40" y="449" type="curve" smooth="yes"/>
      <point x="40" y="318"/>
      <point x="90" y="199"/>
      <point x="182" y="112" type="curve" smooth="yes"/>
      <point x="274" y="24"/>
      <point x="408" y="-30"/>
    </contour>
    <contour>
      <point x="610" y="310" type="curve" smooth="yes"/>
      <point x="559" y="310"/>
      <point x="514" y="328"/>
      <point x="483" y="358" type="curve" smooth="yes"/>
      <point x="452" y="388"/>
      <point x="434" y="430"/>
      <point x="434" y="482" type="curve" smooth="yes"/>
      <point x="434" y="545"/>
      <point x="457" y="606"/>
      <point x="497" y="653" type="curve" smooth="yes"/>
      <point x="537" y="700"/>
      <point x="595" y="730"/>
      <point x="666" y="730" type="curve" smooth="yes"/>
      <point x="719" y="730"/>
      <point x="763" y="713"/>
      <point x="795" y="685" type="curve" smooth="yes"/>
      <point x="827" y="657"/>
      <point x="843" y="614"/>
      <point x="843" y="562" type="curve" smooth="yes"/>
      <point x="843" y="499"/>
      <point x="822" y="436"/>
      <point x="782" y="389" type="curve" smooth="yes"/>
      <point x="741" y="342"/>
      <point x="682" y="310"/>
    </contour>
  </outline>
</glyph>
<glyph name="p" format="2">
  <advance width="1364"/>
  <unicode hex="0070"/>
  <outline>
    <contour>
      <point x="270" y="-420" type="line"/>
      <point x="405" y="83" type="line"/>
      <point x="436" y="55"/>
      <point x="506" y="11"/>
      <point x="583" y="-16"/>
      <point x="666" y="-30"/>
      <point x="710" y="-30" type="qcurve" smooth="yes"/>
      <point x="842" y="-30"/>
      <point x="1068" y="76"/>
      <point x="1230" y="258"/>
      <point x="1323" y="498"/>
      <point x="1323" y="631" type="qcurve" smooth="yes"/>
      <point x="1323" y="732"/>
      <point x="1259" y="895"/>
      <point x="1142" y="1010"/>
      <point x="976" y="1070"/>
      <point x="876" y="1070" type="qcurve" smooth="yes"/>
      <point x="832" y="1070"/>
      <point x="751" y="1057"/>
      <point x="678" y="1032"/>
      <point x="613" y="993"/>
      <point x="586" y="968" type="qcurve"/>
      <point x="606" y="1040" type="line"/>
      <point x="266" y="1040" type="line"/>
      <point x="-128" y="-420" type="line"/>
    </contour>
    <contour>
      <point x="697" y="310" type="qcurve" smooth="yes"/>
      <point x="656" y="310"/>
      <point x="591" y="335"/>
      <point x="544" y="383"/>
      <point x="519" y="450"/>
      <point x="519" y="491" type="qcurve" smooth="yes"/>
      <point x="519" y="535"/>
      <point x="552" y="622"/>
      <point x="612" y="690"/>
      <point x="698" y="730"/>
      <point x="751" y="730" type="qcurve" smooth="yes"/>
      <point x="790" y="730"/>
      <point x="856" y="707"/>
      <point x="904" y="665"/>
      <point x="929" y="604"/>
      <point x="929" y="567" type="qcurve" smooth="yes"/>
      <point x="929" y="508"/>
      <point x="891" y="413"/>
      <point x="827" y="347"/>
      <point x="744" y="310"/>
    </contour>
  </outline>
</glyph>
<glyph name="q" format="2">
  <advance width="1364"/>
  <unicode hex="0071"/>
  <outline>
    <contour>
      <point x="988" y="-420" type="line"/>
      <point x="1380" y="1040" type="line"/>
      <point x="1040" y="1040" type="line"/>
      <point x="964" y="758" type="line"/>
      <point x="1045" y="815" type="line"/>
      <point x="1035" y="871"/>
      <point x="964" y="965"/>
      <point x="853" y="1033"/>
      <point x="716" y="1070"/>
      <point x="639" y="1070" type="qcurve" smooth="yes"/>
      <point x="509" y="1070"/>
      <point x="291" y="966"/>
      <point x="134" y="790"/>
      <point x="47" y="558"/>
      <point x="47" y="429" type="qcurve" smooth="yes"/>
      <point x="47" y="330"/>
      <point x="108" y="163"/>
      <point x="221" y="39"/>
      <point x="380" y="-29"/>
      <point x="478" y="-29" type="qcurve" smooth="yes"/>
      <point x="533" y="-29"/>
      <point x="629" y="-10"/>
      <point x="714" y="29"/>
      <point x="792" y="88"/>
      <point x="833" y="128" type="qcurve"/>
      <point x="764" y="232" type="line"/>
      <point x="590" y="-420" type="line"/>
    </contour>
    <contour>
      <point x="614" y="311" type="qcurve" smooth="yes"/>
      <point x="575" y="311"/>
      <point x="510" y="334"/>
      <point x="464" y="378"/>
      <point x="437" y="439"/>
      <point x="437" y="478" type="qcurve" smooth="yes"/>
      <point x="437" y="525"/>
      <point x="470" y="617"/>
      <point x="530" y="688"/>
      <point x="616" y="731"/>
      <point x="671" y="731" type="qcurve" smooth="yes"/>
      <point x="708" y="731"/>
      <point x="774" y="706"/>
      <point x="820" y="661"/>
      <point x="847" y="597"/>
      <point x="847" y="555" type="qcurve" smooth="yes"/>
      <point x="847" y="510"/>
      <point x="816" y="422"/>
      <point x="755" y="352"/>
      <point x="668" y="311"/>
    </contour>
  </outline>
</glyph>
<glyph name="r" format="2">
  <advance width="936"/>
  <unicode hex="0072"/>
  <outline>
    <contour>
      <point x="389" y="0" type="line"/>
      <point x="525" y="506" type="line"/>
      <point x="541" y="571"/>
      <point x="573" y="614"/>
      <point x="612" y="642" type="curve" smooth="yes"/>
      <point x="651" y="669"/>
      <point x="697" y="680"/>
      <point x="746" y="680" type="curve" smooth="yes"/>
      <point x="802" y="680"/>
      <point x="861" y="666"/>
      <point x="908" y="645" type="curve"/>
      <point x="1060" y="1058" type="line"/>
      <point x="1027" y="1066"/>
      <point x="990" y="1072"/>
      <point x="950" y="1072" type="curve" smooth="yes"/>
      <point x="890" y="1072"/>
      <point x="826" y="1056"/>
      <point x="770" y="1024" type="curve" smooth="yes"/>
      <point x="714" y="992"/>
      <point x="664" y="942"/>
      <point x="627" y="877" type="curve"/>
      <point x="670" y="1040" type="line"/>
      <point x="271" y="1040" type="line"/>
      <point x="-11" y="0" type="line"/>
    </contour>
  </outline>
</glyph>
<glyph name="s" format="2">
  <advance width="1088"/>
  <unicode hex="0073"/>
  <outline>
    <contour>
      <point x="469" y="-28" type="qcurve" smooth="yes"/>
      <point x="576" y="-28"/>
      <point x="760" y="29"/>
      <point x="894" y="137"/>
      <point x="970" y="288"/>
      <point x="970" y="381" type="qcurve" smooth="yes"/>
      <point x="970" y="431"/>
      <point x="928" y="515"/>
      <point x="841" y="586"/>
      <point x="702" y="644"/>
      <point x="605" y="671" type="qcurve" smooth="yes"/>
      <point x="562" y="683"/>
      <point x="509" y="699"/>
      <point x="477" y="714"/>
      <point x="467" y="727"/>
      <point x="467" y="735" type="qcurve" smooth="yes"/>
      <point x="467" y="748"/>
      <point x="482" y="767"/>
      <point x="508" y="780"/>
      <point x="548" y="788"/>
      <point x="572" y="788" type="qcurve" smooth="yes"/>
      <point x="614" y="788"/>
      <point x="704" y="769"/>
      <point x="790" y="736"/>
      <point x="871" y="690"/>
      <point x="904" y="661" type="qcurve"/>
      <point x="1078" y="914" type="line"/>
      <point x="1039" y="951"/>
      <point x="935" y="1013"/>
      <point x="810" y="1056"/>
      <point x="668" y="1080"/>
      <point x="594" y="1080" type="qcurve" smooth="yes"/>
      <point x="495" y="1080"/>
      <point x="318" y="1027"/>
      <point x="183" y="922"/>
      <point x="104" y="773"/>
      <point x="104" y="678" type="qcurve" smooth="yes"/>
      <point x="104" y="620"/>
      <point x="149" y="527"/>
      <point x="238" y="453"/>
      <point x="374" y="398"/>
      <point x="465" y="378" type="qcurve" smooth="yes"/>
      <point x="511" y="367"/>
      <point x="568" y="353"/>
      <point x="600" y="342"/>
      <point x="613" y="332"/>
      <point x="613" y="323" type="qcurve" smooth="yes"/>
      <point x="613" y="310"/>
      <point x="599" y="287"/>
      <point x="570" y="272"/>
      <point x="528" y="264"/>
      <point x="500" y="264" type="qcurve" smooth="yes"/>
      <point x="458" y="264"/>
      <point x="360" y="284"/>
      <point x="262" y="319"/>
      <point x="166" y="370"/>
      <point x="121" y="402" type="qcurve"/>
      <point x="-56" y="150" type="line"/>
      <point x="-5" y="102"/>
      <point x="121" y="35"/>
      <point x="258" y="-8"/>
      <point x="401" y="-28"/>
    </contour>
  </outline>
</glyph>
<glyph name="t" format="2">
  <advance width="930"/>
  <unicode hex="0074"/>
  <outline>
    <contour>
      <point x="504" y="-30" type="qcurve" smooth="yes"/>
      <point x="574" y="-30"/>
      <point x="697" y="-4"/>
      <point x="746" y="18" type="qcurve"/>
      <point x="786" y="345" type="line"/>
      <point x="756" y="332"/>
      <point x="698" y="320"/>
      <point x="669" y="320" type="qcurve" smooth="yes"/>
      <point x="637" y="320"/>
      <point x="593" y="337"/>
      <point x="572" y="367"/>
      <point x="572" y="413"/>
      <point x="579" y="440" type="qcurve" smooth="yes"/>
      <point x="658" y="728" type="line"/>
      <point x="874" y="728" type="line"/>
      <point x="956" y="1040" type="line"/>
      <point x="740" y="1040" type="line"/>
      <point x="820" y="1334" type="line"/>
      <point x="420" y="1334" type="line"/>
      <point x="163" y="378" type="line"/>
      <point x="138" y="281"/>
      <point x="161" y="131"/>
      <point x="252" y="26"/>
      <point x="402" y="-30"/>
    </contour>
    <contour>
      <point x="290" y="728" type="line"/>
      <point x="372" y="1040" type="line"/>
      <point x="156" y="1040" type="line"/>
      <point x="74" y="728" type="line"/>
    </contour>
  </outline>
</glyph>
<glyph name="u" format="2">
  <advance width="1323"/>
  <unicode hex="0075"/>
  <anchor x="514" y="0" name="bottom"/>
  <anchor x="1056" y="0" name="descender"/>
  <anchor x="1337" y="1040" name="horn"/>
  <anchor x="1056" y="0" name="ogonek"/>
  <anchor x="807" y="1040" name="top"/>
  <outline>
    <contour>
      <point x="393" y="-30" type="curve" smooth="yes"/>
      <point x="569" y="-30"/>
      <point x="683" y="53"/>
      <point x="754" y="145" type="curve"/>
      <point x="716" y="0" type="line"/>
      <point x="1056" y="0" type="line"/>
      <point x="1337" y="1040" type="line"/>
      <point x="937" y="1040" type="line"/>
      <point x="787" y="482" type="line" smooth="yes"/>
      <point x="760" y="382"/>
      <point x="694" y="330"/>
      <point x="595" y="330" type="curve" smooth="yes"/>
      <point x="500" y="330"/>
      <point x="485" y="381"/>
      <point x="507" y="482" type="curve"/>
      <point x="657" y="1040" type="line"/>
      <point x="257" y="1040" type="line"/>
      <point x="92" y="428" type="line"/>
      <point x="21" y="139"/>
      <point x="140" y="-30"/>
    </contour>
  </outline>
</glyph>
<glyph name="v" format="2">
  <advance width="1178"/>
  <unicode hex="0076"/>
  <outline>
    <contour>
      <point x="692" y="0" type="line"/>
      <point x="1308" y="1040" type="line"/>
      <point x="872" y="1040" type="line"/>
      <point x="469" y="250" type="line"/>
      <point x="564" y="231" type="line"/>
      <point x="570" y="1040" type="line"/>
      <point x="151" y="1040" type="line"/>
      <point x="224" y="0" type="line"/>
    </contour>
  </outline>
</glyph>
<glyph name="w" format="2">
  <advance width="1716"/>
  <unicode hex="0077"/>
  <outline>
    <contour>
      <point x="563" y="0" type="line"/>
      <point x="870" y="544" type="line"/>
      <point x="868" y="0" type="line"/>
      <point x="1258" y="0" type="line"/>
      <point x="1850" y="1040" type="line"/>
      <point x="1456" y="1040" type="line"/>
      <point x="1177" y="476" type="line"/>
      <point x="1173" y="1040" type="line"/>
      <point x="815" y="1040" type="line"/>
      <point x="497" y="469" type="line"/>
      <point x="517" y="1040" type="line"/>
      <point x="147" y="1040" type="line"/>
      <point x="168" y="0" type="line"/>
    </contour>
  </outline>
</glyph>
<glyph name="x" format="2">
  <advance width="1342"/>
  <unicode hex="0078"/>
  <outline>
    <contour>
      <point x="388" y="-1" type="line"/>
      <point x="601" y="248" type="line"/>
      <point x="694" y="0" type="line"/>
      <point x="1183" y="0" type="line"/>
      <point x="944" y="492" type="line"/>
      <point x="1437" y="1040" type="line"/>
      <point x="913" y="1040" type="line"/>
      <point x="724" y="776" type="line"/>
      <point x="650" y="1040" type="line"/>
      <point x="169" y="1040" type="line"/>
      <point x="389" y="526" type="line"/>
      <point x="-122" y="1" type="line"/>
    </contour>
  </outline>
</glyph>
<glyph name="y" format="2">
  <advance width="1236"/>
  <unicode hex="0079"/>
  <outline>
    <contour>
      <point x="126" y="-450" type="qcurve" smooth="yes"/>
      <point x="194" y="-450"/>
      <point x="331" y="-418"/>
      <point x="465" y="-340"/>
      <point x="590" y="-216"/>
      <point x="647" y="-127" type="qcurve"/>
      <point x="1376" y="1040" type="line"/>
      <point x="925" y="1040" type="line"/>
      <point x="586" y="402" type="line"/>
      <point x="567" y="1040" type="line"/>
      <point x="142" y="1040" type="line"/>
      <point x="266" y="28" type="line"/>
      <point x="240" y="-30" type="line"/>
      <point x="230" y="-47"/>
      <point x="202" y="-68"/>
      <point x="170" y="-82"/>
      <point x="134" y="-88"/>
      <point x="115" y="-88" type="qcurve" smooth="yes"/>
      <point x="76" y="-88"/>
      <point x="-4" y="-64"/>
      <point x="-40" y="-46" type="qcurve"/>
      <point x="-203" y="-368" type="line"/>
      <point x="-172" y="-389"/>
      <point x="-97" y="-419"/>
      <point x="-13" y="-440"/>
      <point x="80" y="-450"/>
    </contour>
  </outline>
</glyph>
<glyph name="z" format="2">
  <advance width="1067"/>
  <unicode hex="007A"/>
  <anchor x="675" y="1040" name="top"/>
  <outline>
    <contour>
      <point x="850" y="0" type="line"/>
      <point x="944" y="350" type="line"/>
      <point x="578" y="350" type="line"/>
      <point x="1052" y="780" type="line"/>
      <point x="1121" y="1040" type="line"/>
      <point x="237" y="1040" type="line"/>
      <point x="143" y="690" type="line"/>
      <point x="513" y="690" type="line"/>
      <point x="9" y="263" type="line"/>
      <point x="-60" y="0" type="line"/>
    </contour>
  </outline>
</glyph>
<glyph name="braceleft" format="2">
  <advance width="732"/>
  <unicode hex="007B"/>
  <outline>
    <contour>
      <point x="524" y="40" type="line"/>
      <point x="398" y="34"/>
      <point x="363" y="74"/>
      <point x="403" y="164" type="curve"/>
      <point x="533" y="442" type="line"/>
      <point x="590" y="570"/>
      <point x="556" y="664"/>
      <point x="427" y="690" type="curve"/>
      <point x="427" y="692" type="line"/>
      <point x="565" y="714"/>
      <point x="652" y="808"/>
      <point x="661" y="938" type="curve"/>
      <point x="687" y="1216" type="line" smooth="yes"/>
      <point x="696" y="1310"/>
      <point x="752" y="1348"/>
      <point x="874" y="1340" type="curve"/>
      <point x="945" y="1606" type="line"/>
      <point x="582" y="1634"/>
      <point x="391" y="1504"/>
      <point x="363" y="1188" type="curve" smooth="yes"/>
      <point x="341" y="948" type="line"/>
      <point x="335" y="856"/>
      <point x="285" y="824"/>
      <point x="135" y="824" type="curve"/>
      <point x="64" y="558" type="line"/>
      <point x="214" y="558"/>
      <point x="246" y="526"/>
      <point x="205" y="434" type="curve" smooth="yes"/>
      <point x="95" y="190" type="line" smooth="yes"/>
      <point x="-47" y="-124"/>
      <point x="76" y="-254"/>
      <point x="454" y="-226" type="curve"/>
    </contour>
  </outline>
</glyph>
<glyph name="bar" format="2">
  <advance width="720"/>
  <unicode hex="007C"/>
  <outline>
    <contour>
      <point x="321" y="-220" type="line"/>
      <point x="812" y="1600" type="line"/>
      <point x="492" y="1600" type="line"/>
      <point x="1" y="-220" type="line"/>
    </contour>
  </outline>
</glyph>
<glyph name="braceright" format="2">
  <advance width="732"/>
  <unicode hex="007D"/>
  <outline>
    <contour>
      <point x="-135" y="-226" type="line"/>
      <point x="1" y="-236"/>
      <point x="210" y="-196"/>
      <point x="356" y="-94"/>
      <point x="438" y="73"/>
      <point x="449" y="190" type="qcurve" smooth="yes"/>
      <point x="471" y="434" type="line"/>
      <point x="473" y="470"/>
      <point x="497" y="517"/>
      <point x="545" y="545"/>
      <point x="621" y="558"/>
      <point x="678" y="558" type="qcurve"/>
      <point x="751" y="824" type="line"/>
      <point x="694" y="824"/>
      <point x="624" y="837"/>
      <point x="591" y="867"/>
      <point x="594" y="915"/>
      <point x="610" y="948" type="qcurve"/>
      <point x="716" y="1188" type="line" smooth="yes"/>
      <point x="770" y="1308"/>
      <point x="778" y="1476"/>
      <point x="688" y="1577"/>
      <point x="502" y="1618"/>
      <point x="360" y="1606" type="qcurve"/>
      <point x="288" y="1340" type="line"/>
      <point x="334" y="1343"/>
      <point x="396" y="1331"/>
      <point x="426" y="1302"/>
      <point x="424" y="1252"/>
      <point x="409" y="1216" type="qcurve"/>
      <point x="284" y="938" type="line"/>
      <point x="238" y="842"/>
      <point x="292" y="709"/>
      <point x="387" y="692" type="qcurve"/>
      <point x="384" y="690" type="line"/>
      <point x="332" y="680"/>
      <point x="247" y="637"/>
      <point x="187" y="573"/>
      <point x="149" y="490"/>
      <point x="145" y="442" type="qcurve" smooth="yes"/>
      <point x="124" y="164" type="line" smooth="yes"/>
      <point x="121" y="131"/>
      <point x="98" y="82"/>
      <point x="52" y="51"/>
      <point x="-17" y="39"/>
      <point x="-62" y="40" type="qcurve"/>
    </contour>
  </outline>
</glyph>
<glyph name="asciitilde" format="2">
  <advance width="1296"/>
  <unicode hex="007E"/>
  <outline>
    <contour>
      <point x="928" y="460" type="qcurve" smooth="yes"/>
      <point x="1022" y="460"/>
      <point x="1209" y="550"/>
      <point x="1295" y="639" type="qcurve"/>
      <point x="1210" y="874" type="line"/>
      <point x="1144" y="803"/>
      <point x="1018" y="732"/>
      <point x="955" y="732" type="qcurve" smooth="yes"/>
      <point x="907" y="732"/>
      <point x="790" y="778"/>
      <point x="662" y="834"/>
      <point x="528" y="880"/>
      <point x="461" y="880" type="qcurve" smooth="yes"/>
      <point x="371" y="880"/>
      <point x="194" y="790"/>
      <point x="109" y="702" type="qcurve"/>
      <point x="194" y="466" type="line"/>
      <point x="256" y="537"/>
      <point x="384" y="608"/>
      <point x="448" y="608" type="qcurve" smooth="yes"/>
      <point x="501" y="608"/>
      <point x="602" y="562"/>
      <point x="715" y="506"/>
      <point x="845" y="460"/>
    </contour>
  </outline>
</glyph>
<glyph name="exclamdown" format="2">
  <advance width="720"/>
  <unicode hex="00A1"/>
  <outline>
    <contour>
      <point x="364" y="-420" type="line"/>
      <point x="548" y="504" type="line"/>
      <point x="184" y="504" type="line"/>
      <point x="-128" y="-420" type="line"/>
    </contour>
    <contour>
      <point x="424" y="624" type="curve" smooth="yes"/>
      <point x="492" y="624"/>
      <point x="557" y="649"/>
      <point x="606" y="694" type="curve" smooth="yes"/>
      <point x="654" y="738"/>
      <point x="687" y="803"/>
      <point x="687" y="883" type="curve" smooth="yes"/>
      <point x="687" y="943"/>
      <point x="663" y="988"/>
      <point x="624" y="1020" type="curve" smooth="yes"/>
      <point x="585" y="1052"/>
      <point x="533" y="1070"/>
      <point x="476" y="1070" type="curve" smooth="yes"/>
      <point x="408" y="1070"/>
      <point x="343" y="1048"/>
      <point x="294" y="1004" type="curve" smooth="yes"/>
      <point x="245" y="960"/>
      <point x="212" y="897"/>
      <point x="212" y="813" type="curve" smooth="yes"/>
      <point x="212" y="756"/>
      <point x="236" y="708"/>
      <point x="273" y="676" type="curve" smooth="yes"/>
      <point x="310" y="644"/>
      <point x="364" y="624"/>
    </contour>
  </outline>
</glyph>
<glyph name="cent" format="2">
  <advance width="1200"/>
  <unicode hex="00A2"/>
  <outline>
    <contour>
      <point x="623" y="-160" type="line"/>
      <point x="658" y="1" type="line"/>
      <point x="747" y="5"/>
      <point x="844" y="23"/>
      <point x="918" y="64" type="curve"/>
      <point x="901" y="363" type="line"/>
      <point x="844" y="335"/>
      <point x="805" y="326"/>
      <point x="744" y="321" type="curve"/>
      <point x="836" y="696" type="line"/>
      <point x="866" y="688"/>
      <point x="897" y="675"/>
      <point x="929" y="649" type="curve"/>
      <point x="1108" y="889" type="line"/>
      <point x="1067" y="937"/>
      <point x="992" y="984"/>
      <point x="908" y="1007" type="curve"/>
      <point x="957" y="1200" type="line"/>
      <point x="711" y="1200" type="line"/>
      <point x="674" y="1037" type="line"/>
      <point x="384" y="1012"/>
      <point x="148" y="760"/>
      <point x="148" y="439" type="curve" smooth="yes"/>
      <point x="148" y="243"/>
      <point x="251" y="89"/>
      <point x="423" y="30" type="curve"/>
      <point x="377" y="-160" type="line"/>
    </contour>
    <contour>
      <point x="502" y="352" type="line"/>
      <point x="459" y="376"/>
      <point x="438" y="425"/>
      <point x="438" y="487" type="curve" smooth="yes"/>
      <point x="438" y="575"/>
      <point x="496" y="702"/>
      <point x="588" y="707" type="curve"/>
    </contour>
  </outline>
</glyph>
<glyph name="sterling" format="2">
  <advance width="1200"/>
  <unicode hex="00A3"/>
  <outline>
    <contour>
      <point x="1010" y="0" type="line"/>
      <point x="1085" y="298" type="line"/>
      <point x="561" y="298" type="line"/>
      <point x="614" y="369"/>
      <point x="654" y="467"/>
      <point x="654" y="560" type="curve" smooth="yes"/>
      <point x="654" y="620"/>
      <point x="660" y="680"/>
      <point x="665" y="740" type="curve"/>
      <point x="665" y="788"/>
      <point x="675" y="837"/>
      <point x="675" y="886" type="curve" smooth="yes"/>
      <point x="675" y="1008"/>
      <point x="724" y="1124"/>
      <point x="866" y="1124" type="curve" smooth="yes"/>
      <point x="945" y="1124"/>
      <point x="1026" y="1097"/>
      <point x="1111" y="1015" type="curve"/>
      <point x="1291" y="1251" type="line"/>
      <point x="1210" y="1378"/>
      <point x="1004" y="1426"/>
      <point x="872" y="1426" type="curve" smooth="yes"/>
      <point x="593" y="1426"/>
      <point x="332" y="1257"/>
      <point x="332" y="926" type="curve" smooth="yes"/>
      <point x="332" y="855"/>
      <point x="335" y="785"/>
      <point x="337" y="714" type="curve" smooth="yes"/>
      <point x="339" y="641"/>
      <point x="340" y="573"/>
      <point x="340" y="530" type="curve" smooth="yes"/>
      <point x="340" y="330"/>
      <point x="205" y="306"/>
      <point x="53" y="295" type="curve"/>
      <point x="-17" y="0" type="line"/>
    </contour>
    <contour>
      <point x="954" y="560" type="line"/>
      <point x="1014" y="810" type="line"/>
      <point x="164" y="810" type="line"/>
      <point x="104" y="560" type="line"/>
    </contour>
  </outline>
</glyph>
<glyph name="currency" format="2">
  <advance width="1200"/>
  <unicode hex="00A4"/>
  <outline>
    <contour>
      <point x="390" y="218" type="line"/>
      <point x="446" y="182"/>
      <point x="505" y="170"/>
      <point x="575" y="170" type="curve" smooth="yes"/>
      <point x="642" y="170"/>
      <point x="698" y="187"/>
      <point x="759" y="221" type="curve"/>
      <point x="885" y="63" type="line"/>
      <point x="1099" y="264" type="line"/>
      <point x="980" y="417" type="line"/>
      <point x="1029" y="498"/>
      <point x="1055" y="573"/>
      <point x="1055" y="674" type="curve" smooth="yes"/>
      <point x="1055" y="726"/>
      <point x="1045" y="782"/>
      <point x="1027" y="829" type="curve"/>
      <point x="1188" y="981" type="line"/>
      <point x="1027" y="1181" type="line"/>
      <point x="864" y="1027" type="line"/>
      <point x="809" y="1062"/>
      <point x="751" y="1074"/>
      <point x="681" y="1074" type="curve" smooth="yes"/>
      <point x="615" y="1074"/>
      <point x="557" y="1056"/>
      <point x="496" y="1023" type="curve"/>
      <point x="368" y="1181" type="line"/>
      <point x="156" y="981" type="line"/>
      <point x="276" y="830" type="line"/>
      <point x="232" y="756"/>
      <point x="200" y="672"/>
      <point x="200" y="569" type="curve" smooth="yes"/>
      <point x="200" y="519"/>
      <point x="206" y="467"/>
      <point x="225" y="418" type="curve"/>
      <point x="67" y="265" type="line"/>
      <point x="227" y="63" type="line"/>
    </contour>
    <contour>
      <point x="609" y="456" type="curve" smooth="yes"/>
      <point x="533" y="456"/>
      <point x="476" y="512"/>
      <point x="476" y="596" type="curve" smooth="yes"/>
      <point x="476" y="698"/>
      <point x="549" y="786"/>
      <point x="644" y="786" type="curve" smooth="yes"/>
      <point x="724" y="786"/>
      <point x="779" y="734"/>
      <point x="779" y="645" type="curve" smooth="yes"/>
      <point x="779" y="543"/>
      <point x="705" y="456"/>
    </contour>
  </outline>
</glyph>
<glyph name="yen" format="2">
  <advance width="1200"/>
  <unicode hex="00A5"/>
  <outline>
    <contour>
      <point x="630" y="0" type="line"/>
      <point x="689" y="246" type="line"/>
      <point x="1019" y="246" type="line"/>
      <point x="1074" y="472" type="line"/>
      <point x="745" y="472" type="line"/>
      <point x="770" y="584" type="line"/>
      <point x="1103" y="584" type="line"/>
      <point x="1159" y="810" type="line"/>
      <point x="922" y="810" type="line"/>
      <point x="1432" y="1400" type="line"/>
      <point x="1042" y="1400" type="line"/>
      <point x="680" y="941" type="line"/>
      <point x="565" y="1400" type="line"/>
      <point x="206" y="1400" type="line"/>
      <point x="398" y="810" type="line"/>
      <point x="156" y="810" type="line"/>
      <point x="101" y="584" type="line"/>
      <point x="428" y="584" type="line"/>
      <point x="402" y="472" type="line"/>
      <point x="71" y="472" type="line"/>
      <point x="16" y="246" type="line"/>
      <point x="343" y="246" type="line"/>
      <point x="284" y="0" type="line"/>
    </contour>
  </outline>
</glyph>
<glyph name="brokenbar" format="2">
  <advance width="720"/>
  <unicode hex="00A6"/>
  <outline>
    <contour>
      <point x="599" y="810" type="line"/>
      <point x="779" y="1480" type="line"/>
      <point x="459" y="1480" type="line"/>
      <point x="279" y="810" type="line"/>
    </contour>
    <contour>
      <point x="353" y="-100" type="line"/>
      <point x="533" y="570" type="line"/>
      <point x="213" y="570" type="line"/>
      <point x="33" y="-100" type="line"/>
    </contour>
  </outline>
</glyph>
<glyph name="section" format="2">
  <advance width="1298"/>
  <unicode hex="00A7"/>
  <outline>
    <contour>
      <point x="447" y="-450" type="curve" smooth="yes"/>
      <point x="745" y="-450"/>
      <point x="1005" y="-286"/>
      <point x="1005" y="3" type="curve" smooth="yes"/>
      <point x="1005" y="166"/>
      <point x="892" y="265"/>
      <point x="660" y="335" type="curve" smooth="yes"/>
      <point x="522" y="376"/>
      <point x="435" y="418"/>
      <point x="435" y="489" type="curve" smooth="yes"/>
      <point x="435" y="598"/>
      <point x="558" y="656"/>
      <point x="696" y="648" type="curve"/>
      <point x="737" y="854" type="line"/>
      <point x="385" y="853"/>
      <point x="81" y="729"/>
      <point x="81" y="432" type="curve" smooth="yes"/>
      <point x="81" y="257"/>
      <point x="235" y="167"/>
      <point x="508" y="85" type="curve" smooth="yes"/>
      <point x="635" y="48"/>
      <point x="677" y="14"/>
      <point x="677" y="-35" type="curve" smooth="yes"/>
      <point x="677" y="-105"/>
      <point x="591" y="-142"/>
      <point x="494" y="-142" type="curve" smooth="yes"/>
      <point x="354" y="-142"/>
      <point x="203" y="-82"/>
      <point x="101" y="0" type="curve"/>
      <point x="-87" y="-267" type="line"/>
      <point x="28" y="-371"/>
      <point x="227" y="-450"/>
    </contour>
    <contour>
      <point x="569" y="132" type="line"/>
      <point x="919" y="132"/>
      <point x="1225" y="253"/>
      <point x="1225" y="555" type="curve" smooth="yes"/>
      <point x="1225" y="723"/>
      <point x="1076" y="819"/>
      <point x="824" y="893" type="curve" smooth="yes"/>
      <point x="677" y="938"/>
      <point x="632" y="966"/>
      <point x="632" y="1014" type="curve" smooth="yes"/>
      <point x="632" y="1095"/>
      <point x="717" y="1122"/>
      <point x="802" y="1122" type="curve" smooth="yes"/>
      <point x="921" y="1122"/>
      <point x="1079" y="1067"/>
      <point x="1175" y="980" type="curve"/>
      <point x="1363" y="1247" type="line"/>
      <point x="1241" y="1361"/>
      <point x="1044" y="1430"/>
      <point x="848" y="1430" type="curve" smooth="yes"/>
      <point x="553" y="1430"/>
      <point x="305" y="1267"/>
      <point x="305" y="978" type="curve" smooth="yes"/>
      <point x="305" y="815"/>
      <point x="417" y="714"/>
      <point x="638" y="654" type="curve" smooth="yes"/>
      <point x="796" y="610"/>
      <point x="873" y="568"/>
      <point x="873" y="498" type="curve" smooth="yes"/>
      <point x="873" y="384"/>
      <point x="746" y="326"/>
      <point x="609" y="336" type="curve"/>
    </contour>
  </outline>
</glyph>
<glyph name="copyright" format="2">
  <advance width="1676"/>
  <unicode hex="00A9"/>
  <outline>
    <contour>
      <point x="839" y="-48" type="curve" smooth="yes"/>
      <point x="1047" y="-48"/>
      <point x="1230" y="30"/>
      <point x="1363" y="162" type="curve" smooth="yes"/>
      <point x="1496" y="294"/>
      <point x="1576" y="474"/>
      <point x="1576" y="682" type="curve" smooth="yes"/>
      <point x="1576" y="887"/>
      <point x="1496" y="1067"/>
      <point x="1363" y="1200" type="curve" smooth="yes"/>
      <point x="1230" y="1333"/>
      <point x="1047" y="1412"/>
      <point x="838" y="1412" type="curve" smooth="yes"/>
      <point x="629" y="1412"/>
      <point x="446" y="1335"/>
      <point x="313" y="1203" type="curve" smooth="yes"/>
      <point x="180" y="1071"/>
      <point x="100" y="891"/>
      <point x="100" y="682" type="curve" smooth="yes"/>
      <point x="100" y="475"/>
      <point x="181" y="295"/>
      <point x="314" y="163" type="curve" smooth="yes"/>
      <point x="447" y="30"/>
      <point x="630" y="-48"/>
    </contour>
    <contour>
      <point x="838" y="112" type="curve" smooth="yes"/>
      <point x="681" y="112"/>
      <point x="543" y="169"/>
      <point x="442" y="269" type="curve" smooth="yes"/>
      <point x="341" y="369"/>
      <point x="278" y="509"/>
      <point x="278" y="682" type="curve" smooth="yes"/>
      <point x="278" y="857"/>
      <point x="341" y="996"/>
      <point x="442" y="1096" type="curve" smooth="yes"/>
      <point x="543" y="1196"/>
      <point x="685" y="1250"/>
      <point x="838" y="1250" type="curve" smooth="yes"/>
      <point x="995" y="1250"/>
      <point x="1133" y="1196"/>
      <point x="1234" y="1096" type="curve" smooth="yes"/>
      <point x="1335" y="996"/>
      <point x="1398" y="857"/>
      <point x="1398" y="682" type="curve" smooth="yes"/>
      <point x="1398" y="509"/>
      <point x="1337" y="369"/>
      <point x="1236" y="269" type="curve" smooth="yes"/>
      <point x="1135" y="169"/>
      <point x="995" y="112"/>
    </contour>
    <contour>
      <point x="862" y="274" type="curve" smooth="yes"/>
      <point x="1006" y="274"/>
      <point x="1104" y="310"/>
      <point x="1180" y="366" type="curve"/>
      <point x="1088" y="536" type="line"/>
      <point x="1024" y="491"/>
      <point x="953" y="470"/>
      <point x="880" y="470" type="curve" smooth="yes"/>
      <point x="807" y="470"/>
      <point x="748" y="491"/>
      <point x="708" y="528" type="curve" smooth="yes"/>
      <point x="668" y="564"/>
      <point x="646" y="617"/>
      <point x="646" y="682" type="curve" smooth="yes"/>
      <point x="646" y="747"/>
      <point x="667" y="800"/>
      <point x="707" y="837" type="curve" smooth="yes"/>
      <point x="747" y="874"/>
      <point x="806" y="894"/>
      <point x="878" y="894" type="curve" smooth="yes"/>
      <point x="958" y="894"/>
      <point x="1018" y="872"/>
      <point x="1062" y="828" type="curve"/>
      <point x="1162" y="994" type="line"/>
      <point x="1087" y="1057"/>
      <point x="1000" y="1090"/>
      <point x="864" y="1090" type="curve" smooth="yes"/>
      <point x="739" y="1090"/>
      <point x="632" y="1048"/>
      <point x="556" y="976" type="curve" smooth="yes"/>
      <point x="479" y="904"/>
      <point x="434" y="801"/>
      <point x="434" y="680" type="curve" smooth="yes"/>
      <point x="434" y="555"/>
      <point x="479" y="456"/>
      <point x="555" y="385" type="curve" smooth="yes"/>
      <point x="631" y="314"/>
      <point x="737" y="274"/>
    </contour>
  </outline>
</glyph>
<glyph name="ordfeminine" format="2">
  <advance width="858"/>
  <unicode hex="00AA"/>
  <outline>
    <contour>
      <point x="403" y="706" type="curve" smooth="yes"/>
      <point x="499" y="706"/>
      <point x="576" y="740"/>
      <point x="616" y="788" type="curve"/>
      <point x="601" y="722" type="line"/>
      <point x="823" y="722" type="line"/>
      <point x="919" y="1079" type="line" smooth="yes"/>
      <point x="946" y="1179"/>
      <point x="936" y="1265"/>
      <point x="885" y="1326" type="curve" smooth="yes"/>
      <point x="834" y="1387"/>
      <point x="744" y="1424"/>
      <point x="607" y="1424" type="curve" smooth="yes"/>
      <point x="490" y="1424"/>
      <point x="402" y="1401"/>
      <point x="326" y="1349" type="curve"/>
      <point x="355" y="1181" type="line"/>
      <point x="376" y="1196"/>
      <point x="404" y="1208"/>
      <point x="437" y="1216" type="curve" smooth="yes"/>
      <point x="470" y="1224"/>
      <point x="509" y="1230"/>
      <point x="542" y="1230" type="curve" smooth="yes"/>
      <point x="595" y="1230"/>
      <point x="634" y="1223"/>
      <point x="659" y="1207" type="curve"/>
      <point x="683" y="1190"/>
      <point x="691" y="1162"/>
      <point x="680" y="1122" type="curve" smooth="yes"/>
      <point x="643" y="984" type="line" smooth="yes"/>
      <point x="634" y="952"/>
      <point x="616" y="928"/>
      <point x="592" y="912" type="curve" smooth="yes"/>
      <point x="567" y="895"/>
      <point x="537" y="884"/>
      <point x="498" y="884" type="curve" smooth="yes"/>
      <point x="453" y="884"/>
      <point x="424" y="901"/>
      <point x="424" y="932" type="curve" smooth="yes"/>
      <point x="424" y="956"/>
      <point x="452" y="978"/>
      <point x="500" y="991" type="curve" smooth="yes"/>
      <point x="548" y="1004"/>
      <point x="610" y="1008"/>
      <point x="679" y="999" type="curve"/>
      <point x="716" y="1145" type="line"/>
      <point x="552" y="1158"/>
      <point x="419" y="1143"/>
      <point x="327" y="1103" type="curve" smooth="yes"/>
      <point x="234" y="1063"/>
      <point x="182" y="997"/>
      <point x="182" y="908" type="curve" smooth="yes"/>
      <point x="182" y="847"/>
      <point x="203" y="796"/>
      <point x="242" y="761" type="curve" smooth="yes"/>
      <point x="281" y="725"/>
      <point x="334" y="706"/>
    </contour>
  </outline>
</glyph>
<glyph name="logicalnot" format="2">
  <advance width="1296"/>
  <unicode hex="00AC"/>
  <outline>
    <contour>
      <point x="1170" y="290" type="line"/>
      <point x="1371" y="1050" type="line"/>
      <point x="211" y="1050" type="line"/>
      <point x="140" y="782" type="line"/>
      <point x="1016" y="782" type="line"/>
      <point x="886" y="290" type="line"/>
    </contour>
  </outline>
</glyph>
<glyph name="registered" format="2">
  <advance width="1212"/>
  <unicode hex="00AE"/>
  <outline>
    <contour>
      <point x="741" y="470" type="qcurve" smooth="yes"/>
      <point x="850" y="470"/>
      <point x="1042" y="549"/>
      <point x="1182" y="686"/>
      <point x="1262" y="871"/>
      <point x="1262" y="979" type="qcurve" smooth="yes"/>
      <point x="1262" y="1086"/>
      <point x="1181" y="1272"/>
      <point x="1038" y="1412"/>
      <point x="847" y="1492"/>
      <point x="735" y="1492" type="qcurve" smooth="yes"/>
      <point x="625" y="1492"/>
      <point x="435" y="1414"/>
      <point x="293" y="1278"/>
      <point x="214" y="1091"/>
      <point x="214" y="983" type="qcurve" smooth="yes"/>
      <point x="214" y="874"/>
      <point x="294" y="688"/>
      <point x="436" y="550"/>
      <point x="629" y="470"/>
    </contour>
    <contour>
      <point x="741" y="566" type="qcurve" smooth="yes"/>
      <point x="656" y="566"/>
      <point x="502" y="626"/>
      <point x="389" y="735"/>
      <point x="322" y="888"/>
      <point x="322" y="983" type="qcurve" smooth="yes"/>
      <point x="322" y="1076"/>
      <point x="388" y="1228"/>
      <point x="501" y="1336"/>
      <point x="651" y="1394"/>
      <point x="735" y="1394" type="qcurve" smooth="yes"/>
      <point x="820" y="1394"/>
      <point x="972" y="1336"/>
      <point x="1087" y="1226"/>
      <point x="1154" y="1073"/>
      <point x="1154" y="979" type="qcurve" smooth="yes"/>
      <point x="1154" y="887"/>
      <point x="1088" y="735"/>
      <point x="975" y="627"/>
      <point x="825" y="566"/>
    </contour>
    <contour>
      <point x="663" y="706" type="line"/>
      <point x="664" y="912" type="line"/>
      <point x="724" y="912" type="line"/>
      <point x="864" y="706" type="line"/>
      <point x="1011" y="706" type="line"/>
      <point x="848" y="936" type="line"/>
      <point x="904" y="951"/>
      <point x="977" y="1028"/>
      <point x="977" y="1088" type="qcurve" smooth="yes"/>
      <point x="977" y="1128"/>
      <point x="948" y="1190"/>
      <point x="893" y="1233"/>
      <point x="816" y="1256"/>
      <point x="769" y="1256" type="qcurve" smooth="yes"/>
      <point x="541" y="1256" type="line"/>
      <point x="542" y="706" type="line"/>
    </contour>
    <contour>
      <point x="664" y="1156" type="line"/>
      <point x="758" y="1156" type="line" smooth="yes"/>
      <point x="805" y="1156"/>
      <point x="854" y="1118"/>
      <point x="854" y="1082" type="qcurve" smooth="yes"/>
      <point x="854" y="1046"/>
      <point x="801" y="1010"/>
      <point x="754" y="1010" type="qcurve" smooth="yes"/>
      <point x="664" y="1010" type="line"/>
    </contour>
  </outline>
</glyph>
<glyph name="degree" format="2">
  <advance width="890"/>
  <unicode hex="00B0"/>
  <outline>
    <contour>
      <point x="527" y="606" type="qcurve" smooth="yes"/>
      <point x="620" y="606"/>
      <point x="792" y="680"/>
      <point x="922" y="808"/>
      <point x="1001" y="977"/>
      <point x="1001" y="1071" type="qcurve" smooth="yes"/>
      <point x="1001" y="1146"/>
      <point x="947" y="1274"/>
      <point x="851" y="1367"/>
      <point x="715" y="1420"/>
      <point x="632" y="1420" type="qcurve" smooth="yes"/>
      <point x="538" y="1420"/>
      <point x="366" y="1346"/>
      <point x="233" y="1220"/>
      <point x="156" y="1053"/>
      <point x="156" y="959" type="qcurve" smooth="yes"/>
      <point x="156" y="884"/>
      <point x="209" y="756"/>
      <point x="308" y="661"/>
      <point x="444" y="606"/>
    </contour>
    <contour>
      <point x="561" y="852" type="qcurve" smooth="yes"/>
      <point x="528" y="852"/>
      <point x="475" y="872"/>
      <point x="439" y="907"/>
      <point x="418" y="959"/>
      <point x="418" y="990" type="qcurve" smooth="yes"/>
      <point x="418" y="1027"/>
      <point x="447" y="1094"/>
      <point x="495" y="1145"/>
      <point x="560" y="1174"/>
      <point x="597" y="1174" type="qcurve" smooth="yes"/>
      <point x="630" y="1174"/>
      <point x="681" y="1154"/>
      <point x="719" y="1120"/>
      <point x="739" y="1070"/>
      <point x="739" y="1040" type="qcurve" smooth="yes"/>
      <point x="739" y="999"/>
      <point x="710" y="930"/>
      <point x="660" y="880"/>
      <point x="596" y="852"/>
    </contour>
  </outline>
</glyph>
<glyph name="twosuperior" format="2">
  <advance width="851"/>
  <unicode hex="00B2"/>
  <anchor x="762" y="-30" name="top"/>
  <outline>
    <contour>
      <point x="292" y="1317" type="curve"/>
      <point x="528" y="1301" type="line"/>
      <point x="528" y="1314"/>
      <point x="529" y="1329"/>
      <point x="532" y="1343" type="curve" smooth="yes"/>
      <point x="542" y="1394"/>
      <point x="575" y="1433"/>
      <point x="629" y="1433" type="curve" smooth="yes"/>
      <point x="683" y="1433"/>
      <point x="736" y="1402"/>
      <point x="736" y="1341" type="curve" smooth="yes"/>
      <point x="736" y="1328"/>
      <point x="734" y="1315"/>
      <point x="729" y="1301" type="curve" smooth="yes"/>
      <point x="699" y="1212"/>
      <point x="579" y="1119"/>
      <point x="510" y="1080" type="curve" smooth="yes"/>
      <point x="170" y="885" type="line"/>
      <point x="126" y="719" type="line"/>
      <point x="855" y="719" type="line"/>
      <point x="912" y="931" type="line"/>
      <point x="615" y="931" type="line"/>
      <point x="754" y="1020" type="line" smooth="yes"/>
      <point x="849" y="1082"/>
      <point x="940" y="1173"/>
      <point x="980" y="1282" type="curve" smooth="yes"/>
      <point x="994" y="1319"/>
      <point x="1001" y="1358"/>
      <point x="1001" y="1398" type="curve" smooth="yes"/>
      <point x="1001" y="1584"/>
      <point x="794" y="1651"/>
      <point x="640" y="1651" type="curve" smooth="yes"/>
      <point x="552" y="1651"/>
      <point x="479" y="1628"/>
      <point x="423" y="1587" type="curve" smooth="yes"/>
      <point x="353" y="1536"/>
      <point x="310" y="1456"/>
      <point x="296" y="1357" type="curve" smooth="yes"/>
      <point x="294" y="1344"/>
      <point x="293" y="1331"/>
    </contour>
  </outline>
</glyph>
<glyph name="threesuperior" format="2">
  <advance width="826"/>
  <unicode hex="00B3"/>
  <outline>
    <contour>
      <point x="476" y="702" type="curve" smooth="yes"/>
      <point x="581" y="702"/>
      <point x="679" y="734"/>
      <point x="751" y="791" type="curve" smooth="yes"/>
      <point x="823" y="847"/>
      <point x="869" y="930"/>
      <point x="869" y="1029" type="curve" smooth="yes"/>
      <point x="869" y="1090"/>
      <point x="848" y="1138"/>
      <point x="817" y="1176" type="curve" smooth="yes"/>
      <point x="785" y="1214"/>
      <point x="740" y="1238"/>
      <point x="696" y="1250" type="curve"/>
      <point x="948" y="1444" type="line"/>
      <point x="996" y="1632" type="line"/>
      <point x="372" y="1632" type="line"/>
      <point x="319" y="1422" type="line"/>
      <point x="643" y="1422" type="line"/>
      <point x="388" y="1255" type="line"/>
      <point x="411" y="1104" type="line"/>
      <point x="444" y="1112"/>
      <point x="473" y="1112"/>
      <point x="497" y="1112" type="curve" smooth="yes"/>
      <point x="578" y="1112"/>
      <point x="628" y="1081"/>
      <point x="628" y="1025" type="curve" smooth="yes"/>
      <point x="628" y="993"/>
      <point x="615" y="967"/>
      <point x="589" y="948" type="curve" smooth="yes"/>
      <point x="563" y="928"/>
      <point x="526" y="918"/>
      <point x="483" y="918" type="curve" smooth="yes"/>
      <point x="440" y="918"/>
      <point x="398" y="928"/>
      <point x="360" y="946" type="curve" smooth="yes"/>
      <point x="322" y="964"/>
      <point x="291" y="990"/>
      <point x="271" y="1019" type="curve"/>
      <point x="151" y="830" type="line"/>
      <point x="174" y="795"/>
      <point x="222" y="763"/>
      <point x="280" y="740" type="curve" smooth="yes"/>
      <point x="338" y="716"/>
      <point x="408" y="702"/>
    </contour>
  </outline>
</glyph>
<glyph name="paragraph" format="2">
  <advance width="1444"/>
  <unicode hex="00B6"/>
  <outline>
    <contour>
      <point x="567" y="-420" type="line"/>
      <point x="1000" y="1186" type="line"/>
      <point x="1132" y="1186" type="line"/>
      <point x="699" y="-420" type="line"/>
      <point x="959" y="-420" type="line"/>
      <point x="1392" y="1186" type="line"/>
      <point x="1596" y="1186" type="line"/>
      <point x="1656" y="1400" type="line"/>
      <point x="825" y="1400" type="line" smooth="yes"/>
      <point x="640" y="1400"/>
      <point x="471" y="1351"/>
      <point x="347" y="1259" type="curve" smooth="yes"/>
      <point x="223" y="1166"/>
      <point x="146" y="1035"/>
      <point x="146" y="864" type="curve" smooth="yes"/>
      <point x="146" y="743"/>
      <point x="194" y="638"/>
      <point x="278" y="569" type="curve" smooth="yes"/>
      <point x="362" y="500"/>
      <point x="478" y="461"/>
      <point x="623" y="464" type="curve"/>
      <point x="558" y="510" type="line"/>
      <point x="307" y="-420" type="line"/>
    </contour>
  </outline>
</glyph>
<glyph name="periodcentered" format="2">
  <advance width="600"/>
  <unicode hex="00B7"/>
  <outline>
    <contour>
      <point x="328" y="492" type="qcurve" smooth="yes"/>
      <point x="378" y="492"/>
      <point x="473" y="526"/>
      <point x="546" y="591"/>
      <point x="591" y="687"/>
      <point x="591" y="747" type="qcurve" smooth="yes"/>
      <point x="591" y="792"/>
      <point x="559" y="864"/>
      <point x="502" y="912"/>
      <point x="425" y="938"/>
      <point x="381" y="938" type="qcurve" smooth="yes"/>
      <point x="330" y="938"/>
      <point x="235" y="905"/>
      <point x="160" y="839"/>
      <point x="116" y="743"/>
      <point x="116" y="681" type="qcurve"/>
      <point x="114" y="638"/>
      <point x="147" y="568"/>
      <point x="205" y="520"/>
      <point x="283" y="492"/>
    </contour>
  </outline>
</glyph>
<glyph name="onesuperior" format="2">
  <advance width="707"/>
  <unicode hex="00B9"/>
  <outline>
    <contour>
      <point x="644" y="722" type="line"/>
      <point x="887" y="1632" type="line"/>
      <point x="808" y="1632" type="line"/>
      <point x="299" y="1478" type="line"/>
      <point x="360" y="1279" type="line"/>
      <point x="573" y="1339" type="line"/>
      <point x="404" y="722" type="line"/>
    </contour>
  </outline>
</glyph>
<glyph name="ordmasculine" format="2">
  <advance width="892"/>
  <unicode hex="00BA"/>
  <outline>
    <contour>
      <point x="555" y="702" type="qcurve" smooth="yes"/>
      <point x="641" y="702"/>
      <point x="800" y="765"/>
      <point x="922" y="875"/>
      <point x="995" y="1022"/>
      <point x="995" y="1106" type="qcurve" smooth="yes"/>
      <point x="995" y="1170"/>
      <point x="945" y="1285"/>
      <point x="852" y="1370"/>
      <point x="721" y="1418"/>
      <point x="639" y="1418" type="qcurve" smooth="yes"/>
      <point x="553" y="1418"/>
      <point x="394" y="1356"/>
      <point x="272" y="1246"/>
      <point x="199" y="1101"/>
      <point x="199" y="1017" type="qcurve" smooth="yes"/>
      <point x="199" y="952"/>
      <point x="247" y="837"/>
      <point x="340" y="753"/>
      <point x="471" y="702"/>
    </contour>
    <contour>
      <point x="578" y="924" type="qcurve" smooth="yes"/>
      <point x="551" y="924"/>
      <point x="504" y="940"/>
      <point x="472" y="969"/>
      <point x="453" y="1011"/>
      <point x="453" y="1037" type="qcurve" smooth="yes"/>
      <point x="453" y="1067"/>
      <point x="476" y="1125"/>
      <point x="517" y="1169"/>
      <point x="579" y="1196"/>
      <point x="616" y="1196" type="qcurve" smooth="yes"/>
      <point x="643" y="1196"/>
      <point x="689" y="1182"/>
      <point x="720" y="1153"/>
      <point x="739" y="1111"/>
      <point x="739" y="1085" type="qcurve" smooth="yes"/>
      <point x="739" y="1055"/>
      <point x="717" y="998"/>
      <point x="675" y="953"/>
      <point x="616" y="924"/>
    </contour>
  </outline>
</glyph>
<glyph name="onequarter" format="2">
  <advance width="1890"/>
  <unicode hex="00BC"/>
  <outline>
    <contour>
      <point x="1583" y="1298" type="line"/>
      <point x="1417" y="1440" type="line"/>
      <point x="286" y="101" type="line"/>
      <point x="453" y="-40" type="line"/>
    </contour>
    <contour>
      <point x="557" y="490" type="line"/>
      <point x="800" y="1400" type="line"/>
      <point x="722" y="1400" type="line"/>
      <point x="213" y="1247" type="line"/>
      <point x="273" y="1048" type="line"/>
      <point x="486" y="1107" type="line"/>
      <point x="318" y="490" type="line"/>
    </contour>
    <contour>
      <point x="1616" y="0" type="line"/>
      <point x="1659" y="160" type="line"/>
      <point x="1777" y="160" type="line"/>
      <point x="1830" y="366" type="line"/>
      <point x="1712" y="366" type="line"/>
      <point x="1754" y="528" type="line"/>
      <point x="1544" y="528" type="line"/>
      <point x="1498" y="366" type="line"/>
      <point x="1345" y="366" type="line"/>
      <point x="1740" y="910" type="line"/>
      <point x="1471" y="910" type="line"/>
      <point x="1059" y="340" type="line"/>
      <point x="1011" y="160" type="line"/>
      <point x="1445" y="160" type="line"/>
      <point x="1402" y="0" type="line"/>
    </contour>
  </outline>
</glyph>
<glyph name="onehalf" format="2">
  <advance width="1906"/>
  <unicode hex="00BD"/>
  <anchor x="1654" y="-749" name="top"/>
  <outline>
    <contour>
      <point x="1574" y="1298" type="line"/>
      <point x="1406" y="1440" type="line"/>
      <point x="275" y="101" type="line"/>
      <point x="442" y="-40" type="line"/>
    </contour>
    <contour>
      <point x="548" y="490" type="line"/>
      <point x="791" y="1400" type="line"/>
      <point x="711" y="1400" type="line"/>
      <point x="202" y="1247" type="line"/>
      <point x="262" y="1048" type="line"/>
      <point x="477" y="1107" type="line"/>
      <point x="307" y="490" type="line"/>
    </contour>
    <contour>
      <point x="1184" y="598" type="curve"/>
      <point x="1420" y="582" type="line"/>
      <point x="1420" y="595"/>
      <point x="1421" y="610"/>
      <point x="1424" y="624" type="curve" smooth="yes"/>
      <point x="1434" y="675"/>
      <point x="1467" y="714"/>
      <point x="1521" y="714" type="curve" smooth="yes"/>
      <point x="1563" y="714"/>
      <point x="1590" y="701"/>
      <point x="1607" y="680" type="curve" smooth="yes"/>
      <point x="1628" y="654"/>
      <point x="1633" y="616"/>
      <point x="1633" y="572" type="curve" smooth="yes"/>
      <point x="1633" y="551"/>
      <point x="1627" y="529"/>
      <point x="1615" y="509" type="curve" smooth="yes"/>
      <point x="1602" y="487"/>
      <point x="1582" y="467"/>
      <point x="1553" y="450" type="curve" smooth="yes"/>
      <point x="1062" y="166" type="line"/>
      <point x="1018" y="0" type="line"/>
      <point x="1747" y="0" type="line"/>
      <point x="1804" y="212" type="line"/>
      <point x="1507" y="212" type="line"/>
      <point x="1646" y="301" type="line" smooth="yes"/>
      <point x="1712" y="343"/>
      <point x="1780" y="400"/>
      <point x="1826" y="466" type="curve" smooth="yes"/>
      <point x="1870" y="529"/>
      <point x="1893" y="601"/>
      <point x="1893" y="679" type="curve" smooth="yes"/>
      <point x="1893" y="826"/>
      <point x="1742" y="932"/>
      <point x="1532" y="932" type="curve" smooth="yes"/>
      <point x="1444" y="932"/>
      <point x="1371" y="909"/>
      <point x="1315" y="868" type="curve" smooth="yes"/>
      <point x="1245" y="817"/>
      <point x="1202" y="737"/>
      <point x="1188" y="638" type="curve" smooth="yes"/>
      <point x="1186" y="625"/>
      <point x="1185" y="612"/>
    </contour>
  </outline>
</glyph>
<glyph name="threequarters" format="2">
  <advance width="2054"/>
  <unicode hex="00BE"/>
  <outline>
    <component base="fraction" xOffset="823"/>
    <contour>
      <point x="414" y="470" type="curve" smooth="yes"/>
      <point x="621" y="470"/>
      <point x="806" y="597"/>
      <point x="806" y="797" type="curve" smooth="yes"/>
      <point x="806" y="917"/>
      <point x="724" y="992"/>
      <point x="634" y="1018" type="curve"/>
      <point x="885" y="1211" type="line"/>
      <point x="933" y="1400" type="line"/>
      <point x="309" y="1400" type="line"/>
      <point x="256" y="1190" type="line"/>
      <point x="580" y="1190" type="line"/>
      <point x="327" y="1023" type="line"/>
      <point x="349" y="872" type="line"/>
      <point x="381" y="879"/>
      <point x="411" y="880"/>
      <point x="434" y="880" type="curve" smooth="yes"/>
      <point x="515" y="880"/>
      <point x="566" y="849"/>
      <point x="566" y="792" type="curve" smooth="yes"/>
      <point x="566" y="729"/>
      <point x="506" y="685"/>
      <point x="421" y="685" type="curve" smooth="yes"/>
      <point x="335" y="685"/>
      <point x="245" y="727"/>
      <point x="209" y="787" type="curve"/>
      <point x="89" y="598" type="line"/>
      <point x="135" y="527"/>
      <point x="276" y="470"/>
    </contour>
    <contour>
      <point x="1756" y="0" type="line"/>
      <point x="1799" y="160" type="line"/>
      <point x="1917" y="160" type="line"/>
      <point x="1970" y="366" type="line"/>
      <point x="1852" y="366" type="line"/>
      <point x="1895" y="528" type="line"/>
      <point x="1684" y="528" type="line"/>
      <point x="1638" y="366" type="line"/>
      <point x="1485" y="366" type="line"/>
      <point x="1881" y="910" type="line"/>
      <point x="1612" y="910" type="line"/>
      <point x="1199" y="339" type="line"/>
      <point x="1151" y="160" type="line"/>
      <point x="1585" y="160" type="line"/>
      <point x="1542" y="0" type="line"/>
    </contour>
  </outline>
</glyph>
<glyph name="questiondown" format="2">
  <advance width="1070"/>
  <unicode hex="00BF"/>
  <outline>
    <contour>
      <point x="674" y="1030" type="curve" smooth="yes"/>
      <point x="530" y="1030"/>
      <point x="409" y="918"/>
      <point x="409" y="780" type="curve" smooth="yes"/>
      <point x="409" y="658"/>
      <point x="487" y="584"/>
      <point x="618" y="584" type="curve" smooth="yes"/>
      <point x="762" y="584"/>
      <point x="882" y="696"/>
      <point x="882" y="836" type="curve" smooth="yes"/>
      <point x="882" y="959"/>
      <point x="802" y="1030"/>
    </contour>
    <contour>
      <point x="791" y="515" type="line"/>
      <point x="798" y="489"/>
      <point x="802" y="461"/>
      <point x="802" y="435" type="curve" smooth="yes"/>
      <point x="802" y="223"/>
      <point x="617" y="173"/>
      <point x="513" y="108" type="curve" smooth="yes"/>
      <point x="472" y="83"/>
      <point x="443" y="55"/>
      <point x="443" y="14" type="curve" smooth="yes"/>
      <point x="443" y="-58"/>
      <point x="565" y="-68"/>
      <point x="617" y="-68" type="curve" smooth="yes"/>
      <point x="691" y="-68"/>
      <point x="765" y="-45"/>
      <point x="835" y="-21" type="curve"/>
      <point x="824" y="-363" type="line"/>
      <point x="759" y="-408"/>
      <point x="556" y="-430"/>
      <point x="474" y="-430" type="curve" smooth="yes"/>
      <point x="264" y="-430"/>
      <point x="-71" y="-337"/>
      <point x="-71" y="-73" type="curve" smooth="yes"/>
      <point x="-71" y="163"/>
      <point x="136" y="221"/>
      <point x="283" y="303" type="curve" smooth="yes"/>
      <point x="331" y="330"/>
      <point x="372" y="359"/>
      <point x="398" y="398" type="curve" smooth="yes"/>
      <point x="412" y="420"/>
      <point x="410" y="458"/>
      <point x="409" y="483" type="curve"/>
    </contour>
  </outline>
</glyph>
<glyph name="AE" format="2">
  <advance width="1846"/>
  <unicode hex="00C6"/>
  <anchor x="1430" y="1400" name="top"/>
  <outline>
    <contour>
      <point x="207" y="0" type="line"/>
      <point x="378" y="250" type="line"/>
      <point x="717" y="250" type="line"/>
      <point x="652" y="0" type="line"/>
      <point x="1614" y="0" type="line"/>
      <point x="1707" y="352" type="line"/>
      <point x="1149" y="352" type="line"/>
      <point x="1202" y="550" type="line"/>
      <point x="1670" y="550" type="line"/>
      <point x="1756" y="870" type="line"/>
      <point x="1288" y="870" type="line"/>
      <point x="1337" y="1052" type="line"/>
      <point x="1887" y="1052" type="line"/>
      <point x="1980" y="1400" type="line"/>
      <point x="755" y="1400" type="line"/>
      <point x="-251" y="0" type="line"/>
    </contour>
    <contour>
      <point x="940" y="1063" type="line"/>
      <point x="803" y="566" type="line"/>
      <point x="597" y="566" type="line"/>
    </contour>
  </outline>
</glyph>
<glyph name="Eth" format="2">
  <advance width="1520"/>
  <unicode hex="00D0"/>
  <anchor x="526" y="712" name="bar"/>
  <anchor x="995" y="1400" name="top"/>
  <outline>
    <component base="D"/>
    <contour>
      <point x="870" y="558" type="line"/>
      <point x="953" y="866" type="line"/>
      <point x="67" y="866" type="line"/>
      <point x="-16" y="558" type="line"/>
    </contour>
  </outline>
</glyph>
<glyph name="multiply" format="2">
  <advance width="1296"/>
  <unicode hex="00D7"/>
  <outline>
    <contour>
      <point x="653" y="491" type="line"/>
      <point x="910" y="145" type="line"/>
      <point x="1127" y="311" type="line"/>
      <point x="869" y="657" type="line"/>
      <point x="1332" y="1013" type="line"/>
      <point x="1189" y="1207" type="line"/>
      <point x="724" y="850" type="line"/>
      <point x="467" y="1197" type="line"/>
      <point x="251" y="1029" type="line"/>
      <point x="509" y="683" type="line"/>
      <point x="47" y="327" type="line"/>
      <point x="188" y="135" type="line"/>
    </contour>
  </outline>
</glyph>
<glyph name="Oslash" format="2">
  <advance width="1648"/>
  <unicode hex="00D8"/>
  <outline>
    <contour>
      <point x="390" y="83" type="line"/>
      <point x="498" y="14"/>
      <point x="628" y="-30"/>
      <point x="781" y="-30" type="curve" smooth="yes"/>
      <point x="858" y="-30"/>
      <point x="933" y="-20"/>
      <point x="1006" y="0" type="curve" smooth="yes"/>
      <point x="1151" y="40"/>
      <point x="1279" y="112"/>
      <point x="1384" y="216" type="curve" smooth="yes"/>
      <point x="1437" y="267"/>
      <point x="1481" y="323"/>
      <point x="1520" y="386" type="curve" smooth="yes"/>
      <point x="1596" y="511"/>
      <point x="1638" y="653"/>
      <point x="1638" y="809" type="curve" smooth="yes"/>
      <point x="1638" y="933"/>
      <point x="1611" y="1045"/>
      <point x="1551" y="1142" type="curve"/>
      <point x="1715" y="1288" type="line"/>
      <point x="1515" y="1502" type="line"/>
      <point x="1328" y="1331" type="line"/>
      <point x="1232" y="1391"/>
      <point x="1119" y="1430"/>
      <point x="966" y="1430" type="curve" smooth="yes"/>
      <point x="889" y="1430"/>
      <point x="814" y="1420"/>
      <point x="742" y="1401" type="curve" smooth="yes"/>
      <point x="597" y="1361"/>
      <point x="471" y="1291"/>
      <point x="364" y="1187" type="curve" smooth="yes"/>
      <point x="311" y="1136"/>
      <point x="266" y="1080"/>
      <point x="227" y="1016" type="curve" smooth="yes"/>
      <point x="151" y="891"/>
      <point x="108" y="745"/>
      <point x="108" y="584" type="curve" smooth="yes"/>
      <point x="108" y="471"/>
      <point x="130" y="376"/>
      <point x="179" y="284" type="curve"/>
      <point x="7" y="128" type="line"/>
      <point x="207" y="-86" type="line"/>
    </contour>
    <contour>
      <point x="529" y="593" type="line"/>
      <point x="526" y="608"/>
      <point x="527" y="622"/>
      <point x="527" y="637" type="curve" smooth="yes"/>
      <point x="527" y="750"/>
      <point x="566" y="856"/>
      <point x="635" y="936" type="curve" smooth="yes"/>
      <point x="703" y="1016"/>
      <point x="801" y="1066"/>
      <point x="918" y="1066" type="curve" smooth="yes"/>
      <point x="953" y="1066"/>
      <point x="984" y="1065"/>
      <point x="1024" y="1044" type="curve"/>
    </contour>
    <contour>
      <point x="823" y="334" type="curve" smooth="yes"/>
      <point x="767" y="334"/>
      <point x="726" y="345"/>
      <point x="686" y="364" type="curve"/>
      <point x="1214" y="845" type="line"/>
      <point x="1221" y="822"/>
      <point x="1221" y="800"/>
      <point x="1221" y="779" type="curve" smooth="yes"/>
      <point x="1221" y="663"/>
      <point x="1184" y="554"/>
      <point x="1115" y="471" type="curve" smooth="yes"/>
      <point x="1046" y="388"/>
      <point x="947" y="334"/>
    </contour>
  </outline>
</glyph>
<glyph name="Thorn" format="2">
  <advance width="1380"/>
  <unicode hex="00DE"/>
  <outline>
    <contour>
      <point x="417" y="0" type="line"/>
      <point x="480" y="236" type="line"/>
      <point x="770" y="236" type="line" smooth="yes"/>
      <point x="947" y="236"/>
      <point x="1101" y="291"/>
      <point x="1212" y="387" type="curve" smooth="yes"/>
      <point x="1323" y="482"/>
      <point x="1389" y="621"/>
      <point x="1389" y="792" type="curve" smooth="yes"/>
      <point x="1389" y="917"/>
      <point x="1339" y="1021"/>
      <point x="1248" y="1093" type="curve" smooth="yes"/>
      <point x="1156" y="1164"/>
      <point x="1025" y="1204"/>
      <point x="862" y="1204" type="curve" smooth="yes"/>
      <point x="740" y="1204" type="line"/>
      <point x="792" y="1400" type="line"/>
      <point x="388" y="1400" type="line"/>
      <point x="13" y="0" type="line"/>
    </contour>
    <contour>
      <point x="648" y="860" type="line"/>
      <point x="793" y="860" type="line" smooth="yes"/>
      <point x="849" y="860"/>
      <point x="896" y="855"/>
      <point x="928" y="838" type="curve" smooth="yes"/>
      <point x="960" y="821"/>
      <point x="977" y="791"/>
      <point x="977" y="743" type="curve" smooth="yes"/>
      <point x="977" y="688"/>
      <point x="961" y="646"/>
      <point x="930" y="617" type="curve" smooth="yes"/>
      <point x="898" y="588"/>
      <point x="853" y="570"/>
      <point x="801" y="570" type="curve" smooth="yes"/>
      <point x="569" y="570" type="line"/>
    </contour>
  </outline>
</glyph>
<glyph name="germandbls" format="2">
  <advance width="1446"/>
  <unicode hex="00DF"/>
  <outline>
    <contour>
      <point x="857" y="-28" type="curve" smooth="yes"/>
      <point x="1114" y="-28"/>
      <point x="1364" y="136"/>
      <point x="1364" y="379" type="curve" smooth="yes"/>
      <point x="1364" y="488"/>
      <point x="1299" y="565"/>
      <point x="1248" y="630" type="curve" smooth="yes"/>
      <point x="1215" y="672"/>
      <point x="1185" y="706"/>
      <point x="1185" y="738" type="curve" smooth="yes"/>
      <point x="1185" y="774"/>
      <point x="1215" y="810"/>
      <point x="1252" y="857" type="curve" smooth="yes"/>
      <point x="1305" y="924"/>
      <point x="1385" y="1017"/>
      <point x="1385" y="1145" type="curve" smooth="yes"/>
      <point x="1385" y="1333"/>
      <point x="1183" y="1470"/>
      <point x="861" y="1470" type="curve" smooth="yes"/>
      <point x="523" y="1470"/>
      <point x="316" y="1283"/>
      <point x="227" y="946" type="curve" smooth="yes"/>
      <point x="-28" y="0" type="line"/>
      <point x="372" y="0" type="line"/>
      <point x="622" y="924" type="line" smooth="yes"/>
      <point x="660" y="1067"/>
      <point x="720" y="1144"/>
      <point x="834" y="1144" type="curve" smooth="yes"/>
      <point x="921" y="1144"/>
      <point x="981" y="1105"/>
      <point x="981" y="1040" type="curve" smooth="yes"/>
      <point x="981" y="992"/>
      <point x="935" y="939"/>
      <point x="886" y="883" type="curve"/>
      <point x="829" y="822"/>
      <point x="778" y="749"/>
      <point x="778" y="682" type="curve" smooth="yes"/>
      <point x="778" y="605"/>
      <point x="831" y="548"/>
      <point x="877" y="497" type="curve" smooth="yes"/>
      <point x="922" y="448"/>
      <point x="950" y="406"/>
      <point x="950" y="364" type="curve" smooth="yes"/>
      <point x="950" y="299"/>
      <point x="888" y="268"/>
      <point x="811" y="268" type="curve" smooth="yes"/>
      <point x="750" y="268"/>
      <point x="700" y="289"/>
      <point x="654" y="326" type="curve"/>
      <point x="511" y="40" type="line"/>
      <point x="619" y="-13"/>
      <point x="750" y="-28"/>
    </contour>
  </outline>
</glyph>
<glyph name="ae" format="2">
  <advance width="1886"/>
  <unicode hex="00E6"/>
  <outline>
    <contour>
      <point x="390" y="-30" type="qcurve" smooth="yes"/>
      <point x="461" y="-30"/>
      <point x="613" y="-5"/>
      <point x="763" y="59"/>
      <point x="900" y="173"/>
      <point x="954" y="260" type="qcurve"/>
      <point x="869" y="249" type="line"/>
      <point x="870" y="180"/>
      <point x="925" y="76"/>
      <point x="1028" y="6"/>
      <point x="1174" y="-30"/>
      <point x="1265" y="-30" type="qcurve" smooth="yes"/>
      <point x="1312" y="-30"/>
      <point x="1412" y="-16"/>
      <point x="1511" y="11"/>
      <point x="1600" y="45"/>
      <point x="1634" y="66" type="qcurve"/>
      <point x="1589" y="343" type="line"/>
      <point x="1513" y="305"/>
      <point x="1376" y="270"/>
      <point x="1306" y="270" type="qcurve" smooth="yes"/>
      <point x="1258" y="270"/>
      <point x="1176" y="290"/>
      <point x="1117" y="326"/>
      <point x="1083" y="376"/>
      <point x="1081" y="408" type="qcurve"/>
      <point x="1787" y="408" type="line"/>
      <point x="1835" y="547"/>
      <point x="1823" y="789"/>
      <point x="1712" y="967"/>
      <point x="1510" y="1070"/>
      <point x="1371" y="1070" type="qcurve" smooth="yes"/>
      <point x="1235" y="1070"/>
      <point x="1018" y="968"/>
      <point x="943" y="858" type="qcurve"/>
      <point x="1073" y="859" type="line"/>
      <point x="1027" y="957"/>
      <point x="822" y="1070"/>
      <point x="662" y="1070" type="qcurve" smooth="yes"/>
      <point x="535" y="1070"/>
      <point x="323" y="1021"/>
      <point x="237" y="967" type="qcurve"/>
      <point x="281" y="696" type="line"/>
      <point x="306" y="714"/>
      <point x="368" y="741"/>
      <point x="442" y="763"/>
      <point x="522" y="774"/>
      <point x="560" y="774" type="qcurve" smooth="yes"/>
      <point x="678" y="774"/>
      <point x="785" y="703"/>
      <point x="767" y="619" type="qcurve"/>
      <point x="706" y="403" type="line" smooth="yes"/>
      <point x="696" y="365"/>
      <point x="659" y="306"/>
      <point x="609" y="267"/>
      <point x="542" y="248"/>
      <point x="502" y="248" type="qcurve" smooth="yes"/>
      <point x="476" y="248"/>
      <point x="435" y="257"/>
      <point x="407" y="275"/>
      <point x="391" y="303"/>
      <point x="391" y="320" type="qcurve" smooth="yes"/>
      <point x="391" y="356"/>
      <point x="451" y="407"/>
      <point x="552" y="433"/>
      <point x="687" y="437"/>
      <point x="760" y="425" type="qcurve"/>
      <point x="821" y="649" type="line"/>
      <point x="635" y="665"/>
      <point x="337" y="633"/>
      <point x="131" y="539"/>
      <point x="20" y="385"/>
      <point x="20" y="281" type="qcurve" smooth="yes"/>
      <point x="20" y="209"/>
      <point x="70" y="96"/>
      <point x="163" y="15"/>
      <point x="301" y="-30"/>
    </contour>
    <contour>
      <point x="1132" y="668" type="line"/>
      <point x="1135" y="696"/>
      <point x="1166" y="740"/>
      <point x="1213" y="773"/>
      <point x="1277" y="790"/>
      <point x="1314" y="790" type="qcurve" smooth="yes"/>
      <point x="1352" y="790"/>
      <point x="1411" y="773"/>
      <point x="1451" y="740"/>
      <point x="1471" y="695"/>
      <point x="1466" y="668" type="qcurve"/>
    </contour>
  </outline>
</glyph>
<glyph name="eth" format="2">
  <advance width="1261"/>
  <unicode hex="00F0"/>
  <outline>
    <contour>
      <point x="550" y="-30" type="curve" smooth="yes"/>
      <point x="738" y="-30"/>
      <point x="904" y="45"/>
      <point x="1027" y="170" type="curve" smooth="yes"/>
      <point x="1150" y="295"/>
      <point x="1225" y="465"/>
      <point x="1225" y="661" type="curve" smooth="yes"/>
      <point x="1225" y="818"/>
      <point x="1178" y="965"/>
      <point x="1090" y="1100" type="curve" smooth="yes"/>
      <point x="1002" y="1235"/>
      <point x="881" y="1351"/>
      <point x="728" y="1448" type="curve"/>
      <point x="407" y="1261" type="line"/>
      <point x="631" y="1124"/>
      <point x="778" y="961"/>
      <point x="834" y="808" type="curve"/>
      <point x="900" y="831" type="line"/>
      <point x="859" y="876"/>
      <point x="806" y="899"/>
      <point x="754" y="914" type="curve" smooth="yes"/>
      <point x="701" y="929"/>
      <point x="650" y="930"/>
      <point x="611" y="930" type="curve" smooth="yes"/>
      <point x="458" y="930"/>
      <point x="315" y="876"/>
      <point x="207" y="781" type="curve" smooth="yes"/>
      <point x="99" y="686"/>
      <point x="29" y="555"/>
      <point x="29" y="402" type="curve" smooth="yes"/>
      <point x="29" y="281"/>
      <point x="78" y="175"/>
      <point x="170" y="96" type="curve" smooth="yes"/>
      <point x="262" y="17"/>
      <point x="390" y="-30"/>
    </contour>
    <contour>
      <point x="583" y="300" type="curve" smooth="yes"/>
      <point x="534" y="300"/>
      <point x="494" y="316"/>
      <point x="467" y="343" type="curve" smooth="yes"/>
      <point x="439" y="370"/>
      <point x="423" y="409"/>
      <point x="423" y="452" type="curve" smooth="yes"/>
      <point x="423" y="516"/>
      <point x="446" y="567"/>
      <point x="485" y="603" type="curve" smooth="yes"/>
      <point x="524" y="639"/>
      <point x="573" y="660"/>
      <point x="629" y="660" type="curve" smooth="yes"/>
      <point x="678" y="660"/>
      <point x="720" y="647"/>
      <point x="748" y="620" type="curve" smooth="yes"/>
      <point x="775" y="593"/>
      <point x="792" y="555"/>
      <point x="792" y="511" type="curve" smooth="yes"/>
      <point x="792" y="455"/>
      <point x="771" y="406"/>
      <point x="735" y="366" type="curve" smooth="yes"/>
      <point x="699" y="326"/>
      <point x="647" y="300"/>
    </contour>
    <contour>
      <point x="720" y="1068" type="line"/>
      <point x="719" y="1082" type="line"/>
      <point x="1126" y="1243" type="line"/>
      <point x="1186" y="1468" type="line"/>
      <point x="760" y="1300" type="line"/>
      <point x="756" y="1286" type="line"/>
      <point x="353" y="1131" type="line"/>
      <point x="290" y="903" type="line"/>
    </contour>
  </outline>
</glyph>
<glyph name="divide" format="2">
  <advance width="1296"/>
  <unicode hex="00F7"/>
  <outline>
    <contour>
      <point x="1273" y="536" type="line"/>
      <point x="1344" y="804" type="line"/>
      <point x="144" y="804" type="line"/>
      <point x="73" y="536" type="line"/>
    </contour>
    <contour>
      <point x="577" y="90" type="qcurve" smooth="yes"/>
      <point x="618" y="90"/>
      <point x="693" y="125"/>
      <point x="752" y="180"/>
      <point x="787" y="254"/>
      <point x="787" y="293" type="qcurve" smooth="yes"/>
      <point x="787" y="327"/>
      <point x="763" y="385"/>
      <point x="721" y="428"/>
      <point x="662" y="452"/>
      <point x="626" y="452" type="qcurve" smooth="yes"/>
      <point x="585" y="452"/>
      <point x="509" y="419"/>
      <point x="452" y="362"/>
      <point x="416" y="289"/>
      <point x="416" y="247" type="qcurve" smooth="yes"/>
      <point x="416" y="215"/>
      <point x="441" y="159"/>
      <point x="484" y="116"/>
      <point x="542" y="90"/>
    </contour>
    <contour>
      <point x="793" y="886" type="qcurve" smooth="yes"/>
      <point x="833" y="886"/>
      <point x="910" y="921"/>
      <point x="967" y="977"/>
      <point x="1001" y="1049"/>
      <point x="1001" y="1089" type="qcurve" smooth="yes"/>
      <point x="1001" y="1123"/>
      <point x="978" y="1181"/>
      <point x="936" y="1224"/>
      <point x="877" y="1248"/>
      <point x="841" y="1248" type="qcurve" smooth="yes"/>
      <point x="802" y="1248"/>
      <point x="726" y="1215"/>
      <point x="665" y="1161"/>
      <point x="628" y="1089"/>
      <point x="628" y="1049" type="qcurve" smooth="yes"/>
      <point x="628" y="1016"/>
      <point x="653" y="956"/>
      <point x="696" y="912"/>
      <point x="756" y="886"/>
    </contour>
  </outline>
</glyph>
<glyph name="oslash" format="2">
  <advance width="1290"/>
  <unicode hex="00F8"/>
  <anchor x="782" y="1040" name="top"/>
  <outline>
    <contour>
      <point x="295" y="36" type="line"/>
      <point x="370" y="-9"/>
      <point x="469" y="-30"/>
      <point x="577" y="-30" type="curve" smooth="yes"/>
      <point x="917" y="-30"/>
      <point x="1238" y="245"/>
      <point x="1238" y="586" type="curve" smooth="yes"/>
      <point x="1238" y="679"/>
      <point x="1216" y="768"/>
      <point x="1169" y="841" type="curve"/>
      <point x="1312" y="970" type="line"/>
      <point x="1146" y="1150" type="line"/>
      <point x="988" y="1004" type="line"/>
      <point x="913" y="1049"/>
      <point x="816" y="1070"/>
      <point x="708" y="1070" type="curve" smooth="yes"/>
      <point x="368" y="1070"/>
      <point x="47" y="800"/>
      <point x="47" y="452" type="curve" smooth="yes"/>
      <point x="47" y="361"/>
      <point x="70" y="274"/>
      <point x="114" y="201" type="curve"/>
      <point x="-29" y="72" type="line"/>
      <point x="137" y="-108" type="line"/>
    </contour>
    <contour>
      <point x="409" y="453" type="line"/>
      <point x="408" y="457"/>
      <point x="409" y="464"/>
      <point x="409" y="467" type="curve" smooth="yes"/>
      <point x="409" y="619"/>
      <point x="519" y="758"/>
      <point x="688" y="758" type="curve" smooth="yes"/>
      <point x="700" y="758"/>
      <point x="720" y="755"/>
      <point x="735" y="751" type="curve"/>
    </contour>
    <contour>
      <point x="577" y="282" type="curve" smooth="yes"/>
      <point x="565" y="282"/>
      <point x="553" y="285"/>
      <point x="541" y="287" type="curve"/>
      <point x="878" y="591" type="line"/>
      <point x="879" y="590"/>
      <point x="879" y="586"/>
      <point x="879" y="586" type="curve"/>
      <point x="879" y="414"/>
      <point x="752" y="282"/>
    </contour>
  </outline>
</glyph>
<glyph name="thorn" format="2">
  <advance width="1364"/>
  <unicode hex="00FE"/>
  <outline>
    <contour>
      <point x="272" y="-420" type="line"/>
      <point x="407" y="83" type="line"/>
      <point x="436" y="55"/>
      <point x="508" y="11"/>
      <point x="585" y="-16"/>
      <point x="668" y="-30"/>
      <point x="710" y="-30" type="qcurve" smooth="yes"/>
      <point x="844" y="-30"/>
      <point x="1068" y="76"/>
      <point x="1232" y="258"/>
      <point x="1323" y="498"/>
      <point x="1323" y="631" type="qcurve" smooth="yes"/>
      <point x="1323" y="728"/>
      <point x="1260" y="889"/>
      <point x="1141" y="1005"/>
      <point x="970" y="1070"/>
      <point x="862" y="1070" type="qcurve" smooth="yes"/>
      <point x="834" y="1070"/>
      <point x="780" y="1065"/>
      <point x="728" y="1051"/>
      <point x="680" y="1033"/>
      <point x="656" y="1019" type="qcurve"/>
      <point x="771" y="1440" type="line"/>
      <point x="373" y="1440" type="line"/>
      <point x="-126" y="-420" type="line"/>
    </contour>
    <contour>
      <point x="695" y="310" type="qcurve" smooth="yes"/>
      <point x="654" y="310"/>
      <point x="589" y="335"/>
      <point x="544" y="383"/>
      <point x="517" y="450"/>
      <point x="517" y="491" type="qcurve" smooth="yes"/>
      <point x="517" y="535"/>
      <point x="550" y="622"/>
      <point x="612" y="690"/>
      <point x="698" y="730"/>
      <point x="751" y="730" type="qcurve" smooth="yes"/>
      <point x="790" y="730"/>
      <point x="854" y="707"/>
      <point x="902" y="665"/>
      <point x="927" y="604"/>
      <point x="927" y="567" type="qcurve" smooth="yes"/>
      <point x="927" y="508"/>
      <point x="889" y="413"/>
      <point x="825" y="347"/>
      <point x="742" y="310"/>
    </contour>
  </outline>
</glyph>
<glyph name="dcroat" format="2">
  <advance width="1364"/>
  <unicode hex="0111"/>
  <outline>
    <contour>
      <point x="1525" y="1118" type="line"/>
      <point x="1579" y="1330" type="line"/>
      <point x="779" y="1330" type="line"/>
      <point x="725" y="1118" type="line"/>
    </contour>
    <contour>
      <point x="497" y="-30" type="qcurve" smooth="yes"/>
      <point x="561" y="-30"/>
      <point x="670" y="-2"/>
      <point x="763" y="49"/>
      <point x="839" y="125"/>
      <point x="865" y="173" type="qcurve"/>
      <point x="837" y="282" type="line"/>
      <point x="761" y="0" type="line"/>
      <point x="1101" y="0" type="line"/>
      <point x="1488" y="1440" type="line"/>
      <point x="1090" y="1440" type="line"/>
      <point x="921" y="808" type="line"/>
      <point x="1032" y="876" type="line"/>
      <point x="1004" y="927"/>
      <point x="922" y="1000"/>
      <point x="824" y="1048"/>
      <point x="711" y="1070"/>
      <point x="653" y="1070" type="qcurve" smooth="yes"/>
      <point x="521" y="1070"/>
      <point x="299" y="965"/>
      <point x="135" y="785"/>
      <point x="44" y="546"/>
      <point x="44" y="414" type="qcurve" smooth="yes"/>
      <point x="44" y="312"/>
      <point x="111" y="147"/>
      <point x="230" y="32"/>
      <point x="398" y="-30"/>
    </contour>
    <contour>
      <point x="615" y="310" type="qcurve" smooth="yes"/>
      <point x="576" y="310"/>
      <point x="512" y="334"/>
      <point x="465" y="379"/>
      <point x="438" y="441"/>
      <point x="438" y="480" type="qcurve" smooth="yes"/>
      <point x="438" y="529"/>
      <point x="471" y="619"/>
      <point x="530" y="688"/>
      <point x="616" y="730"/>
      <point x="670" y="730" type="qcurve" smooth="yes"/>
      <point x="709" y="730"/>
      <point x="773" y="706"/>
      <point x="821" y="662"/>
      <point x="847" y="597"/>
      <point x="847" y="558" type="qcurve" smooth="yes"/>
      <point x="847" y="512"/>
      <point x="814" y="422"/>
      <point x="754" y="353"/>
      <point x="668" y="310"/>
    </contour>
  </outline>
</glyph>
<glyph name="eogonek" format="2">
  <advance width="1223"/>
  <unicode hex="0119"/>
  <anchor x="494" y="0" name="bottom"/>
  <anchor x="726" y="1040" name="top"/>
  <outline>
    <component base="e"/>
    <contour>
      <point x="682" y="-449" type="curve" smooth="yes"/>
      <point x="748" y="-449"/>
      <point x="824" y="-436"/>
      <point x="902" y="-394" type="curve"/>
      <point x="872" y="-197" type="line"/>
      <point x="839" y="-220"/>
      <point x="792" y="-231"/>
      <point x="761" y="-231" type="curve" smooth="yes"/>
      <point x="719" y="-231"/>
      <point x="684" y="-208"/>
      <point x="684" y="-161" type="curve" smooth="yes"/>
      <point x="684" y="-25"/>
      <point x="849" y="-9"/>
      <point x="961" y="0" type="curve"/>
      <point x="966" y="115" type="line"/>
      <point x="710" y="97"/>
      <point x="448" y="-13"/>
      <point x="448" y="-239" type="curve" smooth="yes"/>
      <point x="448" y="-368"/>
      <point x="543" y="-449"/>
    </contour>
  </outline>
</glyph>
<glyph name="Hbar" format="2">
  <advance width="1628"/>
  <unicode hex="0126"/>
  <outline>
    <contour>
      <point x="1313" y="0" type="line"/>
      <point x="1687" y="1400" type="line"/>
      <point x="1283" y="1400" type="line"/>
      <point x="909" y="0" type="line"/>
    </contour>
    <contour>
      <point x="441" y="0" type="line"/>
      <point x="815" y="1400" type="line"/>
      <point x="411" y="1400" type="line"/>
      <point x="37" y="0" type="line"/>
    </contour>
    <contour>
      <point x="1062" y="458" type="line"/>
      <point x="1161" y="826" type="line"/>
      <point x="629" y="826" type="line"/>
      <point x="530" y="458" type="line"/>
    </contour>
    <contour>
      <point x="1728" y="956" type="line"/>
      <point x="1812" y="1264" type="line"/>
      <point x="216" y="1264" type="line"/>
      <point x="132" y="956" type="line"/>
    </contour>
  </outline>
</glyph>
<glyph name="idotless" format="2">
  <advance width="655"/>
  <unicode hex="0131"/>
  <anchor x="188" y="0" name="bottom"/>
  <anchor x="388" y="0" name="ogonek"/>
  <anchor x="467" y="1040" name="top"/>
  <outline>
    <contour>
      <point x="388" y="0" type="line"/>
      <point x="667" y="1040" type="line"/>
      <point x="267" y="1040" type="line"/>
      <point x="-12" y="0" type="line"/>
    </contour>
  </outline>
</glyph>
<glyph name="kgreenlandic" format="2">
  <advance width="1272"/>
  <unicode hex="0138"/>
  <outline>
    <contour>
      <point x="387" y="0" type="line"/>
      <point x="461" y="268" type="line"/>
      <point x="547" y="344" type="line"/>
      <point x="667" y="0" type="line"/>
      <point x="1119" y="0" type="line"/>
      <point x="889" y="591" type="line"/>
      <point x="1375" y="1040" type="line"/>
      <point x="890" y="1040" type="line"/>
      <point x="594" y="772" type="line"/>
      <point x="668" y="1040" type="line"/>
      <point x="269" y="1040" type="line"/>
      <point x="-13" y="0" type="line"/>
    </contour>
  </outline>
</glyph>
<glyph name="Lslash" format="2">
  <advance width="1190"/>
  <unicode hex="0141"/>
  <anchor x="525" y="-0" name="bottom"/>
  <anchor x="853" y="1440" name="caron"/>
  <anchor x="638" y="1400" name="top"/>
  <outline>
    <component base="L" xOffset="-1"/>
    <contour>
      <point x="381" y="538" type="line"/>
      <point x="371" y="498" type="line"/>
      <point x="1207" y="846" type="line"/>
      <point x="1098" y="1110" type="line"/>
      <point x="464" y="846" type="line"/>
      <point x="474" y="886" type="line"/>
      <point x="-69" y="662" type="line"/>
      <point x="39" y="398" type="line"/>
    </contour>
  </outline>
</glyph>
<glyph name="lslash" format="2">
  <advance width="836"/>
  <unicode hex="0142"/>
  <outline>
    <contour>
      <point x="366" y="530" type="line"/>
      <point x="34" y="393" type="line"/>
      <point x="-73" y="671" type="line"/>
      <point x="424" y="878" type="line"/>
      <point x="419" y="838" type="line"/>
      <point x="747" y="970" type="line"/>
      <point x="856" y="689" type="line"/>
      <point x="359" y="490" type="line"/>
    </contour>
    <contour>
      <point x="407" y="-31" type="curve" smooth="yes"/>
      <point x="260" y="-31"/>
      <point x="165" y="25"/>
      <point x="116" y="102" type="curve" smooth="yes"/>
      <point x="67" y="178"/>
      <point x="60" y="271"/>
      <point x="85" y="350" type="curve"/>
      <point x="380" y="1440" type="line"/>
      <point x="780" y="1440" type="line"/>
      <point x="499" y="414" type="line"/>
      <point x="491" y="381"/>
      <point x="490" y="355"/>
      <point x="503" y="336" type="curve"/>
      <point x="515" y="316"/>
      <point x="537" y="307"/>
      <point x="566" y="307" type="curve" smooth="yes"/>
      <point x="586" y="307"/>
      <point x="608" y="310"/>
      <point x="633" y="318" type="curve"/>
      <point x="620" y="9" type="line"/>
      <point x="536" y="-20"/>
      <point x="467" y="-31"/>
    </contour>
  </outline>
</glyph>
<glyph name="Eng" format="2">
  <advance width="1596"/>
  <unicode hex="014A"/>
  <outline>
    <contour>
      <point x="1096" y="589" type="line"/>
      <point x="786" y="1400" type="line"/>
      <point x="392" y="1400" type="line"/>
      <point x="17" y="0" type="line"/>
      <point x="407" y="0" type="line"/>
      <point x="617" y="779" type="line"/>
      <point x="932" y="-70" type="line"/>
    </contour>
    <contour>
      <point x="818" y="-450" type="curve" smooth="yes"/>
      <point x="1045" y="-450"/>
      <point x="1223" y="-293"/>
      <point x="1291" y="-36" type="curve" smooth="yes"/>
      <point x="1676" y="1400" type="line"/>
      <point x="1286" y="1400" type="line"/>
      <point x="899" y="-40" type="line" smooth="yes"/>
      <point x="883" y="-97"/>
      <point x="840" y="-126"/>
      <point x="777" y="-126" type="curve" smooth="yes"/>
      <point x="735" y="-126"/>
      <point x="701" y="-118"/>
      <point x="667" y="-97" type="curve"/>
      <point x="525" y="-370" type="line"/>
      <point x="607" y="-426"/>
      <point x="685" y="-450"/>
    </contour>
  </outline>
</glyph>
<glyph name="eng" format="2">
  <advance width="1358"/>
  <unicode hex="014B"/>
  <outline>
    <contour>
      <point x="617" y="-450" type="curve" smooth="yes"/>
      <point x="843" y="-450"/>
      <point x="1021" y="-293"/>
      <point x="1090" y="-36" type="curve" smooth="yes"/>
      <point x="1277" y="662" type="line" smooth="yes"/>
      <point x="1335" y="892"/>
      <point x="1198" y="1070"/>
      <point x="968" y="1070" type="curve" smooth="yes"/>
      <point x="843" y="1070"/>
      <point x="726" y="1017"/>
      <point x="631" y="904" type="curve"/>
      <point x="669" y="1040" type="line"/>
      <point x="269" y="1040" type="line"/>
      <point x="-12" y="0" type="line"/>
      <point x="388" y="0" type="line"/>
      <point x="532" y="536" type="line" smooth="yes"/>
      <point x="562" y="653"/>
      <point x="639" y="713"/>
      <point x="743" y="713" type="curve" smooth="yes"/>
      <point x="854" y="713"/>
      <point x="877" y="651"/>
      <point x="844" y="536" type="curve"/>
      <point x="697" y="-14" type="line" smooth="yes"/>
      <point x="677" y="-93"/>
      <point x="628" y="-123"/>
      <point x="565" y="-123" type="curve" smooth="yes"/>
      <point x="527" y="-123"/>
      <point x="497" y="-115"/>
      <point x="468" y="-97" type="curve"/>
      <point x="326" y="-370" type="line"/>
      <point x="349" y="-406"/>
      <point x="471" y="-450"/>
    </contour>
  </outline>
</glyph>
<glyph name="OE" format="2">
  <advance width="2312"/>
  <unicode hex="0152"/>
  <outline>
    <contour>
      <point x="719" y="-30" type="curve" smooth="yes"/>
      <point x="947" y="-30"/>
      <point x="1116" y="52"/>
      <point x="1208" y="186" type="curve"/>
      <point x="1192" y="244" type="line"/>
      <point x="1129" y="0" type="line"/>
      <point x="2072" y="0" type="line"/>
      <point x="2165" y="352" type="line"/>
      <point x="1523" y="352" type="line"/>
      <point x="1577" y="552" type="line"/>
      <point x="2097" y="552" type="line"/>
      <point x="2183" y="870" type="line"/>
      <point x="1663" y="870" type="line"/>
      <point x="1711" y="1052" type="line"/>
      <point x="2345" y="1052" type="line"/>
      <point x="2438" y="1400" type="line"/>
      <point x="1415" y="1400" type="line"/>
      <point x="1339" y="1114" type="line"/>
      <point x="1436" y="1203" type="line"/>
      <point x="1321" y="1369"/>
      <point x="1155" y="1430"/>
      <point x="906" y="1430" type="curve" smooth="yes"/>
      <point x="470" y="1430"/>
      <point x="116" y="1050"/>
      <point x="116" y="589" type="curve" smooth="yes"/>
      <point x="116" y="235"/>
      <point x="366" y="-30"/>
    </contour>
    <contour>
      <point x="840" y="348" type="curve" smooth="yes"/>
      <point x="659" y="348"/>
      <point x="545" y="454"/>
      <point x="545" y="627" type="curve" smooth="yes"/>
      <point x="545" y="858"/>
      <point x="699" y="1052"/>
      <point x="926" y="1052" type="curve" smooth="yes"/>
      <point x="1107" y="1052"/>
      <point x="1221" y="944"/>
      <point x="1221" y="768" type="curve" smooth="yes"/>
      <point x="1221" y="540"/>
      <point x="1067" y="348"/>
    </contour>
  </outline>
</glyph>
<glyph name="oe" format="2">
  <advance width="2011"/>
  <unicode hex="0153"/>
  <outline>
    <contour>
      <point x="561" y="-30" type="qcurve" smooth="yes"/>
      <point x="685" y="-30"/>
      <point x="917" y="70"/>
      <point x="1093" y="240"/>
      <point x="1199" y="468"/>
      <point x="1199" y="599" type="qcurve" smooth="yes"/>
      <point x="1199" y="697"/>
      <point x="1131" y="870"/>
      <point x="1002" y="997"/>
      <point x="814" y="1070"/>
      <point x="696" y="1070" type="qcurve" smooth="yes"/>
      <point x="568" y="1070"/>
      <point x="332" y="972"/>
      <point x="150" y="802"/>
      <point x="43" y="576"/>
      <point x="43" y="447" type="qcurve" smooth="yes"/>
      <point x="43" y="349"/>
      <point x="114" y="175"/>
      <point x="248" y="46"/>
      <point x="440" y="-30"/>
    </contour>
    <contour>
      <point x="613" y="310" type="qcurve" smooth="yes"/>
      <point x="573" y="310"/>
      <point x="509" y="334"/>
      <point x="461" y="380"/>
      <point x="435" y="443"/>
      <point x="435" y="482" type="qcurve" smooth="yes"/>
      <point x="435" y="529"/>
      <point x="468" y="618"/>
      <point x="530" y="688"/>
      <point x="615" y="730"/>
      <point x="669" y="730" type="qcurve" smooth="yes"/>
      <point x="708" y="730"/>
      <point x="774" y="706"/>
      <point x="820" y="662"/>
      <point x="846" y="599"/>
      <point x="846" y="558" type="qcurve" smooth="yes"/>
      <point x="846" y="513"/>
      <point x="813" y="424"/>
      <point x="752" y="354"/>
      <point x="667" y="310"/>
    </contour>
    <contour>
      <point x="1369" y="-30" type="qcurve" smooth="yes"/>
      <point x="1422" y="-30"/>
      <point x="1536" y="-17"/>
      <point x="1645" y="9"/>
      <point x="1743" y="41"/>
      <point x="1780" y="60" type="qcurve"/>
      <point x="1733" y="339" type="line"/>
      <point x="1657" y="305"/>
      <point x="1513" y="270"/>
      <point x="1438" y="270" type="qcurve" smooth="yes"/>
      <point x="1393" y="270"/>
      <point x="1300" y="285"/>
      <point x="1225" y="318"/>
      <point x="1177" y="370"/>
      <point x="1176" y="408" type="qcurve"/>
      <point x="1936" y="408" type="line"/>
      <point x="1986" y="547"/>
      <point x="1970" y="787"/>
      <point x="1854" y="968"/>
      <point x="1645" y="1070"/>
      <point x="1499" y="1070" type="qcurve" smooth="yes"/>
      <point x="1362" y="1070"/>
      <point x="1131" y="968"/>
      <point x="964" y="792"/>
      <point x="870" y="554"/>
      <point x="870" y="419" type="qcurve" smooth="yes"/>
      <point x="870" y="316"/>
      <point x="938" y="151"/>
      <point x="1067" y="34"/>
      <point x="1252" y="-30"/>
    </contour>
    <contour>
      <point x="1256" y="668" type="line"/>
      <point x="1260" y="696"/>
      <point x="1290" y="741"/>
      <point x="1340" y="774"/>
      <point x="1406" y="790"/>
      <point x="1442" y="790" type="qcurve" smooth="yes"/>
      <point x="1514" y="790"/>
      <point x="1606" y="733"/>
      <point x="1605" y="668" type="qcurve"/>
    </contour>
  </outline>
</glyph>
<glyph name="Uogonek" format="2">
  <advance width="1542"/>
  <unicode hex="0172"/>
  <anchor x="1007" y="1400" name="top"/>
  <outline>
    <contour>
      <point x="767" y="-449" type="curve" smooth="yes"/>
      <point x="832" y="-449"/>
      <point x="908" y="-436"/>
      <point x="986" y="-394" type="curve"/>
      <point x="956" y="-197" type="line"/>
      <point x="923" y="-220"/>
      <point x="876" y="-231"/>
      <point x="845" y="-231" type="curve" smooth="yes"/>
      <point x="803" y="-231"/>
      <point x="768" y="-208"/>
      <point x="768" y="-161" type="curve" smooth="yes"/>
      <point x="768" y="-60"/>
      <point x="842" y="-20"/>
      <point x="927" y="4" type="curve"/>
      <point x="1170" y="84"/>
      <point x="1334" y="292"/>
      <point x="1414" y="596" type="curve" smooth="yes"/>
      <point x="1629" y="1400" type="line"/>
      <point x="1223" y="1400" type="line"/>
      <point x="1000" y="574" type="line" smooth="yes"/>
      <point x="957" y="410"/>
      <point x="861" y="348"/>
      <point x="736" y="348" type="curve" smooth="yes"/>
      <point x="578" y="348"/>
      <point x="526" y="425"/>
      <point x="566" y="574" type="curve" smooth="yes"/>
      <point x="789" y="1400" type="line"/>
      <point x="385" y="1400" type="line"/>
      <point x="170" y="596" type="line" smooth="yes"/>
      <point x="70" y="224"/>
      <point x="261" y="4"/>
      <point x="611" y="-26" type="curve"/>
      <point x="562" y="-83"/>
      <point x="532" y="-153"/>
      <point x="532" y="-239" type="curve" smooth="yes"/>
      <point x="532" y="-368"/>
      <point x="627" y="-449"/>
    </contour>
  </outline>
</glyph>
<glyph name="uogonek" format="2">
  <advance width="1326"/>
  <unicode hex="0173"/>
  <anchor x="516" y="0" name="bottom"/>
  <anchor x="1058" y="0" name="descender"/>
  <anchor x="1339" y="1040" name="horn"/>
  <anchor x="809" y="1040" name="top"/>
  <outline>
    <component base="u"/>
    <contour>
      <point x="778" y="-449" type="curve" smooth="yes"/>
      <point x="844" y="-449"/>
      <point x="920" y="-436"/>
      <point x="998" y="-394" type="curve"/>
      <point x="968" y="-197" type="line"/>
      <point x="935" y="-220"/>
      <point x="888" y="-231"/>
      <point x="857" y="-231" type="curve" smooth="yes"/>
      <point x="815" y="-231"/>
      <point x="780" y="-208"/>
      <point x="780" y="-161" type="curve" smooth="yes"/>
      <point x="780" y="-25"/>
      <point x="945" y="-9"/>
      <point x="1057" y="0" type="curve"/>
      <point x="1062" y="115" type="line"/>
      <point x="806" y="97"/>
      <point x="544" y="-13"/>
      <point x="544" y="-239" type="curve" smooth="yes"/>
      <point x="544" y="-368"/>
      <point x="639" y="-449"/>
    </contour>
  </outline>
</glyph>
<glyph name="Schwa" format="2">
  <advance width="1621"/>
  <unicode hex="018F"/>
  <outline>
    <contour>
      <point x="753" y="-30" type="curve" smooth="yes"/>
      <point x="1223" y="-30"/>
      <point x="1605" y="339"/>
      <point x="1605" y="832" type="curve" smooth="yes"/>
      <point x="1605" y="1211"/>
      <point x="1321" y="1430"/>
      <point x="877" y="1430" type="curve" smooth="yes"/>
      <point x="657" y="1430"/>
      <point x="478" y="1362"/>
      <point x="341" y="1283" type="curve"/>
      <point x="445" y="952" type="line"/>
      <point x="543" y="1022"/>
      <point x="677" y="1056"/>
      <point x="803" y="1056" type="curve" smooth="yes"/>
      <point x="1062" y="1056"/>
      <point x="1186" y="945"/>
      <point x="1186" y="768" type="curve" smooth="yes"/>
      <point x="1186" y="521"/>
      <point x="1044" y="308"/>
      <point x="791" y="308" type="curve" smooth="yes"/>
      <point x="545" y="308"/>
      <point x="456" y="461"/>
      <point x="512" y="679" type="curve"/>
      <point x="320" y="526" type="line"/>
      <point x="1301" y="526" type="line"/>
      <point x="1385" y="822" type="line"/>
      <point x="147" y="822" type="line"/>
      <point x="-2" y="313"/>
      <point x="226" y="-30"/>
    </contour>
  </outline>
</glyph>
<glyph name="florin" format="2">
  <advance width="1296"/>
  <unicode hex="0192"/>
  <outline>
    <contour>
      <point x="228" y="-450" type="qcurve" smooth="yes"/>
      <point x="421" y="-450"/>
      <point x="682" y="-215"/>
      <point x="736" y="28" type="qcurve"/>
      <point x="939" y="926" type="line"/>
      <point x="951" y="975"/>
      <point x="984" y="1041"/>
      <point x="1028" y="1082"/>
      <point x="1081" y="1100"/>
      <point x="1111" y="1100" type="qcurve" smooth="yes"/>
      <point x="1125" y="1100"/>
      <point x="1155" y="1098"/>
      <point x="1185" y="1091"/>
      <point x="1219" y="1082"/>
      <point x="1235" y="1074" type="qcurve"/>
      <point x="1305" y="1384" type="line"/>
      <point x="1241" y="1410"/>
      <point x="1115" y="1430"/>
      <point x="1053" y="1430" type="qcurve" smooth="yes"/>
      <point x="855" y="1430"/>
      <point x="601" y="1195"/>
      <point x="545" y="952" type="qcurve" smooth="yes"/>
      <point x="340" y="52" type="line"/>
      <point x="331" y="5"/>
      <point x="297" y="-61"/>
      <point x="255" y="-102"/>
      <point x="202" y="-120"/>
      <point x="170" y="-120" type="qcurve" smooth="yes"/>
      <point x="157" y="-120"/>
      <point x="126" y="-116"/>
      <point x="96" y="-111"/>
      <point x="64" y="-100"/>
      <point x="46" y="-94" type="qcurve"/>
      <point x="-24" y="-404" type="line"/>
      <point x="42" y="-430"/>
      <point x="166" y="-450"/>
    </contour>
    <contour>
      <point x="1181" y="560" type="line"/>
      <point x="1251" y="810" type="line"/>
      <point x="211" y="810" type="line"/>
      <point x="141" y="560" type="line"/>
    </contour>
  </outline>
</glyph>
